<svg width="22" height="26" viewBox="0 0 22 26" fill="none" xmlns="http://www.w3.org/2000/svg">
<path d="M20.826 19.6844C20.458 20.5423 20.0033 21.3603 19.4691 22.1257C18.7555 23.145 18.1694 23.8494 17.7202 24.2414C17.0225 24.8819 16.273 25.2115 15.4716 25.2301C14.8975 25.2301 14.2038 25.0667 13.3958 24.7344C12.5852 24.4035 11.841 24.2414 11.1592 24.2414C10.4456 24.2414 9.68008 24.4035 8.86012 24.7344C8.04148 25.0667 7.37966 25.2408 6.87333 25.2567C6.10653 25.2899 5.33972 24.9524 4.57558 24.2414C4.08785 23.8161 3.47786 23.0852 2.74561 22.0513C1.96153 20.9496 1.31699 19.6671 0.811988 18.2093C0.271105 16.6318 -1.32062e-06 15.1062 -1.19143e-06 13.6284C-1.04353e-06 11.9366 0.365461 10.4761 1.09771 9.25349C1.65155 8.29328 2.44334 7.49188 3.3968 6.92649C4.33699 6.36258 5.41028 6.05894 6.50655 6.04673C7.11786 6.04673 7.91922 6.23544 8.91195 6.60755C9.90467 6.97965 10.5426 7.16836 10.8203 7.16836C11.0303 7.16836 11.736 6.94643 12.9373 6.50655C14.0709 6.09856 15.0278 5.92978 15.8119 5.99623C17.9382 6.16766 19.5343 7.0049 20.5961 8.51459C18.6957 9.66679 17.7561 11.2788 17.7747 13.348C17.7907 14.96 18.3767 16.3009 19.525 17.3654C20.0326 17.8512 20.6249 18.2399 21.2725 18.5123C21.1317 18.9203 20.9828 19.3097 20.826 19.6844ZM15.9527 0.506332C15.9527 1.76884 15.4903 2.94894 14.572 4.04001C13.4609 5.33707 12.1187 6.08793 10.6635 5.96965C10.6445 5.81089 10.6352 5.65112 10.6356 5.49123C10.6356 4.27789 11.1619 2.98084 12.1014 1.91901C12.5692 1.38211 13.1646 0.934254 13.8862 0.578095C14.6065 0.227252 15.2869 0.0332251 15.9275 1.39242e-06C15.9448 0.170107 15.9527 0.338884 15.9527 0.506332Z" fill="#030507"/>
</svg>
