<svg width="115" height="36" viewBox="0 0 115 36" fill="none" xmlns="http://www.w3.org/2000/svg">
<path fill-rule="evenodd" clip-rule="evenodd" d="M17.4107 0C16.5379 0 15.6919 0.333137 15.0577 0.940114C13.7114 2.22771 11.8118 3.05844 9.70833 3.57235C7.61982 4.08261 5.45677 4.25045 3.70208 4.30307C2.76924 4.32789 1.87186 4.68897 1.18661 5.32702C0.499286 5.967 0.0744323 6.84112 0.00790321 7.78191L0 7.89367L0.703756 17.5205C0.890714 20.8506 1.26639 24.2944 3.15292 27.4019C4.99272 30.4324 7.72682 32.8202 10.98 34.2375C13.5492 35.3569 16.3428 35.8277 19.1164 35.6243C19.1972 35.6301 19.2801 35.6289 19.3645 35.6201C19.6214 35.5935 19.8735 35.5604 20.1209 35.521C20.5227 35.4677 20.9236 35.4001 21.3226 35.3181C21.499 35.2819 21.6622 35.2173 21.8086 35.1301C22.1593 35.0211 22.4985 34.8965 22.8262 34.7563C24.3021 34.1248 25.45 33.2477 26.27 32.125C27.0899 30.9789 27.4999 29.6574 27.4999 28.1605C27.4999 26.2426 26.8908 24.734 25.6726 23.6347C24.4544 22.5354 22.545 21.7752 19.9446 21.3542L15.9737 20.6876C14.404 20.4537 13.2795 20.0795 12.6001 19.5649C11.9207 19.027 11.581 18.2551 11.581 17.2494C11.581 16.5243 11.8036 15.8928 12.2487 15.3548C12.6938 14.7935 13.3146 14.3608 14.1112 14.0567C14.9077 13.7527 15.8448 13.6006 16.9225 13.6006C19.138 13.6006 21.3302 14.2691 23.499 15.6061C24.3329 16.1201 25.4433 15.9658 26.0185 15.1737C26.5704 14.4136 26.425 13.3434 25.6222 12.8544C24.6072 12.2361 23.5112 11.7364 22.3342 11.3553C20.624 10.7705 18.8786 10.4782 17.0982 10.4782C15.2943 10.4782 13.7012 10.7705 12.319 11.3553C10.9602 11.94 9.90596 12.7703 9.15628 13.8462C8.40661 14.8988 8.03177 16.1267 8.03177 17.5301C8.03177 19.2842 8.58231 20.6876 9.6834 21.7401C10.8079 22.7926 12.4947 23.5177 14.7437 23.9153L18.8552 24.5819C20.6357 24.886 21.9125 25.3304 22.6856 25.9151C23.4587 26.4998 23.8452 27.3419 23.8452 28.4412C23.8452 29.2364 23.5993 29.9498 23.1073 30.5813C22.6153 31.2128 21.9125 31.704 20.9988 32.0548C20.5012 32.2379 19.9559 32.3698 19.363 32.4505C19.2947 32.4598 19.2273 32.4726 19.1611 32.4888C16.8022 32.708 14.417 32.3296 12.2304 31.3769C9.5687 30.2172 7.33171 28.2636 5.82642 25.7841C4.37038 23.3858 4.00875 20.6255 3.82438 17.3329L3.82364 17.3197L3.13694 7.92622C3.16102 7.81135 3.22159 7.70011 3.31886 7.60955C3.43848 7.49817 3.60443 7.42776 3.78611 7.4231L3.78947 7.42302L3.79283 7.42292C5.64844 7.36739 8.05843 7.18872 10.4515 6.60406C12.8307 6.02276 15.3221 5.0095 17.2204 3.19391C17.2639 3.15219 17.332 3.12116 17.4107 3.12116C17.4895 3.12116 17.557 3.15167 17.6006 3.19339C19.4984 5.0091 21.9901 6.02276 24.3694 6.60406C26.7624 7.18872 29.1726 7.3674 31.0287 7.42292L31.032 7.42302L31.0354 7.4231C31.217 7.42776 31.383 7.49817 31.5026 7.60955C31.6211 7.71988 31.6851 7.86087 31.6951 8.00171C31.7559 8.86146 32.5033 9.50922 33.3644 9.44852C34.2256 9.38782 34.8744 8.64166 34.8136 7.78191C34.747 6.8411 34.3222 5.96699 33.6349 5.32702C32.9496 4.68896 32.0522 4.32788 31.1193 4.30307C29.3642 4.25045 27.201 4.08261 25.1125 3.57235C23.0092 3.05849 21.1101 2.2279 19.7644 0.940631C19.13 0.333328 18.2839 0 17.4107 0Z" fill="url(#paint0_angular_42_15266)"/>
<path d="M34.7668 32.501C33.8167 32.501 32.9552 32.281 32.1823 31.8409C31.4222 31.4008 30.8141 30.8036 30.358 30.0491C29.9146 29.2947 29.6928 28.4523 29.6928 27.5218C29.6928 26.6039 29.9082 25.774 30.339 25.0322C30.7697 24.2777 31.3525 23.6805 32.0873 23.2404C32.8221 22.7877 33.6393 22.5614 34.5388 22.5614C35.4383 22.5614 36.2365 22.7877 36.9333 23.2404C37.6301 23.6805 38.1812 24.284 38.5866 25.051C39.0047 25.8054 39.2137 26.6605 39.2137 27.6161V28.1442H31.5932C31.6946 28.6723 31.8909 29.1438 32.1823 29.5588C32.4864 29.9737 32.8665 30.3006 33.3226 30.5395C33.7913 30.7784 34.2981 30.8979 34.8429 30.8979C35.3116 30.8979 35.7614 30.8287 36.1921 30.6904C36.6355 30.5395 37.0029 30.3258 37.2943 30.0491L38.5106 31.2374C37.9405 31.6649 37.3513 31.9855 36.7432 32.1993C36.1478 32.4004 35.489 32.501 34.7668 32.501ZM31.6122 26.7296H37.3323C37.2563 26.2267 37.079 25.7866 36.8002 25.4094C36.5342 25.0196 36.1985 24.7178 35.793 24.5041C35.4003 24.2777 34.9695 24.1646 34.5008 24.1646C34.0194 24.1646 33.5759 24.2714 33.1705 24.4852C32.7651 24.6989 32.423 25.0007 32.1443 25.3905C31.8783 25.7677 31.7009 26.2141 31.6122 26.7296Z" fill="white"/>
<path d="M45.6027 32.501C44.6778 32.501 43.8353 32.281 43.0752 31.8409C42.315 31.4008 41.7132 30.8036 41.2698 30.0491C40.8391 29.2947 40.6237 28.4523 40.6237 27.5218C40.6237 26.5913 40.8454 25.7552 41.2888 25.0133C41.7322 24.2589 42.3277 23.6616 43.0752 23.2215C43.8353 22.7689 44.6778 22.5425 45.6027 22.5425C46.3375 22.5425 47.0406 22.6808 47.7121 22.9575C48.3962 23.2341 48.9853 23.6239 49.4794 24.1268L48.3012 25.4282C47.9338 25.0259 47.522 24.7241 47.066 24.5229C46.6099 24.3217 46.1348 24.2211 45.6407 24.2211C45.0579 24.2211 44.5258 24.3657 44.0444 24.6549C43.5756 24.9441 43.2019 25.3402 42.9231 25.8432C42.6444 26.3461 42.5051 26.9057 42.5051 27.5218C42.5051 28.1379 42.6444 28.6974 42.9231 29.2004C43.2019 29.7034 43.5819 30.1057 44.0634 30.4075C44.5448 30.6967 45.0832 30.8413 45.6787 30.8413C46.1728 30.8413 46.6352 30.747 47.066 30.5584C47.4967 30.3572 47.9021 30.068 48.2822 29.6908L49.4414 30.8979C48.9347 31.4134 48.3455 31.8095 47.6741 32.0861C47.0153 32.3627 46.3248 32.501 45.6027 32.501Z" fill="white"/>
<path d="M54.7147 32.5199C53.9672 32.5199 53.3084 32.3627 52.7383 32.0484C52.1682 31.734 51.7247 31.2939 51.408 30.7281C51.0913 30.1497 50.9329 29.4896 50.9329 28.7477V22.7311H52.8143V28.4271C52.8143 29.1815 53.0297 29.7788 53.4604 30.2189C53.9038 30.659 54.4929 30.879 55.2278 30.879C55.7472 30.879 56.2096 30.7721 56.615 30.5584C57.0204 30.332 57.3498 30.0177 57.6032 29.6153V22.7311H59.5036V32.3313H57.6032V31.3505C56.8557 32.1301 55.8929 32.5199 54.7147 32.5199Z" fill="white"/>
<path d="M61.7533 32.3313V22.7311H63.6537V23.9571C63.9577 23.5044 64.3315 23.1524 64.7749 22.9009C65.231 22.6368 65.7441 22.5048 66.3142 22.5048C66.7069 22.5174 67.03 22.574 67.2834 22.6746V24.372C67.106 24.2966 66.9223 24.2463 66.7323 24.2211C66.5422 24.1834 66.3522 24.1646 66.1622 24.1646C65.6047 24.1646 65.1106 24.3154 64.6799 24.6172C64.2491 24.9064 63.9071 25.3339 63.6537 25.8998V32.3313H61.7533Z" fill="white"/>
<path d="M72.8856 32.501C71.9354 32.501 71.0739 32.281 70.3011 31.8409C69.541 31.4008 68.9329 30.8036 68.4768 30.0491C68.0333 29.2947 67.8116 28.4523 67.8116 27.5218C67.8116 26.6039 68.027 25.774 68.4578 25.0322C68.8885 24.2777 69.4713 23.6805 70.2061 23.2404C70.9409 22.7877 71.7581 22.5614 72.6576 22.5614C73.5571 22.5614 74.3552 22.7877 75.052 23.2404C75.7488 23.6805 76.3 24.284 76.7054 25.051C77.1235 25.8054 77.3325 26.6605 77.3325 27.6161V28.1442H69.712C69.8134 28.6723 70.0097 29.1438 70.3011 29.5588C70.6052 29.9737 70.9853 30.3006 71.4413 30.5395C71.9101 30.7784 72.4169 30.8979 72.9616 30.8979C73.4304 30.8979 73.8802 30.8287 74.3109 30.6904C74.7543 30.5395 75.1217 30.3258 75.4131 30.0491L76.6294 31.2374C76.0592 31.6649 75.4701 31.9855 74.862 32.1993C74.2666 32.4004 73.6078 32.501 72.8856 32.501ZM69.731 26.7296H75.4511C75.3751 26.2267 75.1977 25.7866 74.919 25.4094C74.653 25.0196 74.3172 24.7178 73.9118 24.5041C73.5191 24.2777 73.0883 24.1646 72.6196 24.1646C72.1381 24.1646 71.6947 24.2714 71.2893 24.4852C70.8839 24.6989 70.5418 25.0007 70.2631 25.3905C69.9971 25.7677 69.8197 26.2141 69.731 26.7296Z" fill="white"/>
<path d="M80.3083 32.3313V24.3154H78.0659V22.7311H80.3083V21.2789C80.3083 20.2729 80.5871 19.5059 81.1445 18.9778C81.7146 18.4497 82.5255 18.1857 83.577 18.1857C83.843 18.1857 84.0901 18.2045 84.3181 18.2423C84.5589 18.2674 84.7742 18.3114 84.9643 18.3743V19.9963C84.7362 19.9334 84.5335 19.8894 84.3561 19.8643C84.1788 19.8266 83.9824 19.8077 83.767 19.8077C83.2349 19.8077 82.8358 19.9334 82.5698 20.1849C82.3164 20.4238 82.1897 20.8073 82.1897 21.3354V22.7311H84.9643V24.3154H82.1897V32.3313H80.3083Z" fill="white"/>
<path d="M86.4173 32.3313V22.7311H88.3177V32.3313H86.4173ZM87.3675 21.1845C87.0508 21.1845 86.7784 21.0714 86.5503 20.8451C86.3223 20.6061 86.2083 20.3295 86.2083 20.0152C86.2083 19.6883 86.3223 19.4179 86.5503 19.2042C86.7784 18.9778 87.0508 18.8647 87.3675 18.8647C87.6969 18.8647 87.9756 18.9778 88.2037 19.2042C88.4317 19.4179 88.5457 19.6883 88.5457 20.0152C88.5457 20.3295 88.4317 20.6061 88.2037 20.8451C87.9756 21.0714 87.6969 21.1845 87.3675 21.1845Z" fill="white"/>
<path d="M95.1927 32.501C94.2425 32.501 93.381 32.281 92.6082 31.8409C91.8481 31.4008 91.24 30.8036 90.7839 30.0491C90.3404 29.2947 90.1187 28.4523 90.1187 27.5218C90.1187 26.6039 90.3341 25.774 90.7649 25.0322C91.1956 24.2777 91.7784 23.6805 92.5132 23.2404C93.248 22.7877 94.0652 22.5614 94.9647 22.5614C95.8642 22.5614 96.6623 22.7877 97.3591 23.2404C98.0559 23.6805 98.6071 24.284 99.0125 25.051C99.4306 25.8054 99.6396 26.6605 99.6396 27.6161V28.1442H92.0191C92.1205 28.6723 92.3168 29.1438 92.6082 29.5588C92.9123 29.9737 93.2924 30.3006 93.7484 30.5395C94.2172 30.7784 94.724 30.8979 95.2687 30.8979C95.7375 30.8979 96.1873 30.8287 96.618 30.6904C97.0614 30.5395 97.4288 30.3258 97.7202 30.0491L98.9365 31.2374C98.3663 31.6649 97.7772 31.9855 97.1691 32.1993C96.5737 32.4004 95.9149 32.501 95.1927 32.501ZM92.0381 26.7296H97.7582C97.6822 26.2267 97.5048 25.7866 97.2261 25.4094C96.9601 25.0196 96.6243 24.7178 96.2189 24.5041C95.8262 24.2777 95.3954 24.1646 94.9267 24.1646C94.4452 24.1646 94.0018 24.2714 93.5964 24.4852C93.191 24.6989 92.8489 25.0007 92.5702 25.3905C92.3042 25.7677 92.1268 26.2141 92.0381 26.7296Z" fill="white"/>
<path d="M101.45 32.3313V19.1287L103.35 18.7704V32.3313H101.45Z" fill="white"/>
<path d="M110.035 32.4822C109.135 32.4822 108.312 32.2621 107.564 31.8221C106.817 31.382 106.228 30.791 105.797 30.0491C105.366 29.2947 105.151 28.4523 105.151 27.5218C105.151 26.5913 105.366 25.7552 105.797 25.0133C106.241 24.2714 106.836 23.6805 107.583 23.2404C108.331 22.8003 109.161 22.5802 110.073 22.5802C110.605 22.5802 111.118 22.662 111.612 22.8254C112.106 22.9889 112.562 23.2278 112.98 23.5422V19.1287L114.881 18.7704V32.3313H112.999V31.4071C112.176 32.1238 111.188 32.4822 110.035 32.4822ZM110.282 30.8413C110.839 30.8413 111.346 30.7407 111.802 30.5395C112.271 30.3383 112.664 30.0491 112.98 29.6719V25.3528C112.664 25.0007 112.271 24.7241 111.802 24.5229C111.346 24.3092 110.839 24.2023 110.282 24.2023C109.674 24.2023 109.123 24.3469 108.629 24.6361C108.135 24.9253 107.742 25.3214 107.45 25.8243C107.159 26.3147 107.013 26.8742 107.013 27.5029C107.013 28.1316 107.159 28.6974 107.45 29.2004C107.742 29.7034 108.135 30.1057 108.629 30.4075C109.123 30.6967 109.674 30.8413 110.282 30.8413Z" fill="white"/>
<defs>
<radialGradient id="paint0_angular_42_15266" cx="0" cy="0" r="1" gradientUnits="userSpaceOnUse" gradientTransform="translate(89.8728 13.7152) rotate(13.1712) scale(81.4656 36.3966)">
<stop offset="0.0677083" stop-color="#0073C5"/>
<stop offset="0.265625" stop-color="#33A9FE"/>
<stop offset="0.520889" stop-color="#35DF91"/>
<stop offset="0.617182" stop-color="#198F57"/>
<stop offset="0.757289" stop-color="#198F57" stop-opacity="0"/>
<stop offset="0.860651" stop-color="#198F57" stop-opacity="0"/>
</radialGradient>
</defs>
</svg>
