<svg width="1258" height="644" viewBox="0 0 1258 644" fill="none" xmlns="http://www.w3.org/2000/svg">
<path d="M556.988 211.179L551.562 218.414L547.948 222.032L540.717 226.01L539.631 229.267C539.631 229.267 536.738 232.162 537.101 233.972C537.464 235.782 537.464 239.037 537.464 239.037C537.464 239.037 532.402 243.74 530.232 245.187C528.062 246.633 525.168 249.89 525.168 249.89C525.168 249.89 523.361 252.061 522.277 252.785C521.192 253.506 519.385 255.678 517.938 257.85C516.49 260.021 515.044 261.466 514.321 262.551C513.599 263.636 511.428 266.169 510.344 270.149C509.259 274.131 506.366 278.832 506.366 278.832L505.642 280.641C506.005 286.792 506.003 287.877 506.728 290.049C507.451 292.219 508.175 291.494 507.451 296.199C506.728 300.9 506.728 302.71 506.005 304.882C505.282 307.05 503.112 311.03 502.39 312.842C501.666 314.65 503.836 317.905 503.836 317.905C503.836 317.905 504.922 322.61 504.197 323.695C503.475 324.781 504.559 326.951 504.559 326.951C504.559 326.951 508.898 329.483 510.345 330.931C511.791 332.378 514.323 334.549 514.684 335.634C515.048 336.721 517.939 341.786 518.301 342.871C518.662 343.956 521.555 347.934 522.278 349.021C523.001 350.107 526.617 354.087 526.617 354.087C526.617 354.087 531.318 357.702 532.404 359.151C533.488 360.597 536.743 361.321 537.826 362.406C538.912 363.491 541.442 363.127 542.888 364.216C544.335 365.301 547.227 363.491 548.674 364.216C550.12 364.939 554.099 363.492 555.183 362.769C556.268 362.046 558.798 359.514 560.607 360.597C562.414 361.681 563.499 360.597 564.946 360.959C566.39 361.321 568.561 359.514 570.006 359.514C571.454 359.514 575.068 358.066 576.153 358.066C577.239 358.066 580.855 355.892 582.302 355.892C583.746 355.892 585.555 354.449 587.363 355.171C589.17 355.892 588.447 353.726 591.702 354.809C594.956 355.892 596.041 354.809 597.125 355.892C598.211 356.979 599.658 355.896 600.743 357.342C601.827 358.787 603.634 359.872 603.996 361.321C604.356 362.769 606.526 364.217 606.526 364.217L608.696 364.577C608.696 364.577 611.591 362.407 612.313 363.855C613.035 365.302 616.29 364.942 616.29 364.942L619.543 368.559L620.629 370.005C620.629 370.005 622.8 375.795 622.437 377.965C622.075 380.135 622.075 384.838 620.991 385.923C619.906 387.01 619.183 391.713 619.183 391.713C619.183 391.713 617.736 393.16 620.991 396.055C624.245 398.951 626.416 401.481 627.5 402.926C628.586 404.375 631.479 408.356 631.838 410.888C632.201 413.419 632.924 414.866 634.371 418.123C635.817 421.379 637.624 421.741 637.985 425.361C638.349 428.977 639.07 428.979 638.708 431.509C638.347 434.042 637.263 434.404 638.347 436.212C639.431 438.022 640.876 441.279 640.517 442.364C640.156 443.449 639.431 448.152 639.431 448.152L638.708 450.324L635.455 456.477L633.285 459.73C632.562 462.262 631.116 464.795 631.478 468.413C631.838 472.031 629.67 472.03 632.562 475.646C635.455 479.266 636.899 483.246 638.708 486.503C640.517 489.758 641.602 493.014 641.961 495.184C642.325 497.356 643.77 498.081 644.493 500.974C645.215 503.869 645.578 505.314 645.578 507.124C645.578 508.932 645.215 513.637 645.941 514.722C646.662 515.807 647.025 519.065 647.387 520.512C647.748 521.96 646.301 522.322 648.471 524.855C650.641 527.387 652.087 528.833 653.533 530.643C654.979 532.453 654.617 531.728 655.703 534.262C656.788 536.793 658.233 538.243 658.596 540.411C658.958 542.581 659.318 548.008 660.404 550.541C661.488 553.074 662.934 555.608 662.934 555.608C662.934 555.608 666.913 558.139 668.359 557.778C669.803 557.416 672.698 554.163 674.868 555.246C677.039 556.331 678.846 555.246 680.653 555.246C682.46 555.246 684.269 553.074 686.078 553.074C687.885 553.074 690.416 550.18 691.865 550.904C693.31 551.626 695.116 550.178 696.925 548.37C698.734 546.563 699.818 545.116 703.071 542.221C706.326 539.326 705.965 539.325 708.133 537.517C710.304 535.707 712.474 531.727 715.004 531.003C717.534 530.28 718.257 527.75 718.98 525.94C719.705 524.13 720.065 523.045 721.151 521.597C722.236 520.152 721.512 521.963 723.321 517.257C725.13 512.552 727.302 510.745 729.109 509.659C730.916 508.574 732.001 506.404 733.085 506.041C734.169 505.677 735.978 507.126 735.255 503.869C734.534 500.614 735.255 495.911 734.534 494.826C733.809 493.738 732.723 497.356 733.087 491.928C733.451 486.503 737.426 481.075 737.426 481.075C737.426 481.075 742.849 474.201 744.658 473.116C746.467 472.031 746.827 470.946 749.36 469.498C751.889 468.053 757.314 464.435 757.314 462.625C757.314 460.815 759.484 456.112 759.484 455.025C759.484 453.94 759.484 452.855 758.763 446.704C758.038 440.555 759.484 442 757.315 436.212C755.147 430.424 754.782 423.188 753.338 421.379C751.89 419.569 752.613 414.864 752.613 413.419C752.613 411.973 755.147 408.355 756.231 406.908C757.315 405.46 762.016 399.67 762.016 399.67C762.016 399.67 769.246 391.35 771.778 387.372C774.31 383.39 776.84 379.773 778.648 378.327C780.456 376.88 784.795 373.62 787.326 370.004C789.857 366.387 794.919 359.514 795.282 358.426C795.642 357.342 798.534 353.724 798.534 353.724C798.534 353.724 802.512 349.019 803.236 346.488C803.957 343.954 807.572 329.845 806.849 330.568C806.129 331.293 801.789 332.015 800.341 332.376C798.897 332.74 802.513 334.185 792.025 333.463C781.541 332.738 776.117 334.548 776.117 334.548C772.861 333.823 770.331 337.441 769.245 332.376C768.16 327.313 767.436 324.418 765.269 320.8C763.099 317.182 761.651 315.735 758.4 311.03C755.147 306.329 755.505 308.497 752.612 304.882C749.72 301.264 748.995 302.347 747.188 297.645C745.381 292.942 743.935 294.752 741.765 288.239C739.594 281.724 738.149 281.001 737.064 277.384C735.978 273.768 734.534 272.679 733.809 269.424C733.087 266.168 724.771 249.527 723.686 248.44C722.6 247.357 720.792 241.565 721.154 242.652C721.517 243.737 726.579 247.355 726.579 247.355C726.579 247.355 729.47 246.268 730.556 246.268C731.641 246.268 735.98 250.25 735.98 251.695C735.98 253.143 743.577 260.018 745.382 265.083C747.19 270.148 749.363 273.766 749.721 275.213C750.08 276.659 753.699 282.449 755.147 284.621C756.591 286.792 761.291 291.132 762.014 293.304C762.737 295.475 769.61 302.71 769.61 307.414C769.61 312.117 772.861 318.267 773.224 319.713C773.587 321.16 780.093 322.971 780.093 322.971L788.773 320.8C788.773 320.8 801.789 312.477 803.236 312.477C804.68 312.477 816.255 307.05 816.255 307.05C816.255 307.05 820.954 302.71 824.207 300.179C827.462 297.645 831.078 292.944 831.802 290.771C832.524 288.599 833.971 288.239 836.863 284.981C839.756 281.724 843.733 278.469 841.203 276.298C838.671 274.128 837.224 274.851 833.61 271.233C829.993 267.616 830.355 268.339 827.823 263.635C825.291 258.933 828.184 253.505 822.759 258.933C817.338 264.36 819.506 265.806 814.081 266.894C808.659 267.978 806.488 271.596 803.957 267.978C801.427 264.36 798.897 266.531 797.448 261.103C796.002 255.676 794.916 255.313 794.556 253.145C794.196 250.973 794.556 250.973 791.663 245.545C788.771 240.118 790.94 231.797 792.747 236.5C794.556 241.203 797.448 241.927 802.15 245.183C806.849 248.438 809.021 250.973 813.358 251.335C817.697 251.695 821.314 251.335 822.037 252.057C822.759 252.781 823.482 251.696 825.291 252.418C827.1 253.143 827.82 251.335 828.544 254.227C829.267 257.121 833.245 257.483 835.052 259.291C836.861 261.1 836.861 260.378 841.563 261.1C846.265 261.825 852.775 261.825 852.775 261.825L859.642 261.461L867.597 262.183C867.597 262.183 873.386 265.44 874.83 265.44C876.276 265.44 876.637 269.421 880.253 271.591C883.869 273.763 884.592 274.123 886.761 276.656C888.935 279.189 888.57 280.274 891.461 282.806C894.356 285.341 899.058 282.446 899.781 281.363C900.501 280.276 904.117 278.468 903.397 281.363C902.673 284.256 907.01 283.169 905.926 290.046C904.842 296.917 904.117 295.109 905.926 299.814C907.733 304.517 915.689 318.988 916.052 323.33C916.415 327.671 918.582 326.225 918.943 330.206C919.306 334.185 921.473 335.631 921.473 338.526C921.473 341.421 924.007 342.143 924.367 344.316C924.731 346.488 928.707 344.676 929.792 344.316C930.878 343.953 935.938 339.25 935.938 339.25C935.938 339.25 938.112 338.528 937.747 334.908C937.384 331.293 937.747 332.015 937.747 326.588C937.747 321.162 935.578 321.162 936.663 315.737C937.747 310.31 940.639 307.052 941.363 304.52C942.086 301.989 944.979 297.647 946.423 297.284C947.869 296.922 955.826 292.944 957.635 290.409C959.442 287.877 962.336 284.982 965.229 282.089C968.12 279.196 973.182 275.577 974.268 276.662C975.353 277.747 974.991 277.386 976.8 277.386C978.607 277.386 981.862 278.834 984.392 279.196C986.924 279.557 991.988 285.707 993.072 288.964C994.156 292.22 993.433 291.496 997.411 296.2C1001.39 300.902 1005 298.007 1005 303.797C1005 309.587 1005 309.223 1006.81 311.395C1008.62 313.567 1010.79 307.415 1012.96 308.14C1015.13 308.865 1015.49 307.417 1017.3 313.205C1019.1 318.995 1020.19 318.995 1020.55 324.783C1020.91 330.571 1020.19 325.145 1020.19 329.846C1020.19 334.551 1019.83 334.913 1020.55 339.253C1021.27 343.598 1023.8 345.044 1023.44 345.767C1023.44 345.767 1025.61 339.618 1024.89 335.274C1024.17 330.934 1024.89 324.785 1026.7 322.976C1028.5 321.165 1030.31 319.358 1031.76 324.061C1033.21 328.763 1033.93 325.146 1037.18 330.573C1040.44 336.001 1043.33 334.913 1043.69 337.446C1044.05 339.979 1045.87 340.343 1048.39 342.511C1050.92 344.683 1053.09 342.151 1055.99 339.979C1058.88 337.808 1066.83 329.848 1067.2 326.591C1067.56 323.336 1070.81 324.058 1065.03 315.74C1059.24 307.418 1059.24 304.523 1053.09 299.459C1046.95 294.394 1043.33 294.032 1048.03 287.519C1052.73 281.006 1054.9 276.666 1057.8 278.476C1060.69 280.284 1065.75 279.921 1065.75 287.159C1065.75 294.394 1064.3 302.353 1069.36 293.67C1074.43 284.987 1076.96 279.922 1075.51 281.372C1074.07 282.819 1078.77 278.477 1078.77 278.477C1078.77 278.477 1079.13 275.221 1085.28 273.774C1091.42 272.324 1093.23 271.602 1095.4 270.517C1097.57 269.431 1103.72 262.194 1104.8 258.939C1105.89 255.683 1108.78 249.895 1108.06 247.363C1107.33 244.828 1103.72 232.53 1102.99 232.89C1102.27 233.253 1102.63 233.253 1097.93 228.188C1093.23 223.123 1089.98 219.505 1089.25 217.334C1088.53 215.162 1086.72 214.8 1088.89 211.907C1091.06 209.014 1092.15 209.375 1092.51 206.842C1092.87 204.311 1095.76 202.139 1090.34 203.949C1084.92 205.757 1088.89 204.674 1084.19 204.312C1079.49 203.949 1067.2 206.844 1073.35 199.247C1079.49 191.649 1081.3 186.948 1082.38 186.948C1083.47 186.948 1088.89 180.796 1089.25 186.584C1089.62 192.372 1091.78 190.924 1092.15 194.542C1092.51 198.161 1099.74 190.564 1099.74 190.564C1099.74 190.564 1102.27 191.287 1104.08 193.096C1105.89 194.904 1105.89 200.694 1105.89 200.694C1105.89 200.694 1104.44 198.884 1108.42 201.779C1112.4 204.675 1116.73 203.226 1116.73 209.377C1116.73 215.527 1116.73 215.89 1119.26 217.337C1121.8 218.784 1124.32 218.062 1126.5 216.252C1128.67 214.444 1132.28 207.93 1132.28 207.93C1132.28 207.93 1132.64 205.397 1126.86 201.779C1121.07 198.162 1117.46 195.631 1115.29 193.821C1113.12 192.012 1113.84 186.586 1116.01 184.413C1118.18 182.241 1119.26 181.156 1118.54 178.263C1117.82 175.366 1119.63 173.196 1125.05 173.558C1130.47 173.921 1131.56 173.198 1131.56 173.198C1131.56 173.198 1132.65 173.92 1132.65 171.75C1132.65 169.58 1139.51 159.448 1137.71 159.448C1135.9 159.448 1138.07 156.917 1136.98 152.937C1135.9 148.955 1140.6 142.807 1136.62 139.912C1132.64 137.017 1131.56 135.569 1129.03 131.229C1126.5 126.886 1126.86 126.164 1117.46 125.077C1108.06 123.992 1103.72 127.249 1101.55 124.356C1099.38 121.461 1098.29 128.696 1096.85 120.012C1095.4 111.329 1099.02 105.54 1099.02 105.54C1099.02 105.54 1104.8 101.923 1106.25 99.3896C1107.69 96.8564 1113.48 95.7714 1118.18 97.5813C1122.88 99.3896 1129.75 99.028 1135.54 100.116C1141.32 101.2 1140.96 104.818 1143.86 100.116C1146.75 95.4097 1143.86 93.2414 1146.03 90.7081C1148.2 88.1749 1150.73 84.195 1152.53 86.7266C1154.34 89.2615 1157.96 91.7915 1160.85 88.5349C1163.75 85.28 1164.83 84.9183 1164.83 84.9183L1166.27 86.3666C1166.27 86.3666 1169.53 84.555 1169.53 87.81C1169.53 91.0682 1172.78 94.6864 1170.98 97.2181C1169.16 99.7529 1166.64 99.3896 1166.64 105.54C1166.64 111.693 1166.64 110.606 1170.61 115.673C1174.59 120.736 1177.12 116.394 1177.84 121.822C1178.57 127.249 1179.29 126.166 1183.27 129.782C1187.25 133.399 1186.52 133.399 1189.42 135.57C1192.31 137.742 1193.76 139.914 1193.76 136.295C1193.76 132.677 1194.12 130.869 1193.76 127.612C1193.39 124.357 1196.65 121.822 1194.48 116.396C1192.31 110.969 1194.12 111.331 1189.78 107.351C1185.44 103.373 1182.54 108.076 1181.1 102.286C1179.65 96.4979 1187.97 93.9647 1190.14 93.2414C1192.31 92.5196 1195.56 88.1765 1196.28 91.0714C1197.01 93.9647 1190.86 104.458 1201.35 93.2414C1211.83 82.0266 1207.13 86.7298 1207.13 86.7298C1207.13 86.7298 1212.56 86.0065 1213.64 86.7298C1214.72 87.4548 1217.62 83.4732 1216.53 83.8365C1215.45 84.1998 1204.97 78.0467 1204.97 78.0467L1197.37 73.7067C1197.37 73.7067 1199.9 71.8968 1201.71 72.2601C1203.52 72.6217 1203.88 68.6418 1205.69 68.2786C1207.5 67.9169 1219.79 70.8134 1222.32 72.2601C1224.85 73.7067 1233.89 74.0684 1232.81 73.3451C1231.72 72.6201 1225.94 68.2802 1225.58 66.8319C1225.22 65.3853 1212.56 62.4904 1208.58 62.852C1204.6 63.2121 1200.99 64.2971 1197.74 63.2121C1194.48 62.1271 1189.78 59.2322 1187.25 59.2322C1184.72 59.2322 1152.9 53.0823 1151.45 53.4439C1150.01 53.8056 1147.84 60.6788 1146.75 59.5938C1145.67 58.5088 1143.86 58.5072 1138.79 57.0606C1133.74 55.6139 1126.86 54.5273 1117.82 53.8056C1108.78 53.0823 1102.64 54.5289 1100.11 51.634C1097.58 48.7407 1092.15 49.8257 1086.01 49.4624C1079.86 49.1024 1072.63 49.4624 1069.37 49.4624C1066.12 49.4624 1058.53 49.1024 1056.72 48.7391C1054.91 48.3758 1052.74 45.8442 1050.57 45.4841C1048.4 45.1209 1048.76 44.3992 1044.42 43.6758C1040.09 42.9509 1040.45 38.2493 1039 42.2276C1037.55 46.2091 1038.28 45.1225 1036.11 46.5691C1033.94 48.0174 1031.77 50.9107 1030.32 50.9107C1028.88 50.9107 1023.09 51.2724 1022 50.549C1020.92 49.8257 1019.11 49.1024 1015.49 49.1024C1011.88 49.1024 1011.88 49.4624 1007.18 48.7391C1002.48 48.0158 998.862 48.3758 994.523 46.2075C990.184 44.0359 990.184 42.5892 986.567 42.9509C982.954 43.3142 982.954 42.2276 977.889 42.2276C972.829 42.2276 966.683 45.1225 963.426 45.4841C960.175 45.8458 952.943 45.1209 950.411 44.0359C947.877 42.9509 947.156 40.4192 937.753 41.5026C928.352 42.5892 922.929 42.5892 924.736 39.6943C926.545 36.801 928.714 33.9061 929.798 33.5444C930.884 33.1828 933.413 31.3745 931.604 30.6511C929.798 29.9262 927.989 28.8428 923.652 28.4795C919.311 28.1179 919.671 29.9262 913.165 29.2029C906.657 28.4795 916.781 26.6712 903.404 27.0329C890.025 27.3962 886.771 28.4795 885.325 28.4795C883.877 28.4795 882.068 25.5862 878.454 29.9262C874.838 34.2678 869.773 36.7994 862.544 37.1611C855.313 37.5243 854.95 36.4377 848.082 38.9694C841.211 41.501 836.871 38.2461 838.318 44.0343C839.762 49.8225 841.573 51.9941 841.573 53.0791C841.573 54.1641 838.318 61.4005 834.342 57.059C830.361 52.7174 823.131 35.7128 826.385 47.2908C829.638 58.8673 836.869 62.8488 830.001 64.6571C823.132 66.4654 823.852 63.9338 822.767 63.2089C821.685 62.4855 822.767 57.4206 822.406 54.5257C822.043 51.6324 821.322 49.8225 819.876 48.3758C818.432 46.9276 818.79 44.7576 815.898 44.0343C813.005 43.3109 815.537 41.8627 810.836 41.8627C806.136 41.8627 802.16 38.9678 803.244 45.4809C804.327 51.9925 805.411 47.6525 808.303 53.8024C811.194 59.9523 816.62 55.6107 812.643 59.9523C808.666 64.2938 798.18 62.8472 795.649 61.0389C793.117 59.229 793.841 61.7622 789.138 58.5056C784.437 55.249 785.886 52.7158 780.463 55.2491C775.039 57.7823 773.23 62.4855 771.06 60.6756C768.89 58.8657 763.829 63.2072 762.021 61.0389C760.212 58.8673 752.979 58.8673 751.535 61.0389C750.088 63.2089 745.749 62.8472 739.602 65.7421C733.456 68.6354 735.262 66.1022 727.67 72.2537C720.074 78.4035 715.735 83.4684 713.207 79.4885C710.675 75.5102 696.933 68.6354 702.358 67.5488C707.783 66.4638 710.313 64.2938 713.207 66.8255C716.1 69.3571 720.802 68.6354 721.522 66.8255C722.245 65.0156 725.501 63.2072 721.16 61.0373C716.821 58.8657 716.46 60.3123 709.59 57.7807C702.72 55.2474 709.59 55.9724 700.188 54.5241C690.787 53.0775 686.808 52.3541 684.277 51.6308C681.749 50.9075 678.131 51.6308 674.516 51.2691C670.899 50.9075 668.37 50.1842 665.114 50.5458C661.861 50.9075 660.053 50.1842 655.713 53.4407C651.372 56.6973 648.117 58.144 645.226 60.6756C642.334 63.2072 634.742 68.2738 632.572 70.0837C630.401 71.892 622.808 77.6802 622.085 79.8518C621.362 82.0234 622.808 83.8317 619.914 85.2783C617.021 86.725 614.129 86.725 611.959 87.0867C609.789 87.4483 611.959 83.8301 609.789 87.4483C607.62 91.0666 608.343 104.091 610.15 102.281C611.958 100.471 610.873 94.6848 618.828 100.113C626.784 105.538 631.847 104.815 631.484 109.879C631.123 114.944 636.908 114.583 637.63 115.669C638.353 116.753 641.969 114.221 641.969 114.221C641.969 114.221 649.925 109.156 649.925 106.625C649.925 104.091 654.987 98.303 654.987 98.303C654.987 98.303 651.369 96.4947 651.369 92.8765C651.369 89.2599 652.456 88.1717 653.178 84.5534C653.901 80.9368 649.2 84.555 660.049 77.6786C670.894 70.8054 671.618 75.5102 671.618 75.5102C671.618 75.5102 673.063 76.9569 671.255 79.1269C669.448 81.2984 666.193 87.0883 665.47 87.81C664.746 88.5349 668.725 94.3231 670.531 94.3231C672.34 94.3231 675.956 92.8749 678.126 93.2365C680.297 93.5998 683.911 92.1532 684.995 92.8765C686.081 93.5998 688.612 95.7698 686.803 97.5797C684.995 99.388 681.016 101.558 678.126 100.836C675.231 100.115 670.892 95.0465 673.424 102.283C675.956 109.519 673.063 111.328 670.892 110.966C668.725 110.604 664.023 106.988 664.746 112.414C665.47 117.839 660.047 121.458 658.961 121.458C657.875 121.458 655.708 121.096 655.708 121.096C655.708 121.096 652.452 120.733 650.646 120.733C648.837 120.733 645.221 122.541 644.137 123.989C643.051 125.436 641.605 124.352 639.798 124.352C637.99 124.352 639.798 122.181 636.181 121.458C632.567 120.734 630.397 120.011 628.228 121.458C626.057 122.904 622.804 123.628 621.357 122.543C619.911 121.458 622.081 118.923 619.187 120.373C616.295 121.819 614.125 125.799 613.04 126.162C611.956 126.522 616.295 126.162 611.956 126.522C607.617 126.886 605.81 127.972 603.639 128.694C601.469 129.419 604.362 133.759 600.385 135.206C596.407 136.652 599.302 133.397 595.323 136.652C591.345 139.91 590.62 142.804 589.176 143.165C587.729 143.529 588.092 144.25 584.837 144.612C581.582 144.974 581.946 145.335 580.135 145.697C578.328 146.059 580.498 146.784 576.521 146.059C572.541 145.335 569.65 146.784 570.373 148.23C571.095 149.677 584.474 153.657 574.35 153.295C564.226 152.933 567.481 154.742 569.65 156.188C571.82 157.635 572.903 159.082 573.989 159.445C575.075 159.807 576.88 164.15 576.88 164.15C576.88 164.15 579.774 163.787 577.966 166.32C576.159 168.853 578.689 169.576 576.88 172.833C575.073 176.09 575.073 173.918 573.627 174.641C572.181 175.363 570.011 177.898 566.032 175.726C562.054 173.555 559.164 172.47 554.462 172.11C549.762 171.746 553.015 171.025 549.762 173.555C546.507 176.09 545.784 178.983 546.147 182.238C546.509 185.493 546.87 189.836 545.784 192.008C544.7 194.178 544.7 196.349 545.421 199.606C546.145 202.861 548.316 204.311 548.316 204.311C548.316 204.311 553.378 205.032 554.462 205.396C555.547 205.757 557.717 204.672 560.608 206.479C563.502 208.289 566.395 209.014 568.202 206.842C570.01 204.672 577.242 202.139 579.414 199.969C581.582 197.797 583.028 197.076 581.944 194.904C580.86 192.733 584.114 187.306 585.922 186.221C587.729 185.136 591.706 184.049 591.706 184.049L596.045 177.538C596.045 177.538 599.662 173.556 601.469 173.92C603.276 174.281 613.4 177.901 612.679 173.198C611.956 168.493 613.402 167.046 614.486 168.855C615.57 170.663 618.464 169.94 618.464 169.94C618.464 169.94 619.91 169.218 620.994 170.303C622.078 171.386 623.524 176.093 625.694 177.176C627.865 178.263 629.672 179.348 631.119 180.069C632.565 180.794 634.013 180.069 636.906 182.603C639.798 185.136 642.691 186.584 643.051 187.668C643.415 188.753 645.946 191.286 645.946 191.286C645.946 191.286 648.476 192.009 647.753 193.457C647.03 194.904 643.415 199.247 641.606 199.969C639.798 200.692 635.099 199.244 636.906 200.692C638.712 202.139 641.245 203.949 642.329 202.862C643.415 201.777 650.283 194.541 650.283 194.541C650.283 194.541 649.922 194.902 650.283 192.731C650.646 190.563 650.283 188.029 652.092 189.114C653.899 190.201 654.985 191.648 655.708 190.201C656.431 188.753 657.154 189.478 655.345 188.393C653.536 187.306 649.199 181.156 647.028 180.794C644.858 180.431 639.433 176.813 639.433 176.813C639.433 176.813 638.35 175.728 635.818 172.835C633.287 169.94 632.565 170.663 631.839 168.13C631.118 165.598 628.946 162.342 632.925 163.065C636.904 163.788 639.433 166.32 643.049 168.491C646.665 170.663 645.944 171.385 649.197 173.556C652.45 175.728 652.815 177.899 655.343 177.538C657.874 177.176 660.768 178.984 660.768 182.241C660.768 185.498 661.49 189.114 662.213 189.839C662.937 190.564 665.104 192.011 665.829 193.457C666.552 194.904 667.999 198.522 669.082 199.969C670.168 201.416 671.252 202.502 672.337 204.312C673.421 206.12 673.782 203.949 674.867 204.674C675.953 205.397 677.398 205.034 677.398 203.587C677.398 202.141 677.758 199.607 677.758 199.607C677.758 199.607 682.824 198.161 681.378 197.436C679.93 196.712 675.59 192.371 675.953 190.924C676.314 189.478 675.953 186.584 677.758 186.946C679.567 187.306 681.376 190.563 685.354 187.668C689.331 184.773 694.032 183.326 692.584 187.668C691.14 192.009 692.949 192.731 692.584 197.436C692.225 202.141 694.033 200.692 696.565 203.226C699.095 205.759 700.903 206.122 702.71 206.844C704.519 207.569 707.41 207.207 710.305 207.569C713.199 207.93 715.006 206.482 717.538 207.207C720.066 207.93 725.853 206.844 726.939 207.569C728.025 208.292 732.364 206.122 732.724 208.654C733.085 211.187 734.532 208.292 733.448 214.08C732.364 219.868 730.916 223.848 730.916 223.848C726.939 231.447 725.493 233.256 723.684 233.618C721.878 233.98 720.792 235.065 717.539 234.703C714.285 234.34 710.307 234.703 705.606 233.618C700.906 232.532 692.226 234.703 688.612 232.532C684.995 230.362 679.933 232.17 677.762 229.638C675.593 227.105 671.978 227.467 670.531 226.02C669.085 224.573 668.362 220.595 668.362 226.383C668.362 232.173 665.107 232.533 664.385 235.428C663.66 238.321 665.467 236.875 661.49 236.513C657.512 236.15 656.428 238.321 650.643 233.981C644.856 229.64 641.965 229.64 639.073 227.83C636.178 226.02 633.287 231.085 630.395 225.298C627.502 219.508 623.524 224.212 623.163 219.508C622.801 214.804 623.163 215.169 623.524 212.274C623.889 209.379 627.863 206.847 626.056 205.762C624.247 204.677 625.693 202.867 623.163 203.954C620.631 205.039 617.016 205.4 614.123 206.485C611.23 207.572 620.631 206.485 606.529 207.572C592.428 208.657 588.449 210.104 588.449 210.104C588.449 210.104 587.364 209.38 585.555 210.827C583.748 212.274 581.216 214.445 578.686 213.36C576.156 212.274 574.708 212.635 572.54 212.999C570.369 213.36 568.925 211.19 566.393 212.999C563.862 214.805 560.97 215.53 559.884 214.805C558.759 214.066 556.944 211.173 556.944 211.173L556.988 211.179Z" fill="white" fill-opacity="0.07"/>
<path d="M798.889 449.234C797.804 453.215 793.827 459.002 793.827 459.002L786.593 462.62C786.593 462.62 784.066 464.792 782.617 465.153C781.171 465.513 777.555 467.325 777.555 467.325C777.555 467.325 774.302 466.6 775.384 469.855C776.469 473.111 776.832 477.093 776.469 478.176C776.109 479.263 776.109 481.434 776.109 484.329C776.109 487.223 775.025 490.839 773.216 491.563C771.408 492.288 769.6 493.011 769.961 495.544C770.324 498.077 770.324 505.674 770.324 505.674L775.026 512.91C775.026 512.91 776.472 511.825 779.365 511.825C782.255 511.825 785.15 509.295 785.15 509.295C785.15 509.295 788.406 510.016 788.042 506.039C787.68 502.057 789.491 497.356 789.126 496.269C788.766 495.184 792.382 490.479 792.382 489.396C792.382 488.309 795.999 483.248 795.999 481.436C795.999 479.628 798.529 476.733 798.89 474.565C799.252 472.391 799.613 467.328 800.336 465.881C801.061 464.435 801.422 462.986 801.422 461.54C801.422 460.093 801.422 457.198 801.422 457.198L798.852 449.226L798.889 449.234Z" fill="white" fill-opacity="0.07"/>
<path d="M1082.01 498.082C1080.93 499.527 1080.2 515.087 1079.48 516.895C1078.76 518.703 1077.31 528.111 1078.04 530.28C1078.76 532.453 1079.84 540.411 1079.12 542.944C1078.4 545.476 1079.48 553.436 1077.67 553.074C1075.87 552.711 1075.15 553.438 1075.15 554.521C1075.15 555.607 1077.67 557.776 1077.67 557.776C1077.67 557.776 1082.02 557.777 1083.82 557.414C1085.63 557.053 1089.25 555.243 1092.14 555.243C1095.03 555.243 1096.84 553.071 1099.37 553.071C1101.9 553.071 1107.33 551.264 1108.77 551.986C1110.22 552.708 1112.39 547.644 1114.92 548.731C1117.45 549.816 1122.88 546.198 1125.41 546.198C1127.93 546.198 1129.02 542.216 1131.92 542.943C1134.81 543.666 1140.23 541.496 1142.76 542.578C1145.29 543.666 1149.27 538.961 1151.08 542.578C1152.89 546.198 1158.31 547.644 1158.31 549.453C1158.31 551.261 1157.95 555.243 1157.95 555.243L1162.29 554.879C1162.29 554.879 1169.15 550.538 1170.24 550.538C1171.33 550.538 1173.86 546.921 1173.86 548.731C1173.86 550.538 1171.69 554.521 1170.97 556.328C1170.24 558.137 1171.69 560.309 1171.69 560.309C1171.69 560.309 1175.31 562.117 1173.86 565.372C1172.41 568.629 1174.22 567.907 1173.86 570.437C1173.5 572.971 1173.86 571.884 1175.3 573.331C1176.75 574.779 1179.28 577.315 1181.45 576.95C1183.62 576.587 1184.34 574.419 1186.15 575.504C1187.96 576.589 1191.57 575.865 1192.66 577.314C1193.75 578.759 1185.79 582.377 1199.53 576.229C1213.27 570.076 1214.71 568.629 1216.52 566.457C1218.34 564.287 1220.5 562.117 1221.95 560.669C1223.39 559.223 1222.31 559.584 1226.65 556.328C1230.99 553.073 1230.99 554.519 1234.97 548.368C1238.94 542.22 1241.83 540.048 1242.56 538.961C1243.28 537.875 1244.73 537.515 1245.09 533.17C1245.45 528.83 1248.34 524.85 1248.34 523.403C1248.34 521.958 1249.43 519.788 1249.07 517.254C1248.71 514.72 1250.51 511.105 1248.34 507.487C1246.17 503.867 1249.43 502.424 1246.17 500.972C1242.92 499.526 1240.75 500.251 1240.03 497.717C1239.3 495.184 1236.41 495.546 1235.32 488.672C1234.24 481.799 1229.9 481.073 1229.9 481.073C1229.9 481.073 1225.56 479.264 1226.65 478.543C1227.73 477.818 1228.09 472.751 1227.73 471.305C1227.37 469.858 1227.37 466.601 1226.29 464.433C1225.2 462.26 1224.48 459.368 1223.4 456.833C1222.31 454.302 1220.5 453.577 1219.78 450.683C1219.05 447.79 1217.97 446.702 1217.61 445.98C1217.25 445.257 1216.52 441.64 1215.8 445.617C1215.08 449.597 1213.63 457.193 1213.63 457.193C1213.63 457.193 1210.74 463.346 1209.65 465.155C1208.57 466.961 1207.48 471.666 1205.68 471.303C1203.87 470.941 1202.78 473.115 1201.34 472.75C1199.89 472.386 1197.72 473.113 1196.64 472.028C1195.55 470.941 1192.66 468.048 1191.21 467.685C1189.77 467.325 1188.68 464.431 1187.6 464.431C1186.51 464.431 1184.7 461.897 1185.07 460.45C1185.43 459.003 1185.79 455.748 1186.15 454.3C1186.51 452.853 1188.68 449.595 1188.68 449.595C1188.68 449.595 1188.68 447.425 1186.87 447.425C1185.07 447.425 1184.7 447.425 1180.72 447.062C1176.75 446.699 1175.67 446.339 1174.22 446.339C1172.77 446.339 1175.66 445.615 1171.68 446.7C1167.71 447.788 1165.9 450.682 1163.37 453.215C1160.84 455.747 1163.01 455.022 1160.84 455.747C1158.67 456.472 1159.03 453.937 1157.58 457.918C1156.14 461.898 1158.31 462.982 1157.22 463.706C1156.14 464.431 1148.55 461.175 1148.55 461.175C1148.55 461.175 1150.35 460.812 1148.91 459.003C1147.46 457.193 1146.01 454.663 1143.85 455.748C1141.67 456.833 1139.86 457.558 1138.42 459.366C1136.97 461.175 1136.97 462.621 1135.89 464.068C1134.81 465.515 1131.91 465.515 1131.55 466.963C1131.19 468.411 1131.19 472.028 1130.11 472.39C1129.02 472.753 1128.66 470.946 1127.58 470.583C1126.49 470.221 1126.85 467.326 1126.13 469.136C1125.41 470.945 1124.68 470.581 1123.6 473.476C1122.51 476.371 1122.15 478.904 1121.07 479.266C1119.98 479.629 1121.07 479.989 1117.81 481.799C1114.56 483.608 1113.84 483.608 1109.14 485.779C1104.44 487.951 1105.52 487.951 1102.27 488.311C1099.01 488.674 1098.29 489.759 1096.12 490.121C1093.95 490.482 1092.51 490.842 1090.33 493.014C1088.16 495.186 1086.36 495.907 1084.91 496.271C1083.47 496.634 1082.08 498.055 1082.08 498.055L1082.01 498.082Z" fill="white" fill-opacity="0.07"/>
<path d="M1103.35 355.169C1101.9 357.342 1097.2 363.852 1095.39 364.215C1093.58 364.575 1091.78 366.387 1090.33 366.024C1088.88 365.66 1085.63 366.024 1084.55 370.727C1083.46 375.43 1081.65 377.963 1080.56 377.6C1079.48 377.238 1082.37 384.473 1076.23 381.582C1070.08 378.687 1072.25 384.115 1071.53 385.563C1070.8 387.008 1072.61 390.99 1072.97 392.436C1073.34 393.883 1074.42 396.416 1075.87 398.585C1077.31 400.756 1078.4 403.288 1080.93 402.568C1083.46 401.841 1091.41 402.568 1091.41 402.568C1091.41 402.568 1094.31 403.653 1096.11 403.653C1097.92 403.653 1098.28 402.929 1099.37 402.929C1100.45 402.929 1102.62 399.31 1102.26 398.95C1101.9 398.585 1100.82 397.501 1102.98 395.33C1105.15 393.158 1107.68 392.436 1108.05 389.903C1108.41 387.371 1107.32 387.371 1108.41 385.922C1109.49 384.475 1112.02 384.84 1111.3 383.39C1110.58 381.943 1112.02 382.305 1110.58 379.408C1109.13 376.515 1107.32 375.429 1108.77 371.81C1110.21 368.194 1111.66 367.469 1111.3 365.299C1110.94 363.126 1113.11 362.404 1110.58 359.871C1108.05 357.341 1106.96 356.616 1105.15 355.889L1103.37 355.15L1103.35 355.169Z" fill="white" fill-opacity="0.07"/>
<path d="M1174.22 391.351C1175.67 390.99 1180.73 387.372 1181.1 393.885C1181.46 400.396 1181.82 398.586 1183.99 402.205C1186.16 405.823 1187.6 406.911 1190.13 405.101C1192.66 403.29 1195.56 403.289 1196.28 400.036C1197 396.78 1197 396.78 1199.17 396.78C1201.35 396.78 1202.07 396.418 1203.15 397.868C1204.24 399.311 1204.96 397.865 1209.66 400.398C1214.36 402.931 1218.34 402.205 1221.23 404.739C1224.13 407.271 1225.57 406.913 1229.55 408.358C1233.53 409.804 1231.72 407.634 1235.33 411.614C1238.95 415.592 1237.51 416.677 1239.31 418.487C1241.12 420.296 1242.57 417.039 1241.84 421.381C1241.12 425.722 1236.06 421.381 1243.65 427.529C1251.24 433.682 1252.33 434.769 1254.86 436.575C1257.39 438.385 1259.2 440.557 1257.03 440.557C1254.86 440.557 1247.99 440.557 1247.27 439.47C1246.54 438.385 1243.29 437.66 1241.12 435.129C1238.95 432.599 1234.25 430.787 1233.17 428.617C1232.08 426.444 1230.64 425.722 1228.83 425.722C1227.02 425.722 1225.21 427.892 1222.68 430.425C1220.15 432.957 1221.24 428.98 1217.98 430.064C1214.72 431.15 1211.11 429.701 1209.3 428.254C1207.49 426.807 1207.86 424.637 1204.97 425.722C1202.07 426.807 1200.27 426.084 1201.35 423.914C1202.43 421.741 1201.71 418.847 1201.71 418.847C1201.71 418.847 1202.8 415.229 1200.27 414.507C1197.74 413.786 1197.74 411.253 1195.2 410.526C1192.67 409.804 1188.7 407.994 1188.7 407.994C1188.7 407.994 1188.33 407.994 1187.25 407.633C1186.16 407.269 1186.16 407.269 1183.27 406.548C1180.38 405.823 1178.21 406.544 1176.76 404.738C1175.31 402.929 1176.04 400.396 1176.04 400.396C1176.04 400.396 1181.82 401.12 1176.04 396.778L1170.25 392.438C1170.25 392.438 1170.97 392.075 1170.61 391.351C1170.24 390.612 1174.23 391.335 1174.23 391.335L1174.22 391.351Z" fill="white" fill-opacity="0.07"/>
<path d="M1011.5 361.309C1011.5 361.309 1013.31 363.121 1016.2 362.758C1019.1 362.394 1021.26 368.546 1023.08 370.716C1024.88 372.887 1025.97 373.972 1029.94 376.506C1033.92 379.037 1033.56 374.334 1038.98 381.932C1044.41 389.529 1041.88 384.827 1044.41 389.529C1046.94 394.237 1048.39 396.767 1049.83 397.855C1051.28 398.94 1052.36 401.832 1052.73 402.918C1053.09 404.003 1055.62 407.258 1055.62 408.345C1055.62 409.43 1056.34 412.325 1054.17 414.856C1052 417.39 1050.19 417.751 1050.19 417.751C1050.19 417.751 1045.85 415.58 1044.41 413.41C1042.96 411.24 1041.15 409.43 1038.62 405.09C1036.09 400.747 1033.2 396.043 1031.75 393.873C1030.31 391.7 1028.14 389.529 1027.05 387.36C1025.97 385.187 1023.07 378.677 1021.63 377.952C1020.18 377.227 1019.82 375.059 1017.29 372.526C1014.76 369.992 1015.12 367.822 1014.03 366.376C1012.95 364.929 1010.42 361.669 1010.42 361.669L1011.48 361.316L1011.5 361.309Z" fill="white" fill-opacity="0.07"/>
<path d="M308.226 643.519C305.695 642.072 300.271 639.539 298.464 638.092C296.657 636.646 291.233 628.683 291.233 628.683L287.254 621.085C287.254 621.085 282.555 615.296 283.639 613.126C284.724 610.955 286.894 609.508 286.894 608.423C286.894 607.338 289.063 604.442 287.254 603.358C285.447 602.272 285.447 601.912 284.361 598.655C283.276 595.4 283.276 592.502 281.831 591.78C280.383 591.059 279.299 586.354 277.853 585.992C276.407 585.629 274.96 583.097 274.96 583.097L272.789 553.791C272.789 553.791 272.065 540.406 271.344 537.51C270.619 534.617 272.428 528.467 270.619 523.039C268.812 517.612 270.982 511.1 269.896 508.929C268.812 506.757 270.619 500.609 269.535 494.821C268.45 489.033 273.874 481.796 269.535 479.626C265.196 477.453 268.45 474.198 264.834 474.198C261.22 474.198 258.688 472.388 255.433 469.858C252.178 467.325 246.03 462.62 244.223 460.81C242.416 459.003 236.629 454.298 234.822 452.852C233.015 451.405 231.206 445.254 229.76 443.444C228.314 441.637 227.591 436.21 225.421 432.954C223.251 429.699 220.359 424.272 219.635 423.186C218.912 422.101 210.957 412.694 210.957 412.694L211.679 406.906C211.679 406.906 217.103 403.65 216.38 402.565C215.657 401.478 216.743 400.391 214.21 398.223C211.678 396.05 212.039 392.07 214.21 390.263C216.38 388.452 219.633 382.663 219.633 382.663L225.056 373.62C225.056 373.62 229.397 368.914 229.397 365.659C229.397 362.404 235.543 360.234 231.927 357.339C228.311 354.442 230.12 351.911 229.034 349.739C227.948 347.569 228.673 346.123 231.927 343.951C235.182 341.779 240.967 333.821 240.967 333.821C240.967 333.821 245.306 332.735 246.39 332.735C247.475 332.735 249.284 321.155 252.538 328.753C255.793 336.351 256.877 332.371 255.793 337.798C254.707 343.224 257.239 342.141 258.685 340.694C260.13 339.245 257.96 341.779 260.853 335.265C263.745 328.753 262.662 326.583 264.469 328.393C266.277 330.203 267 330.565 270.254 331.65C273.507 332.735 274.593 332.371 275.676 334.543C276.761 336.715 276.401 333.82 282.547 334.906C288.693 335.993 297.371 332.735 296.287 336.351C295.203 339.969 293.032 335.99 298.094 339.969C303.156 343.951 303.881 344.673 306.773 345.398C309.664 346.121 312.196 345.759 316.537 350.101C320.876 354.441 321.96 354.804 323.044 356.972C324.129 359.146 325.936 357.697 327.745 359.867C329.552 362.041 332.084 362.041 334.614 362.041C337.144 362.041 334.614 359.867 338.592 362.764C342.571 365.657 345.463 366.017 347.27 371.807C349.077 377.6 352.693 377.235 349.8 383.025C346.908 388.815 341.124 391.347 343.654 390.985C346.184 390.622 350.886 388.45 352.332 388.813C353.778 389.173 354.501 387.728 356.671 388.813C358.841 389.898 359.203 387.367 358.841 389.898C358.478 392.432 358.478 389.898 358.478 392.432C358.478 394.963 357.755 389.898 362.094 390.985C366.433 392.07 363.902 388.812 368.964 393.517C374.027 398.221 374.027 396.775 375.833 399.306C377.642 401.836 379.449 397.861 380.535 398.945C381.621 400.028 384.874 399.305 388.129 400.03C391.383 400.751 389.213 397.86 394.277 401.115C399.337 404.37 404.401 403.285 405.485 406.18C406.569 409.073 409.464 407.988 410.908 409.798C412.353 411.608 413.077 409.073 414.525 411.608C415.97 414.138 420.311 413.414 419.587 415.946C418.862 418.481 420.669 417.033 419.946 420.649C419.225 424.271 416.692 430.059 414.525 431.504C412.354 432.952 412.356 434.761 410.908 436.569C409.463 438.38 409.824 434.761 408.015 439.826C406.208 444.892 406.569 445.615 405.124 450.317C403.678 455.019 404.762 450.317 403.678 455.02C402.593 459.723 403.316 462.618 402.232 468.046C401.148 473.471 401.509 473.473 400.786 477.453C400.063 481.433 402.593 475.646 399.339 483.964C396.086 492.288 395.724 491.923 394.64 495.543C393.554 499.162 395.001 496.266 391.024 498.437C387.046 500.611 389.216 499.884 384.514 501.332C379.815 502.779 374.029 504.229 372.221 504.589C370.414 504.949 363.182 507.121 365.352 511.461C367.523 515.804 367.523 516.527 365.352 521.955C363.182 527.38 359.929 529.192 359.929 531.722C359.929 534.253 358.481 536.785 358.122 538.595C357.759 540.405 361.375 536.785 357.037 542.213C352.698 547.64 352.337 546.193 350.889 549.45C349.443 552.705 350.889 550.171 349.443 552.705C347.998 555.236 344.381 556.321 344.381 556.321C344.381 556.321 344.741 558.131 343.296 557.408C341.848 556.686 342.211 557.769 336.786 556.321C331.363 554.875 330.64 551.26 329.917 553.79C329.194 556.321 330.278 557.771 333.533 560.303C336.786 562.836 342.211 563.558 340.764 566.093C339.318 568.626 339.318 568.626 338.234 570.072C337.148 571.521 339.679 570.434 337.148 571.521C334.617 572.606 333.17 577.311 332.086 577.311C331.001 577.311 330.277 579.119 328.831 578.396C327.385 577.671 323.771 575.139 323.046 576.586C322.323 578.031 320.876 574.776 321.237 579.841C321.6 584.905 322.323 587.8 320.514 588.887C318.707 589.972 314.366 588.887 314.366 588.887L313.643 587.077L311.113 587.8C311.113 587.8 310.029 592.142 311.836 592.865C313.643 593.589 313.282 594.31 315.089 596.482C316.898 598.654 315.814 602.633 315.814 602.633C315.814 602.633 315.814 603.72 314.006 605.528C312.199 607.337 311.475 608.785 311.113 609.87C310.75 610.955 308.581 615.66 311.836 615.296C315.089 614.933 317.623 613.125 317.623 618.915C317.623 624.703 319.068 623.258 317.261 627.236C315.452 631.216 314.006 631.578 313.645 635.194C313.285 638.813 314.008 639.174 314.731 641.346C315.454 643.517 317.263 642.431 315.454 643.517C313.655 644.546 308.241 643.469 308.241 643.469L308.226 643.519Z" fill="white" fill-opacity="0.07"/>
<path d="M214.939 349.013L212.409 345.396C212.409 345.396 211.324 343.223 209.515 342.863C207.707 342.503 203.729 337.798 203.729 337.798C203.729 337.798 201.922 336.351 201.922 333.82C201.922 331.286 200.474 327.308 201.559 322.967C202.645 318.627 203.006 313.198 202.645 311.75C202.282 310.303 204.452 309.942 201.922 308.494C199.39 307.047 194.328 306.685 191.073 306.685C187.82 306.685 183.841 307.772 183.118 308.132C182.395 308.494 187.096 297.279 187.819 295.47C188.541 293.662 191.796 285.701 191.796 284.617C191.796 283.531 192.88 283.169 190.712 281.724C188.543 280.276 184.927 279.552 182.757 280.637C180.588 281.724 180.949 279.191 179.142 283.531C177.335 287.874 175.526 292.577 173.356 293.301C171.187 294.025 166.848 296.195 166.848 296.195C166.848 296.195 161.424 295.834 159.615 295.472C157.808 295.11 150.214 291.131 148.769 288.599C147.323 286.066 146.6 280.637 146.6 278.107C146.6 275.574 150.576 267.978 150.214 266.168C149.853 264.359 154.194 257.123 153.831 256.036C153.467 254.951 154.553 251.333 155.638 249.886C156.722 248.44 162.147 246.63 163.593 245.183C165.039 243.735 167.571 241.928 170.101 241.203C172.631 240.478 174.803 239.757 176.61 239.757C178.417 239.757 183.118 235.777 183.841 239.757C184.565 243.735 187.82 242.288 189.627 242.65C191.435 243.013 191.798 244.822 194.689 240.118C197.583 235.413 200.474 233.967 200.474 235.052C200.474 236.138 205.175 234.692 205.898 235.777C206.621 236.862 208.068 235.052 210.598 237.223C213.13 239.395 216.745 239.757 216.383 240.84C216.022 241.925 217.829 241.925 217.829 243.012C217.829 244.097 219.276 240.478 219.276 246.99C219.276 253.503 221.084 257.483 221.084 257.483C221.084 257.483 223.614 262.911 224.698 261.825C225.782 260.74 227.951 257.846 227.951 257.846C227.951 257.846 231.567 255.675 229.037 248.077C226.505 240.48 228.314 238.308 227.591 235.775C226.867 233.242 226.867 231.794 231.206 228.539C235.545 225.284 246.03 218.047 248.562 216.601C251.092 215.154 256.877 211.174 256.877 211.174C256.877 211.174 259.046 210.089 259.409 207.194C259.77 204.301 266.64 199.234 267.003 197.788C267.366 196.341 272.066 192.724 272.066 192.724C272.066 192.724 277.127 189.828 276.765 188.021C276.404 186.213 283.275 182.958 284.359 182.958C285.443 182.958 291.23 184.765 291.23 181.508C291.23 178.253 291.23 177.528 294.846 174.635C298.461 171.741 303.161 167.398 304.97 167.398C306.777 167.398 312.925 164.145 315.455 163.42C317.987 162.695 325.942 159.077 318.71 163.42C311.478 167.76 316.178 165.228 314.732 168.847C313.288 172.463 312.201 177.168 319.072 171.74C325.942 166.313 325.579 165.227 328.111 164.867C330.643 164.505 328.834 165.952 334.257 164.142C339.682 162.333 340.044 161.61 340.044 161.61C340.044 161.61 342.576 159.438 341.128 158.355C339.682 157.269 342.576 155.822 337.151 157.992C331.727 160.163 332.089 160.525 328.473 159.438C324.858 158.354 319.433 158.714 323.411 155.095C327.388 151.479 332.45 150.392 329.195 148.945C325.942 147.499 317.626 149.309 316.541 149.669C315.455 150.03 312.925 149.307 310.755 149.669C308.586 150.03 309.309 146.777 310.755 146.052C312.202 145.327 316.903 143.156 322.688 141.709C328.473 140.262 342.576 139.901 345.829 139.901C349.082 139.901 353.421 140.626 355.953 138.816C358.483 137.007 363.546 134.114 364.269 132.664C364.994 131.218 367.886 129.048 367.886 129.048C367.886 129.048 371.139 125.791 369.331 124.344C367.524 122.898 365.715 119.641 364.269 120.364C362.824 121.088 363.91 125.431 361.016 120.726C358.123 116.024 358.485 115.3 357.039 114.215C355.593 113.13 354.145 113.851 355.231 108.788C356.316 103.723 355.954 101.551 355.954 101.551C355.954 101.551 357.039 97.2115 355.954 96.8499C354.868 96.4866 354.147 95.4032 352.34 96.4866C350.531 97.5716 340.407 102.638 338.238 103.723C336.068 104.808 333.175 99.3815 334.259 96.8499C335.345 94.315 334.62 95.7633 333.175 92.1466C331.729 88.5284 325.944 87.8035 323.774 87.8035C321.603 87.8035 316.543 84.5469 315.095 86.7185C313.65 88.8885 306.058 95.7617 304.608 96.4866C303.163 97.2115 300.994 90.3367 299.91 101.551C298.824 112.769 303.887 116.024 298.102 116.748C292.317 117.471 287.254 120.726 287.254 120.726C287.254 120.726 282.555 121.089 282.555 123.983C282.555 126.879 280.748 133.751 278.576 134.474C276.407 135.199 270.982 134.114 269.175 131.942C267.367 129.771 269.536 121.813 269.536 121.813L272.791 118.556C272.791 118.556 249.65 114.939 250.01 113.491C250.373 112.045 243.14 109.513 242.417 107.341C241.695 105.17 241.331 100.467 242.056 98.6582C242.779 96.8499 252.541 88.1667 257.603 86.3584C262.665 84.5485 271.343 80.5702 273.875 79.8453C276.407 79.1219 280.744 79.4836 282.192 77.6753C283.638 75.8654 283.999 72.6104 283.999 72.6104C283.999 72.6104 283.276 67.5439 284.722 68.2672C286.168 68.9922 288.7 70.0772 289.061 71.1621C289.424 72.2471 289.424 74.7804 291.954 71.8839C294.486 68.9906 297.741 67.904 300.633 66.4589C303.526 65.0107 307.863 65.3739 310.397 63.9273C312.927 62.4806 317.266 61.0324 317.627 57.4141C317.989 53.7975 316.543 54.8825 314.734 54.5192C312.927 54.1591 315.457 54.8825 309.311 57.7758C303.163 60.6691 304.972 58.4991 300.633 60.6691C296.293 62.8407 295.93 63.2023 295.571 61.394C295.207 59.5841 296.293 56.6908 296.293 56.6908C296.293 56.6908 296.656 56.3275 294.125 55.6058C291.593 54.8825 291.593 55.9675 291.231 52.7125C290.87 49.4559 293.039 44.7527 289.424 46.1993C285.808 47.646 282.555 45.1144 280.023 52.3492C277.491 59.5841 268.813 67.1838 266.643 65.3739C264.474 63.5656 264.113 63.2023 262.304 63.2023C260.495 63.2023 257.965 61.0324 254.71 60.6707C251.455 60.309 241.691 60.309 239.163 60.6707C236.631 61.034 233.739 59.224 231.567 61.3956C229.399 63.5656 226.146 66.4605 226.146 67.5471C226.146 68.6321 222.891 63.5656 221.806 63.9289C220.722 64.2905 217.827 62.4822 214.576 62.4822C211.321 62.4822 209.151 60.6723 208.068 60.6723C206.984 60.6723 209.151 57.7774 208.068 57.4157C206.984 57.0557 183.478 56.3307 183.478 56.3307C183.478 56.3307 175.886 53.4374 172.994 53.7991C170.101 54.1608 162.147 54.5208 155.998 55.6074C149.85 56.6924 140.81 60.3106 137.919 60.6723C135.025 61.0356 128.517 61.0356 127.433 59.2256C126.347 57.4173 127.795 57.779 126.347 57.4173C124.901 57.0573 125.987 56.3323 122.733 53.8007C119.478 51.2675 124.18 49.0975 117.671 49.0975C111.163 49.0975 107.185 48.7342 101.4 49.0975C95.6139 49.4591 83.6827 52.3524 82.2368 51.9908C80.791 51.6291 69.2197 53.8007 67.4108 52.7157C65.6035 51.6291 56.5623 56.694 54.7566 56.3323C52.9494 55.9707 46.0785 56.6956 44.2713 57.7806C42.4624 58.8672 33.7842 61.0356 36.6775 62.8455C39.5691 64.6538 39.2077 66.4621 39.5691 67.5487C39.9322 68.6337 36.6775 71.1654 36.6775 71.1654C36.6775 71.1654 35.953 71.1654 31.977 69.7187C27.9994 68.2704 23.6603 67.5487 21.8514 68.6337C20.0442 69.7187 16.7895 71.8919 17.5124 73.3385C18.2369 74.7852 23.2972 78.0418 24.0218 76.9552C24.7447 75.8702 26.5536 73.7002 28.7223 74.0619C30.8926 74.4251 34.1473 72.6152 31.2541 76.2335C28.3608 79.8501 25.829 81.66 24.0218 82.0233C22.2145 82.3833 17.8754 82.745 13.8978 83.1083C9.91861 83.4715 10.2801 81.6616 6.66552 85.2799C3.05097 88.8965 1.60355 86.7265 0.88064 90.7064C0.157731 94.6847 -0.565179 94.6847 0.88064 95.7713C2.32646 96.8563 -2.0126 97.218 1.24209 98.303C4.49519 99.3896 8.47279 100.475 8.11134 101.558C7.74828 102.645 11.7275 100.113 9.55716 103.005C7.38682 105.901 5.94261 108.431 10.2801 105.538C14.6191 102.645 17.1493 104.813 20.7655 103.005C24.3816 101.196 27.9978 100.835 30.1665 99.3879C32.3368 97.9397 33.4212 95.7713 36.6759 94.6831C39.9306 93.5981 37.7603 95.0464 38.1217 96.8547C38.4832 98.663 38.1217 99.0247 40.292 97.5764C42.4608 96.1298 42.4608 97.2164 45.354 95.4064C48.2456 93.5981 51.5003 91.7882 53.6707 92.8732C55.8394 93.9598 56.5623 93.9598 58.0097 93.9598C59.4556 93.9598 56.2025 93.5965 59.4556 93.9598C62.7103 94.3198 58.0097 92.8732 68.8566 95.4064C79.705 97.9381 82.5983 96.1298 83.3196 100.11C84.0441 104.09 85.4899 99.7464 87.2972 102.28C89.1045 104.811 90.1904 102.643 91.2748 106.983C92.3592 111.326 91.2748 123.264 90.5519 124.711C89.829 126.157 89.4675 126.157 89.829 129.414C90.1904 132.669 94.5295 148.229 93.0837 149.312C91.6379 150.395 88.3832 150.759 88.3832 150.759L86.5759 157.27C86.5759 157.27 83.6843 162.697 81.1525 165.592C78.6207 168.485 75.3676 172.105 73.5587 174.635C71.7514 177.168 70.304 181.511 67.7738 184.043C65.2437 186.574 63.0733 185.49 63.7962 190.916C64.5191 196.343 63.7962 202.131 64.5191 206.112C65.2437 210.092 67.0509 215.519 68.4967 217.69C69.9426 219.86 71.0285 219.86 73.5587 221.669C76.0905 223.477 79.3452 225.65 78.9821 227.458C78.6207 229.267 79.3436 240.485 79.3436 240.485C79.3436 240.485 81.5139 244.101 81.8738 248.081C82.2368 252.063 84.767 256.041 84.767 256.041L86.9373 260.746C86.9373 260.746 88.0217 261.109 89.4691 264.001C90.915 266.896 90.915 266.896 91.2764 268.341C91.6395 269.791 91.6395 269.428 91.6395 269.791C91.6395 270.151 91.2764 263.639 90.5535 261.829C89.8306 260.021 89.8306 257.851 89.1077 255.679C88.3848 253.508 89.4691 250.975 87.3004 247.72C85.1317 244.465 85.1317 244.101 84.0473 240.845C82.963 237.59 81.5155 233.972 82.963 233.247C84.4088 232.525 85.4931 227.822 88.3864 233.247C91.278 238.673 91.6411 237.228 92.0025 241.57C92.3624 245.911 93.4483 247.36 94.5327 249.166C95.6171 250.975 98.1473 257.128 99.5947 259.658C101.041 262.191 99.5947 258.211 102.848 263.276C106.102 268.341 106.466 269.426 108.273 273.406C110.08 277.386 111.166 277.386 112.25 280.279C113.335 283.176 112.612 282.451 111.887 285.706C111.164 288.961 112.61 292.58 112.61 292.58C112.61 292.58 117.672 294.389 118.034 295.474C118.395 296.559 123.457 298.367 124.182 299.815C124.905 301.264 129.605 303.07 129.605 303.07C129.605 303.07 133.583 305.603 135.027 306.327C136.474 307.05 140.815 307.775 140.815 307.775C140.815 307.775 143.707 308.5 144.791 308.86C145.875 309.222 149.13 309.222 149.13 309.222C149.13 309.222 152.023 307.052 153.108 307.775C154.192 308.497 156.724 306.327 157.808 308.135C158.893 309.945 161.063 309.945 162.147 311.393C163.232 312.84 164.316 312.84 166.125 314.648C167.934 316.457 169.741 316.095 171.548 317.542C173.356 318.988 174.801 318.988 176.972 318.988C179.14 318.988 179.14 318.988 180.588 319.352C182.032 319.713 182.757 318.265 184.202 320.076C185.648 321.885 186.733 322.97 187.817 324.778C188.901 326.586 191.433 326.586 191.795 329.481C192.156 332.375 192.879 332.016 192.879 334.546C192.879 337.079 194.325 338.164 195.411 338.889C196.493 339.611 200.471 343.228 200.471 343.228L205.894 344.314L210.234 347.571L214.812 349.018L214.939 349.013Z" fill="white" fill-opacity="0.07"/>
<path d="M330.829 12.907L352.524 10.1937C352.524 10.1937 360.116 10.1937 363.914 7.48046C367.71 4.76718 363.914 4.76718 375.304 2.5972C386.694 0.425616 383.441 -0.659374 389.407 0.425616C395.372 1.51221 396.999 1.51221 403.509 2.5972C410.017 3.68219 411.644 2.05551 417.609 3.68219C423.575 5.31048 426.287 4.76718 431.169 4.76718H446.355C453.948 4.76718 460.999 0.425616 463.711 3.13889C466.423 5.85217 468.05 4.76718 477.271 5.85217C486.491 6.93716 490.288 4.76557 494.084 5.85217C497.882 6.93716 504.391 5.31048 511.984 5.85217C519.576 6.39386 523.373 5.31048 526.085 5.31048C528.797 5.31048 531.507 1.51061 535.305 4.76718C539.102 8.02376 543.983 3.68219 544.524 8.02376C545.067 12.3653 552.118 9.10875 545.067 12.3653C538.016 15.6219 539.101 15.0786 534.219 19.4202C529.338 23.7617 537.473 27.56 527.168 31.3599C516.862 35.1581 515.235 29.1883 512.523 35.7014C509.812 42.213 512.523 43.8413 511.982 47.0979C511.439 50.3528 510.355 50.8961 507.1 53.6094C503.847 56.3227 503.847 53.6094 496.253 55.2377C488.659 56.866 483.236 58.4943 479.983 58.4943C476.728 58.4943 469.677 61.2075 467.507 62.2925C465.337 63.3791 471.305 65.0058 459.913 68.2624C448.523 71.519 445.81 70.9773 442.557 75.3172C439.302 79.6604 440.387 80.2037 438.218 82.917C436.048 85.6303 429.54 96.485 426.285 93.7717C423.032 91.0584 421.403 91.6001 418.691 88.8868C415.98 86.1736 414.352 82.3753 412.725 80.2037C411.098 78.0321 410.555 72.6056 410.013 69.349C409.472 66.0924 404.588 58.4959 410.013 59.5809C415.437 60.6659 418.691 60.1242 420.319 59.0392C421.946 57.9526 423.573 54.1543 423.573 54.1543C423.573 54.1543 423.032 48.1844 421.403 44.9279C419.776 41.6713 420.862 38.958 418.15 35.703C415.438 32.4465 415.438 32.9898 411.641 29.7332C407.845 26.4766 408.929 24.8483 402.963 24.3066C396.996 23.7649 395.369 22.1351 393.198 22.6784C391.03 23.22 383.979 18.8785 391.571 18.3368C399.165 17.7935 406.216 18.8785 406.216 18.8785C406.216 18.8785 415.978 14.5369 412.725 13.9952C409.472 13.4519 417.605 8.56706 410.013 10.1953C402.42 11.8236 393.743 13.9952 391.573 14.5369C389.404 15.0786 383.979 15.6219 378.555 17.2502C373.134 18.8785 366.623 18.3368 363.37 22.1351C360.115 25.9333 363.37 26.4766 360.115 25.9333C356.862 25.3916 362.827 22.1351 355.234 25.9333C347.641 29.7332 349.811 29.1899 346.015 28.1049C342.217 27.0199 339.506 25.3916 339.506 25.3916C339.506 25.3916 344.389 24.8483 337.337 24.3066C330.286 23.7649 330.286 23.7649 327.574 20.5068C324.863 17.2502 326.49 17.2502 328.116 16.1652C329.722 15.0786 330.815 12.907 330.815 12.907H330.829Z" fill="white" fill-opacity="0.07"/>
<path d="M318.893 37.3281C316.181 40.0414 309.672 43.8413 311.301 45.4696C312.928 47.0979 314.013 53.0677 317.267 51.4394C320.521 49.8111 316.724 44.3846 329.199 48.7261C341.674 53.0677 340.588 48.1845 343.3 54.696C346.012 61.2075 348.181 66.0908 346.553 67.7207C344.928 69.349 344.385 70.9773 338.96 72.6056C333.536 74.2338 331.366 76.4054 335.163 79.1171C338.96 81.8304 346.012 84.5437 349.265 86.1736C352.52 87.8002 362.282 88.3451 357.4 82.9186C352.518 77.492 358.485 75.8621 358.485 75.8621C358.485 75.8621 367.706 82.9186 364.453 74.7771C361.198 66.6373 359.027 66.6373 361.198 66.6373C363.368 66.6373 367.706 69.3506 367.706 69.3506L369.876 65.009L367.706 57.9542L360.655 50.8993C360.655 50.8993 366.62 45.4728 358.485 44.3878C350.349 43.3028 350.891 43.3028 346.552 40.5879C342.213 37.8746 341.671 36.7896 333.534 38.4179C325.399 40.0462 322.688 41.1312 322.688 41.1312L318.912 37.3281H318.893Z" fill="white" fill-opacity="0.07"/>
<path d="M197.942 43.8413C201.197 40.5847 209.875 32.9882 213.13 35.1581C216.383 37.3281 221.263 33.5299 225.061 36.7864C228.857 40.043 233.196 43.8413 236.451 44.9263C239.706 46.0113 243.502 42.213 246.756 43.8413C250.01 45.4696 261.399 35.7014 259.231 43.2996C257.06 50.8977 261.942 53.0677 255.976 53.611C250.01 54.1543 243.502 58.4959 240.788 56.8676C238.077 55.2393 235.906 53.611 231.567 55.7826C227.228 57.9526 229.399 57.9526 224.517 56.8676C219.636 55.7826 218.552 57.9526 217.467 56.3243C216.381 54.6976 213.128 55.2393 213.67 50.3544C214.211 45.4712 215.838 46.0129 212.584 46.0129C209.331 46.0129 206.619 46.5562 204.449 44.9279C202.296 43.2996 197.958 43.8413 197.958 43.8413H197.942Z" fill="white" fill-opacity="0.07"/>
</svg>
