<svg width="425" height="146" viewBox="0 0 425 146" fill="none" xmlns="http://www.w3.org/2000/svg">
<path d="M119.567 134.469C117.598 134.469 115.833 134.156 114.27 133.531C112.708 132.891 111.38 132.008 110.286 130.883C109.208 129.758 108.38 128.453 107.802 126.969C107.223 125.469 106.934 123.875 106.934 122.188V121.25C106.934 119.328 107.208 117.57 107.755 115.977C108.302 114.383 109.083 113 110.098 111.828C111.13 110.656 112.38 109.758 113.848 109.133C115.317 108.492 116.973 108.172 118.817 108.172C120.614 108.172 122.208 108.469 123.598 109.062C124.989 109.656 126.153 110.5 127.091 111.594C128.044 112.688 128.762 114 129.247 115.531C129.731 117.047 129.973 118.734 129.973 120.594V123.406H109.817V118.906H123.341V118.391C123.341 117.453 123.169 116.617 122.825 115.883C122.497 115.133 121.997 114.539 121.325 114.102C120.653 113.664 119.794 113.445 118.747 113.445C117.856 113.445 117.091 113.641 116.45 114.031C115.809 114.422 115.286 114.969 114.88 115.672C114.489 116.375 114.192 117.203 113.989 118.156C113.802 119.094 113.708 120.125 113.708 121.25V122.188C113.708 123.203 113.848 124.141 114.13 125C114.427 125.859 114.841 126.602 115.372 127.227C115.919 127.852 116.575 128.336 117.341 128.68C118.122 129.023 119.005 129.195 119.989 129.195C121.208 129.195 122.341 128.961 123.387 128.492C124.45 128.008 125.364 127.281 126.13 126.312L129.411 129.875C128.88 130.641 128.153 131.375 127.231 132.078C126.325 132.781 125.231 133.359 123.95 133.812C122.669 134.25 121.208 134.469 119.567 134.469ZM145.254 129.195C146.082 129.195 146.816 129.039 147.457 128.727C148.097 128.398 148.597 127.945 148.957 127.367C149.332 126.773 149.527 126.078 149.543 125.281H155.894C155.879 127.062 155.402 128.648 154.465 130.039C153.527 131.414 152.269 132.5 150.691 133.297C149.113 134.078 147.347 134.469 145.394 134.469C143.426 134.469 141.707 134.141 140.238 133.484C138.785 132.828 137.574 131.922 136.605 130.766C135.637 129.594 134.91 128.234 134.426 126.688C133.941 125.125 133.699 123.453 133.699 121.672V120.992C133.699 119.195 133.941 117.523 134.426 115.977C134.91 114.414 135.637 113.055 136.605 111.898C137.574 110.727 138.785 109.812 140.238 109.156C141.691 108.5 143.394 108.172 145.347 108.172C147.426 108.172 149.246 108.57 150.808 109.367C152.387 110.164 153.621 111.305 154.512 112.789C155.418 114.258 155.879 116 155.894 118.016H149.543C149.527 117.172 149.347 116.406 149.004 115.719C148.676 115.031 148.191 114.484 147.551 114.078C146.926 113.656 146.152 113.445 145.23 113.445C144.246 113.445 143.441 113.656 142.816 114.078C142.191 114.484 141.707 115.047 141.363 115.766C141.019 116.469 140.777 117.273 140.637 118.18C140.512 119.07 140.449 120.008 140.449 120.992V121.672C140.449 122.656 140.512 123.602 140.637 124.508C140.762 125.414 140.996 126.219 141.34 126.922C141.699 127.625 142.191 128.18 142.816 128.586C143.441 128.992 144.254 129.195 145.254 129.195ZM175.768 127.93V108.641H182.518V134H176.167L175.768 127.93ZM176.518 122.727L178.511 122.68C178.511 124.367 178.315 125.938 177.925 127.391C177.534 128.828 176.948 130.078 176.167 131.141C175.386 132.188 174.401 133.008 173.214 133.602C172.026 134.18 170.628 134.469 169.018 134.469C167.784 134.469 166.643 134.297 165.597 133.953C164.565 133.594 163.675 133.039 162.925 132.289C162.19 131.523 161.612 130.547 161.19 129.359C160.784 128.156 160.581 126.711 160.581 125.023V108.641H167.331V125.07C167.331 125.82 167.417 126.453 167.589 126.969C167.776 127.484 168.034 127.906 168.362 128.234C168.69 128.562 169.073 128.797 169.511 128.938C169.964 129.078 170.464 129.148 171.011 129.148C172.401 129.148 173.495 128.867 174.292 128.305C175.104 127.742 175.675 126.977 176.003 126.008C176.347 125.023 176.518 123.93 176.518 122.727ZM195.385 114.172V134H188.635V108.641H194.986L195.385 114.172ZM203.025 108.477L202.908 114.734C202.58 114.688 202.182 114.648 201.713 114.617C201.26 114.57 200.846 114.547 200.471 114.547C199.517 114.547 198.689 114.672 197.986 114.922C197.299 115.156 196.721 115.508 196.252 115.977C195.799 116.445 195.455 117.016 195.221 117.688C195.002 118.359 194.877 119.125 194.846 119.984L193.486 119.562C193.486 117.922 193.65 116.414 193.978 115.039C194.307 113.648 194.783 112.438 195.408 111.406C196.049 110.375 196.83 109.578 197.752 109.016C198.674 108.453 199.728 108.172 200.916 108.172C201.291 108.172 201.674 108.203 202.064 108.266C202.455 108.312 202.775 108.383 203.025 108.477ZM218.376 134.469C216.407 134.469 214.642 134.156 213.079 133.531C211.517 132.891 210.188 132.008 209.095 130.883C208.017 129.758 207.188 128.453 206.61 126.969C206.032 125.469 205.743 123.875 205.743 122.188V121.25C205.743 119.328 206.017 117.57 206.563 115.977C207.11 114.383 207.892 113 208.907 111.828C209.938 110.656 211.188 109.758 212.657 109.133C214.126 108.492 215.782 108.172 217.626 108.172C219.423 108.172 221.017 108.469 222.407 109.062C223.798 109.656 224.962 110.5 225.899 111.594C226.852 112.688 227.571 114 228.056 115.531C228.54 117.047 228.782 118.734 228.782 120.594V123.406H208.626V118.906H222.149V118.391C222.149 117.453 221.977 116.617 221.634 115.883C221.306 115.133 220.806 114.539 220.134 114.102C219.462 113.664 218.602 113.445 217.556 113.445C216.665 113.445 215.899 113.641 215.259 114.031C214.618 114.422 214.095 114.969 213.688 115.672C213.298 116.375 213.001 117.203 212.798 118.156C212.61 119.094 212.517 120.125 212.517 121.25V122.188C212.517 123.203 212.657 124.141 212.938 125C213.235 125.859 213.649 126.602 214.181 127.227C214.727 127.852 215.384 128.336 216.149 128.68C216.931 129.023 217.813 129.195 218.798 129.195C220.017 129.195 221.149 128.961 222.196 128.492C223.259 128.008 224.173 127.281 224.938 126.312L228.22 129.875C227.688 130.641 226.962 131.375 226.04 132.078C225.134 132.781 224.04 133.359 222.759 133.812C221.477 134.25 220.017 134.469 218.376 134.469ZM248.562 128.469V98H255.359V134H249.242L248.562 128.469ZM232.531 121.625V121.133C232.531 119.195 232.75 117.438 233.188 115.859C233.625 114.266 234.266 112.898 235.109 111.758C235.953 110.617 236.992 109.734 238.227 109.109C239.461 108.484 240.867 108.172 242.445 108.172C243.93 108.172 245.227 108.484 246.336 109.109C247.461 109.734 248.414 110.625 249.195 111.781C249.992 112.922 250.633 114.273 251.117 115.836C251.602 117.383 251.953 119.078 252.172 120.922V122C251.953 123.766 251.602 125.406 251.117 126.922C250.633 128.438 249.992 129.766 249.195 130.906C248.414 132.031 247.461 132.906 246.336 133.531C245.211 134.156 243.898 134.469 242.398 134.469C240.82 134.469 239.414 134.148 238.18 133.508C236.961 132.867 235.93 131.969 235.086 130.812C234.258 129.656 233.625 128.297 233.188 126.734C232.75 125.172 232.531 123.469 232.531 121.625ZM239.281 121.133V121.625C239.281 122.672 239.359 123.648 239.516 124.555C239.688 125.461 239.961 126.266 240.336 126.969C240.727 127.656 241.227 128.195 241.836 128.586C242.461 128.961 243.219 129.148 244.109 129.148C245.266 129.148 246.219 128.891 246.969 128.375C247.719 127.844 248.289 127.117 248.68 126.195C249.086 125.273 249.32 124.211 249.383 123.008V119.938C249.336 118.953 249.195 118.07 248.961 117.289C248.742 116.492 248.414 115.812 247.977 115.25C247.555 114.688 247.023 114.25 246.383 113.938C245.758 113.625 245.016 113.469 244.156 113.469C243.281 113.469 242.531 113.672 241.906 114.078C241.281 114.469 240.773 115.008 240.383 115.695C240.008 116.383 239.727 117.195 239.539 118.133C239.367 119.055 239.281 120.055 239.281 121.133ZM282.943 134H276.17V107.492C276.17 105.336 276.607 103.516 277.482 102.031C278.373 100.547 279.639 99.4219 281.279 98.6562C282.936 97.8906 284.936 97.5078 287.279 97.5078C288.607 97.5078 289.897 97.6406 291.147 97.9062C292.397 98.1562 293.686 98.4844 295.014 98.8906L294.029 104.305C293.17 104.039 292.248 103.789 291.264 103.555C290.279 103.32 289.092 103.203 287.701 103.203C286.139 103.203 284.951 103.57 284.139 104.305C283.342 105.023 282.943 106.086 282.943 107.492V134ZM287.982 108.641V113.422H272.397V108.641H287.982ZM298.154 108.641V134H291.381V108.641H298.154ZM316.435 134.469C314.466 134.469 312.7 134.156 311.138 133.531C309.575 132.891 308.247 132.008 307.153 130.883C306.075 129.758 305.247 128.453 304.669 126.969C304.091 125.469 303.802 123.875 303.802 122.188V121.25C303.802 119.328 304.075 117.57 304.622 115.977C305.169 114.383 305.95 113 306.966 111.828C307.997 110.656 309.247 109.758 310.716 109.133C312.185 108.492 313.841 108.172 315.685 108.172C317.482 108.172 319.075 108.469 320.466 109.062C321.857 109.656 323.021 110.5 323.958 111.594C324.911 112.688 325.63 114 326.114 115.531C326.599 117.047 326.841 118.734 326.841 120.594V123.406H306.685V118.906H320.208V118.391C320.208 117.453 320.036 116.617 319.692 115.883C319.364 115.133 318.864 114.539 318.192 114.102C317.521 113.664 316.661 113.445 315.614 113.445C314.724 113.445 313.958 113.641 313.317 114.031C312.677 114.422 312.153 114.969 311.747 115.672C311.357 116.375 311.06 117.203 310.857 118.156C310.669 119.094 310.575 120.125 310.575 121.25V122.188C310.575 123.203 310.716 124.141 310.997 125C311.294 125.859 311.708 126.602 312.239 127.227C312.786 127.852 313.442 128.336 314.208 128.68C314.989 129.023 315.872 129.195 316.857 129.195C318.075 129.195 319.208 128.961 320.255 128.492C321.317 128.008 322.232 127.281 322.997 126.312L326.278 129.875C325.747 130.641 325.021 131.375 324.099 132.078C323.192 132.781 322.099 133.359 320.817 133.812C319.536 134.25 318.075 134.469 316.435 134.469ZM338.77 98V134H331.996V98H338.77ZM360.284 128.469V98H367.081V134H360.964L360.284 128.469ZM344.253 121.625V121.133C344.253 119.195 344.472 117.438 344.909 115.859C345.347 114.266 345.988 112.898 346.831 111.758C347.675 110.617 348.714 109.734 349.948 109.109C351.183 108.484 352.589 108.172 354.167 108.172C355.652 108.172 356.948 108.484 358.058 109.109C359.183 109.734 360.136 110.625 360.917 111.781C361.714 112.922 362.355 114.273 362.839 115.836C363.323 117.383 363.675 119.078 363.894 120.922V122C363.675 123.766 363.323 125.406 362.839 126.922C362.355 128.438 361.714 129.766 360.917 130.906C360.136 132.031 359.183 132.906 358.058 133.531C356.933 134.156 355.62 134.469 354.12 134.469C352.542 134.469 351.136 134.148 349.902 133.508C348.683 132.867 347.652 131.969 346.808 130.812C345.98 129.656 345.347 128.297 344.909 126.734C344.472 125.172 344.253 123.469 344.253 121.625ZM351.003 121.133V121.625C351.003 122.672 351.081 123.648 351.238 124.555C351.409 125.461 351.683 126.266 352.058 126.969C352.448 127.656 352.948 128.195 353.558 128.586C354.183 128.961 354.941 129.148 355.831 129.148C356.988 129.148 357.941 128.891 358.691 128.375C359.441 127.844 360.011 127.117 360.402 126.195C360.808 125.273 361.042 124.211 361.105 123.008V119.938C361.058 118.953 360.917 118.07 360.683 117.289C360.464 116.492 360.136 115.812 359.698 115.25C359.277 114.688 358.745 114.25 358.105 113.938C357.48 113.625 356.738 113.469 355.878 113.469C355.003 113.469 354.253 113.672 353.628 114.078C353.003 114.469 352.495 115.008 352.105 115.695C351.73 116.383 351.448 117.195 351.261 118.133C351.089 119.055 351.003 120.055 351.003 121.133Z" fill="url(#paint0_angular_52_33335)"/>
<path fill-rule="evenodd" clip-rule="evenodd" d="M84.0034 72C82.4992 72 81.0414 72.579 79.9484 73.634C77.6285 75.8721 74.3549 77.316 70.7301 78.2092C67.131 79.0961 63.4035 79.3879 60.3797 79.4793C58.7721 79.5225 57.2257 80.1501 56.0449 81.2591C54.8604 82.3715 54.1283 83.8908 54.0136 85.526L54 85.7203L55.2128 102.453C55.5349 108.241 56.1823 114.227 59.4333 119.628C62.6038 124.896 67.3154 129.046 72.9215 131.509C77.349 133.455 82.163 134.273 86.9427 133.92C87.082 133.93 87.2248 133.928 87.3703 133.913C87.813 133.866 88.2474 133.809 88.6737 133.74C89.3662 133.648 90.057 133.53 90.7446 133.388C91.0485 133.325 91.3299 133.212 91.5821 133.061C92.1865 132.871 92.771 132.655 93.3356 132.411C95.8791 131.313 97.8573 129.789 99.2703 127.838C100.683 125.846 101.39 123.549 101.39 120.947C101.39 117.613 100.34 114.991 98.2408 113.08C96.1415 111.169 92.8512 109.848 88.3699 109.116L81.5269 107.958C78.822 107.551 76.8842 106.901 75.7134 106.006C74.5426 105.071 73.9572 103.73 73.9572 101.982C73.9572 100.721 74.3408 99.6238 75.1078 98.6888C75.8749 97.7131 76.9447 96.961 78.3174 96.4325C79.69 95.904 81.3049 95.6398 83.162 95.6398C86.98 95.6398 90.7577 96.8017 94.4952 99.1255C95.9321 100.019 97.8456 99.7507 98.8369 98.374C99.7881 97.0528 99.5374 95.1926 98.154 94.3427C96.4049 93.268 94.5161 92.3994 92.4878 91.737C89.5407 90.7207 86.533 90.2125 83.4648 90.2125C80.3561 90.2125 77.6109 90.7207 75.2289 91.737C72.8874 92.7533 71.0706 94.1966 69.7788 96.0666C68.4869 97.896 67.8409 100.03 67.8409 102.47C67.8409 105.519 68.7896 107.958 70.6871 109.787C72.625 111.617 75.5317 112.877 79.4074 113.568L86.4926 114.727C89.5609 115.255 91.7611 116.028 93.0934 117.044C94.4257 118.06 95.0918 119.524 95.0918 121.435C95.0918 122.817 94.6679 124.057 93.8201 125.154C92.9723 126.252 91.7612 127.106 90.1866 127.716C89.329 128.034 88.3894 128.263 87.3678 128.403C87.25 128.419 87.1339 128.442 87.0198 128.47C82.9548 128.851 78.8444 128.193 75.0763 126.537C70.4895 124.522 66.6345 121.126 64.0405 116.816C61.5314 112.648 60.9082 107.85 60.5904 102.127L60.5892 102.104L59.4058 85.7768C59.4473 85.5772 59.5517 85.3838 59.7193 85.2264C59.9254 85.0328 60.2114 84.9104 60.5245 84.9024L60.5303 84.9022L60.5361 84.902C63.7338 84.8055 67.8869 84.495 72.0107 83.4787C76.1107 82.4684 80.4042 80.7072 83.6753 77.5514L83.6763 77.5506C83.7513 77.478 83.8676 77.425 84.0034 77.425C84.1392 77.425 84.2555 77.478 84.3306 77.5506L84.3312 77.5512C87.6017 80.7071 91.8949 82.4684 95.995 83.4787C100.119 84.495 104.272 84.8055 107.471 84.902L107.477 84.9022L107.482 84.9024C107.795 84.9104 108.081 85.0328 108.288 85.2264C108.492 85.4182 108.602 85.6633 108.619 85.9081C108.724 87.4024 110.012 88.5283 111.496 88.4228C112.98 88.3173 114.098 87.0204 113.993 85.526C113.879 83.8908 113.146 82.3714 111.962 81.2591C110.781 80.15 109.235 79.5224 107.627 79.4793C104.602 79.3879 100.875 79.0961 97.2756 78.2092C93.6511 77.3161 90.3783 75.8724 88.0593 73.6349C86.9662 72.5794 85.508 72 84.0034 72Z" fill="url(#paint1_angular_52_33335)"/>
<path d="M10.3438 13.5L19.8438 34.25L29.3438 13.5H39.5625L24.5938 42.4375V59H15.0938V42.4375L0.09375 13.5H10.3438ZM39.6562 42.4375V41.7812C39.6562 39.3021 40.0104 37.0208 40.7188 34.9375C41.4271 32.8333 42.4583 31.0104 43.8125 29.4688C45.1667 27.9271 46.8333 26.7292 48.8125 25.875C50.7917 25 53.0625 24.5625 55.625 24.5625C58.1875 24.5625 60.4688 25 62.4688 25.875C64.4688 26.7292 66.1458 27.9271 67.5 29.4688C68.875 31.0104 69.9167 32.8333 70.625 34.9375C71.3333 37.0208 71.6875 39.3021 71.6875 41.7812V42.4375C71.6875 44.8958 71.3333 47.1771 70.625 49.2812C69.9167 51.3646 68.875 53.1875 67.5 54.75C66.1458 56.2917 64.4792 57.4896 62.5 58.3438C60.5208 59.1979 58.25 59.625 55.6875 59.625C53.125 59.625 50.8438 59.1979 48.8438 58.3438C46.8646 57.4896 45.1875 56.2917 43.8125 54.75C42.4583 53.1875 41.4271 51.3646 40.7188 49.2812C40.0104 47.1771 39.6562 44.8958 39.6562 42.4375ZM48.6562 41.7812V42.4375C48.6562 43.8542 48.7812 45.1771 49.0312 46.4062C49.2812 47.6354 49.6771 48.7188 50.2188 49.6562C50.7812 50.5729 51.5104 51.2917 52.4062 51.8125C53.3021 52.3333 54.3958 52.5938 55.6875 52.5938C56.9375 52.5938 58.0104 52.3333 58.9062 51.8125C59.8021 51.2917 60.5208 50.5729 61.0625 49.6562C61.6042 48.7188 62 47.6354 62.25 46.4062C62.5208 45.1771 62.6562 43.8542 62.6562 42.4375V41.7812C62.6562 40.4062 62.5208 39.1146 62.25 37.9062C62 36.6771 61.5938 35.5938 61.0312 34.6562C60.4896 33.6979 59.7708 32.9479 58.875 32.4062C57.9792 31.8646 56.8958 31.5938 55.625 31.5938C54.3542 31.5938 53.2708 31.8646 52.375 32.4062C51.5 32.9479 50.7812 33.6979 50.2188 34.6562C49.6771 35.5938 49.2812 36.6771 49.0312 37.9062C48.7812 39.1146 48.6562 40.4062 48.6562 41.7812ZM97.2188 50.9062V25.1875H106.219V59H97.75L97.2188 50.9062ZM98.2188 43.9688L100.875 43.9062C100.875 46.1562 100.615 48.25 100.094 50.1875C99.5729 52.1042 98.7917 53.7708 97.75 55.1875C96.7083 56.5833 95.3958 57.6771 93.8125 58.4688C92.2292 59.2396 90.3646 59.625 88.2188 59.625C86.5729 59.625 85.0521 59.3958 83.6562 58.9375C82.2812 58.4583 81.0938 57.7188 80.0938 56.7188C79.1146 55.6979 78.3438 54.3958 77.7812 52.8125C77.2396 51.2083 76.9688 49.2812 76.9688 47.0312V25.1875H85.9688V47.0938C85.9688 48.0938 86.0833 48.9375 86.3125 49.625C86.5625 50.3125 86.9062 50.875 87.3438 51.3125C87.7812 51.75 88.2917 52.0625 88.875 52.25C89.4792 52.4375 90.1458 52.5312 90.875 52.5312C92.7292 52.5312 94.1875 52.1562 95.25 51.4062C96.3333 50.6562 97.0938 49.6354 97.5312 48.3438C97.9896 47.0312 98.2188 45.5729 98.2188 43.9688ZM122.094 32.5625V59H113.094V25.1875H121.562L122.094 32.5625ZM132.281 24.9688L132.125 33.3125C131.688 33.25 131.156 33.1979 130.531 33.1562C129.927 33.0938 129.375 33.0625 128.875 33.0625C127.604 33.0625 126.5 33.2292 125.562 33.5625C124.646 33.875 123.875 34.3438 123.25 34.9688C122.646 35.5938 122.188 36.3542 121.875 37.25C121.583 38.1458 121.417 39.1667 121.375 40.3125L119.562 39.75C119.562 37.5625 119.781 35.5521 120.219 33.7188C120.656 31.8646 121.292 30.25 122.125 28.875C122.979 27.5 124.021 26.4375 125.25 25.6875C126.479 24.9375 127.885 24.5625 129.469 24.5625C129.969 24.5625 130.479 24.6042 131 24.6875C131.521 24.75 131.948 24.8438 132.281 24.9688ZM161.25 11V59H152.25V11H161.25ZM159.969 40.9062H157.5C157.521 38.5521 157.833 36.3854 158.438 34.4062C159.042 32.4062 159.906 30.6771 161.031 29.2188C162.156 27.7396 163.5 26.5938 165.062 25.7812C166.646 24.9688 168.396 24.5625 170.312 24.5625C171.979 24.5625 173.49 24.8021 174.844 25.2812C176.219 25.7396 177.396 26.4896 178.375 27.5312C179.375 28.5521 180.146 29.8958 180.688 31.5625C181.229 33.2292 181.5 35.25 181.5 37.625V59H172.438V37.5625C172.438 36.0625 172.219 34.8854 171.781 34.0312C171.365 33.1562 170.75 32.5417 169.938 32.1875C169.146 31.8125 168.167 31.625 167 31.625C165.708 31.625 164.604 31.8646 163.688 32.3438C162.792 32.8229 162.073 33.4896 161.531 34.3438C160.99 35.1771 160.594 36.1562 160.344 37.2812C160.094 38.4062 159.969 39.6146 159.969 40.9062ZM197.844 25.1875V59H188.812V25.1875H197.844ZM188.25 16.375C188.25 15.0625 188.708 13.9792 189.625 13.125C190.542 12.2708 191.771 11.8438 193.312 11.8438C194.833 11.8438 196.052 12.2708 196.969 13.125C197.906 13.9792 198.375 15.0625 198.375 16.375C198.375 17.6875 197.906 18.7708 196.969 19.625C196.052 20.4792 194.833 20.9062 193.312 20.9062C191.771 20.9062 190.542 20.4792 189.625 19.625C188.708 18.7708 188.25 17.6875 188.25 16.375ZM226.688 25.1875H234.844V57.875C234.844 60.9583 234.156 63.5729 232.781 65.7188C231.427 67.8854 229.531 69.5208 227.094 70.625C224.656 71.75 221.823 72.3125 218.594 72.3125C217.177 72.3125 215.677 72.125 214.094 71.75C212.531 71.375 211.031 70.7917 209.594 70C208.177 69.2083 206.99 68.2083 206.031 67L210 61.6875C211.042 62.8958 212.25 63.8333 213.625 64.5C215 65.1875 216.521 65.5312 218.188 65.5312C219.812 65.5312 221.188 65.2292 222.312 64.625C223.438 64.0417 224.302 63.1771 224.906 62.0312C225.51 60.9062 225.812 59.5417 225.812 57.9375V33L226.688 25.1875ZM203.938 42.5V41.8438C203.938 39.2604 204.25 36.9167 204.875 34.8125C205.521 32.6875 206.427 30.8646 207.594 29.3438C208.781 27.8229 210.219 26.6458 211.906 25.8125C213.594 24.9792 215.5 24.5625 217.625 24.5625C219.875 24.5625 221.76 24.9792 223.281 25.8125C224.802 26.6458 226.052 27.8333 227.031 29.375C228.01 30.8958 228.771 32.6979 229.312 34.7812C229.875 36.8438 230.312 39.1042 230.625 41.5625V43C230.312 45.3542 229.844 47.5417 229.219 49.5625C228.594 51.5833 227.771 53.3542 226.75 54.875C225.729 56.375 224.458 57.5417 222.938 58.375C221.438 59.2083 219.646 59.625 217.562 59.625C215.479 59.625 213.594 59.1979 211.906 58.3438C210.24 57.4896 208.812 56.2917 207.625 54.75C206.438 53.2083 205.521 51.3958 204.875 49.3125C204.25 47.2292 203.938 44.9583 203.938 42.5ZM212.938 41.8438V42.5C212.938 43.8958 213.073 45.1979 213.344 46.4062C213.615 47.6146 214.031 48.6875 214.594 49.625C215.177 50.5417 215.896 51.2604 216.75 51.7812C217.625 52.2812 218.656 52.5312 219.844 52.5312C221.49 52.5312 222.833 52.1875 223.875 51.5C224.917 50.7917 225.698 49.8229 226.219 48.5938C226.74 47.3646 227.042 45.9479 227.125 44.3438V40.25C227.083 38.9375 226.906 37.7604 226.594 36.7188C226.281 35.6562 225.844 34.75 225.281 34C224.719 33.25 223.99 32.6667 223.094 32.25C222.198 31.8333 221.135 31.625 219.906 31.625C218.719 31.625 217.688 31.8958 216.812 32.4375C215.958 32.9583 215.24 33.6771 214.656 34.5938C214.094 35.5104 213.667 36.5938 213.375 37.8438C213.083 39.0729 212.938 40.4062 212.938 41.8438ZM250.625 11V59H241.625V11H250.625ZM249.344 40.9062H246.875C246.896 38.5521 247.208 36.3854 247.812 34.4062C248.417 32.4062 249.281 30.6771 250.406 29.2188C251.531 27.7396 252.875 26.5938 254.438 25.7812C256.021 24.9688 257.771 24.5625 259.688 24.5625C261.354 24.5625 262.865 24.8021 264.219 25.2812C265.594 25.7396 266.771 26.4896 267.75 27.5312C268.75 28.5521 269.521 29.8958 270.062 31.5625C270.604 33.2292 270.875 35.25 270.875 37.625V59H261.812V37.5625C261.812 36.0625 261.594 34.8854 261.156 34.0312C260.74 33.1562 260.125 32.5417 259.312 32.1875C258.521 31.8125 257.542 31.625 256.375 31.625C255.083 31.625 253.979 31.8646 253.062 32.3438C252.167 32.8229 251.448 33.4896 250.906 34.3438C250.365 35.1771 249.969 36.1562 249.719 37.2812C249.469 38.4062 249.344 39.6146 249.344 40.9062ZM295.469 35.9375V43H277.812V35.9375H295.469ZM319.531 25.1875V31.5625H299.844V25.1875H319.531ZM304.719 16.8438H313.719V48.8125C313.719 49.7917 313.844 50.5417 314.094 51.0625C314.365 51.5833 314.76 51.9479 315.281 52.1562C315.802 52.3438 316.458 52.4375 317.25 52.4375C317.812 52.4375 318.312 52.4167 318.75 52.375C319.208 52.3125 319.594 52.25 319.906 52.1875L319.938 58.8125C319.167 59.0625 318.333 59.2604 317.438 59.4062C316.542 59.5521 315.552 59.625 314.469 59.625C312.49 59.625 310.76 59.3021 309.281 58.6562C307.823 57.9896 306.698 56.9271 305.906 55.4688C305.115 54.0104 304.719 52.0938 304.719 49.7188V16.8438ZM340.219 59.625C337.594 59.625 335.24 59.2083 333.156 58.375C331.073 57.5208 329.302 56.3438 327.844 54.8438C326.406 53.3438 325.302 51.6042 324.531 49.625C323.76 47.625 323.375 45.5 323.375 43.25V42C323.375 39.4375 323.74 37.0938 324.469 34.9688C325.198 32.8438 326.24 31 327.594 29.4375C328.969 27.875 330.635 26.6771 332.594 25.8438C334.552 24.9896 336.76 24.5625 339.219 24.5625C341.615 24.5625 343.74 24.9583 345.594 25.75C347.448 26.5417 349 27.6667 350.25 29.125C351.521 30.5833 352.479 32.3333 353.125 34.375C353.771 36.3958 354.094 38.6458 354.094 41.125V44.875H327.219V38.875H345.25V38.1875C345.25 36.9375 345.021 35.8229 344.562 34.8438C344.125 33.8438 343.458 33.0521 342.562 32.4688C341.667 31.8854 340.521 31.5938 339.125 31.5938C337.938 31.5938 336.917 31.8542 336.062 32.375C335.208 32.8958 334.51 33.625 333.969 34.5625C333.448 35.5 333.052 36.6042 332.781 37.875C332.531 39.125 332.406 40.5 332.406 42V43.25C332.406 44.6042 332.594 45.8542 332.969 47C333.365 48.1458 333.917 49.1354 334.625 49.9688C335.354 50.8021 336.229 51.4479 337.25 51.9062C338.292 52.3646 339.469 52.5938 340.781 52.5938C342.406 52.5938 343.917 52.2812 345.312 51.6562C346.729 51.0104 347.948 50.0417 348.969 48.75L353.344 53.5C352.635 54.5208 351.667 55.5 350.438 56.4375C349.229 57.375 347.771 58.1458 346.062 58.75C344.354 59.3333 342.406 59.625 340.219 59.625ZM373.188 52.5938C374.292 52.5938 375.271 52.3854 376.125 51.9688C376.979 51.5312 377.646 50.9271 378.125 50.1562C378.625 49.3646 378.885 48.4375 378.906 47.375H387.375C387.354 49.75 386.719 51.8646 385.469 53.7188C384.219 55.5521 382.542 57 380.438 58.0625C378.333 59.1042 375.979 59.625 373.375 59.625C370.75 59.625 368.458 59.1875 366.5 58.3125C364.562 57.4375 362.948 56.2292 361.656 54.6875C360.365 53.125 359.396 51.3125 358.75 49.25C358.104 47.1667 357.781 44.9375 357.781 42.5625V41.6562C357.781 39.2604 358.104 37.0312 358.75 34.9688C359.396 32.8854 360.365 31.0729 361.656 29.5312C362.948 27.9688 364.562 26.75 366.5 25.875C368.438 25 370.708 24.5625 373.312 24.5625C376.083 24.5625 378.51 25.0938 380.594 26.1562C382.698 27.2188 384.344 28.7396 385.531 30.7188C386.74 32.6771 387.354 35 387.375 37.6875H378.906C378.885 36.5625 378.646 35.5417 378.188 34.625C377.75 33.7083 377.104 32.9792 376.25 32.4375C375.417 31.875 374.385 31.5938 373.156 31.5938C371.844 31.5938 370.771 31.875 369.938 32.4375C369.104 32.9792 368.458 33.7292 368 34.6875C367.542 35.625 367.219 36.6979 367.031 37.9062C366.865 39.0938 366.781 40.3438 366.781 41.6562V42.5625C366.781 43.875 366.865 45.1354 367.031 46.3438C367.198 47.5521 367.51 48.625 367.969 49.5625C368.448 50.5 369.104 51.2396 369.938 51.7812C370.771 52.3229 371.854 52.5938 373.188 52.5938ZM401.375 11V59H392.375V11H401.375ZM400.094 40.9062H397.625C397.646 38.5521 397.958 36.3854 398.562 34.4062C399.167 32.4062 400.031 30.6771 401.156 29.2188C402.281 27.7396 403.625 26.5938 405.188 25.7812C406.771 24.9688 408.521 24.5625 410.438 24.5625C412.104 24.5625 413.615 24.8021 414.969 25.2812C416.344 25.7396 417.521 26.4896 418.5 27.5312C419.5 28.5521 420.271 29.8958 420.812 31.5625C421.354 33.2292 421.625 35.25 421.625 37.625V59H412.562V37.5625C412.562 36.0625 412.344 34.8854 411.906 34.0312C411.49 33.1562 410.875 32.5417 410.062 32.1875C409.271 31.8125 408.292 31.625 407.125 31.625C405.833 31.625 404.729 31.8646 403.812 32.3438C402.917 32.8229 402.198 33.4896 401.656 34.3438C401.115 35.1771 400.719 36.1562 400.469 37.2812C400.219 38.4062 400.094 39.6146 400.094 40.9062Z" fill="#FFF7F7"/>
<defs>
<radialGradient id="paint0_angular_52_33335" cx="0" cy="0" r="1" gradientUnits="userSpaceOnUse" gradientTransform="translate(322.476 111.532) rotate(7.98194) scale(209.867 58.1153)">
<stop offset="0.0677083" stop-color="#0073C5"/>
<stop offset="0.265625" stop-color="#33A9FE"/>
<stop offset="0.520889" stop-color="#35DF91"/>
<stop offset="0.617182" stop-color="#198F57"/>
<stop offset="0.757289" stop-color="#198F57"/>
<stop offset="0.860651" stop-color="#198F57"/>
</radialGradient>
<radialGradient id="paint1_angular_52_33335" cx="0" cy="0" r="1" gradientUnits="userSpaceOnUse" gradientTransform="translate(100.939 95.8389) rotate(37.9115) scale(52.5104 51.2599)">
<stop offset="0.0677083" stop-color="#0073C5"/>
<stop offset="0.265625" stop-color="#33A9FE"/>
<stop offset="0.520889" stop-color="#35DF91"/>
<stop offset="0.617182" stop-color="#198F57"/>
<stop offset="0.757289" stop-color="#198F57" stop-opacity="0"/>
<stop offset="0.860651" stop-color="#198F57" stop-opacity="0"/>
</radialGradient>
</defs>
</svg>
