<svg width="36" height="36" viewBox="0 0 36 36" fill="none" xmlns="http://www.w3.org/2000/svg">
<path d="M1.125 18.0005C1.125 25.3693 5.85 31.613 12.375 33.9193V2.08179C5.85 4.38804 1.125 10.6318 1.125 18.0005Z" fill="#2A5F9E"/>
<path d="M34.875 18.0005C34.875 10.6318 30.2062 4.38804 23.625 2.08179V33.9193C30.2062 31.613 34.875 25.3693 34.875 18.0005Z" fill="#C94747"/>
<path d="M12.375 33.9188C14.1187 34.5375 16.0312 34.875 18 34.875C19.9688 34.875 21.8813 34.5375 23.625 33.9188V2.08125C21.8813 1.4625 19.9688 1.125 18 1.125C16.0312 1.125 14.1187 1.4625 12.375 2.08125V33.9188Z" fill="#FFCE31"/>
</svg>
