<svg width="36" height="36" viewBox="0 0 36 36" fill="none" xmlns="http://www.w3.org/2000/svg">
<path d="M17.8874 1.125C10.5749 1.125 4.33115 5.85 2.0249 12.375H33.8624C31.4999 5.85 25.2562 1.125 17.8874 1.125Z" fill="#F2B200"/>
<path d="M17.8874 34.875C25.2562 34.875 31.4999 30.2062 33.8062 23.625H2.0249C4.33115 30.2062 10.5749 34.875 17.8874 34.875Z" fill="#83BF4F"/>
<path d="M2.0251 12.375C1.40635 14.1187 1.06885 16.0312 1.06885 18C1.06885 19.9688 1.40635 21.8813 2.0251 23.625H33.8626C34.4813 21.8813 34.8188 19.9688 34.8188 18C34.8188 16.0312 34.4813 14.1187 33.8626 12.375H2.0251Z" fill="white"/>
<path d="M17.8877 22.5C20.373 22.5 22.3877 20.4853 22.3877 18C22.3877 15.5147 20.373 13.5 17.8877 13.5C15.4024 13.5 13.3877 15.5147 13.3877 18C13.3877 20.4853 15.4024 22.5 17.8877 22.5Z" fill="#428BC1"/>
<path d="M17.8877 21.9375C20.0623 21.9375 21.8252 20.1746 21.8252 18C21.8252 15.8254 20.0623 14.0625 17.8877 14.0625C15.7131 14.0625 13.9502 15.8254 13.9502 18C13.9502 20.1746 15.7131 21.9375 17.8877 21.9375Z" fill="white"/>
<path d="M16.4253 14.625C16.5806 14.625 16.7065 14.4991 16.7065 14.3438C16.7065 14.1884 16.5806 14.0625 16.4253 14.0625C16.27 14.0625 16.144 14.1884 16.144 14.3438C16.144 14.4991 16.27 14.625 16.4253 14.625Z" fill="#428BC1"/>
<path d="M15.5249 15.1316C15.6802 15.1316 15.8062 15.0057 15.8062 14.8503C15.8062 14.695 15.6802 14.5691 15.5249 14.5691C15.3696 14.5691 15.2437 14.695 15.2437 14.8503C15.2437 15.0057 15.3696 15.1316 15.5249 15.1316Z" fill="#428BC1"/>
<path d="M14.7939 15.863C14.9493 15.863 15.0752 15.7371 15.0752 15.5818C15.0752 15.4265 14.9493 15.3005 14.7939 15.3005C14.6386 15.3005 14.5127 15.4265 14.5127 15.5818C14.5127 15.7371 14.6386 15.863 14.7939 15.863Z" fill="#428BC1"/>
<path d="M14.2876 16.7627C14.4429 16.7627 14.5688 16.6368 14.5688 16.4814C14.5688 16.3261 14.4429 16.2002 14.2876 16.2002C14.1323 16.2002 14.0063 16.3261 14.0063 16.4814C14.0063 16.6368 14.1323 16.7627 14.2876 16.7627Z" fill="#428BC1"/>
<path d="M14.0063 17.7751C14.1617 17.7751 14.2876 17.6492 14.2876 17.4939C14.2876 17.3386 14.1617 17.2126 14.0063 17.2126C13.851 17.2126 13.7251 17.3386 13.7251 17.4939C13.7251 17.6492 13.851 17.7751 14.0063 17.7751Z" fill="#428BC1"/>
<path d="M14.0063 18.7878C14.1617 18.7878 14.2876 18.6619 14.2876 18.5066C14.2876 18.3513 14.1617 18.2253 14.0063 18.2253C13.851 18.2253 13.7251 18.3513 13.7251 18.5066C13.7251 18.6619 13.851 18.7878 14.0063 18.7878Z" fill="#428BC1"/>
<path d="M14.2876 19.8005C14.4429 19.8005 14.5688 19.6746 14.5688 19.5193C14.5688 19.364 14.4429 19.238 14.2876 19.238C14.1323 19.238 14.0063 19.364 14.0063 19.5193C14.0063 19.6746 14.1323 19.8005 14.2876 19.8005Z" fill="#428BC1"/>
<path d="M14.7939 20.7002C14.9493 20.7002 15.0752 20.5743 15.0752 20.4189C15.0752 20.2636 14.9493 20.1377 14.7939 20.1377C14.6386 20.1377 14.5127 20.2636 14.5127 20.4189C14.5127 20.5743 14.6386 20.7002 14.7939 20.7002Z" fill="#428BC1"/>
<path d="M15.5249 21.4314C15.6802 21.4314 15.8062 21.3055 15.8062 21.1501C15.8062 20.9948 15.6802 20.8689 15.5249 20.8689C15.3696 20.8689 15.2437 20.9948 15.2437 21.1501C15.2437 21.3055 15.3696 21.4314 15.5249 21.4314Z" fill="#428BC1"/>
<path d="M16.4253 21.9375C16.5806 21.9375 16.7065 21.8116 16.7065 21.6562C16.7065 21.5009 16.5806 21.375 16.4253 21.375C16.27 21.375 16.144 21.5009 16.144 21.6562C16.144 21.8116 16.27 21.9375 16.4253 21.9375Z" fill="#428BC1"/>
<path d="M17.3813 22.1628C17.5367 22.1628 17.6626 22.0369 17.6626 21.8816C17.6626 21.7263 17.5367 21.6003 17.3813 21.6003C17.226 21.6003 17.1001 21.7263 17.1001 21.8816C17.1001 22.0369 17.226 22.1628 17.3813 22.1628Z" fill="#428BC1"/>
<path d="M18.1689 21.9378C18.1689 21.7691 18.2814 21.6566 18.3939 21.6003C18.5627 21.6003 18.6752 21.7128 18.7314 21.8253C18.7314 21.9941 18.6189 22.1066 18.5064 22.1628C18.2814 22.2191 18.1689 22.1066 18.1689 21.9378Z" fill="#428BC1"/>
<path d="M19.4062 21.9375C19.5616 21.9375 19.6875 21.8116 19.6875 21.6562C19.6875 21.5009 19.5616 21.375 19.4062 21.375C19.2509 21.375 19.125 21.5009 19.125 21.6562C19.125 21.8116 19.2509 21.9375 19.4062 21.9375Z" fill="#428BC1"/>
<path d="M20.3062 21.4314C20.4615 21.4314 20.5874 21.3055 20.5874 21.1501C20.5874 20.9948 20.4615 20.8689 20.3062 20.8689C20.1508 20.8689 20.0249 20.9948 20.0249 21.1501C20.0249 21.3055 20.1508 21.4314 20.3062 21.4314Z" fill="#428BC1"/>
<path d="M21.0376 20.7002C21.1929 20.7002 21.3188 20.5743 21.3188 20.4189C21.3188 20.2636 21.1929 20.1377 21.0376 20.1377C20.8823 20.1377 20.7563 20.2636 20.7563 20.4189C20.7563 20.5743 20.8823 20.7002 21.0376 20.7002Z" fill="#428BC1"/>
<path d="M21.5439 19.8005C21.6993 19.8005 21.8252 19.6746 21.8252 19.5193C21.8252 19.364 21.6993 19.238 21.5439 19.238C21.3886 19.238 21.2627 19.364 21.2627 19.5193C21.2627 19.6746 21.3886 19.8005 21.5439 19.8005Z" fill="#428BC1"/>
<path d="M21.8252 18.7878C21.9805 18.7878 22.1064 18.6619 22.1064 18.5066C22.1064 18.3513 21.9805 18.2253 21.8252 18.2253C21.6699 18.2253 21.5439 18.3513 21.5439 18.5066C21.5439 18.6619 21.6699 18.7878 21.8252 18.7878Z" fill="#428BC1"/>
<path d="M21.8253 17.7751C21.6565 17.7751 21.544 17.6626 21.4878 17.5501C21.4878 17.3814 21.6003 17.2689 21.7128 17.2126C21.8815 17.2126 21.994 17.3251 22.0503 17.4376C22.1065 17.6064 21.994 17.7189 21.8253 17.7751Z" fill="#428BC1"/>
<path d="M21.5439 16.7627C21.6993 16.7627 21.8252 16.6368 21.8252 16.4814C21.8252 16.3261 21.6993 16.2002 21.5439 16.2002C21.3886 16.2002 21.2627 16.3261 21.2627 16.4814C21.2627 16.6368 21.3886 16.7627 21.5439 16.7627Z" fill="#428BC1"/>
<path d="M21.0376 15.863C21.1929 15.863 21.3188 15.7371 21.3188 15.5818C21.3188 15.4265 21.1929 15.3005 21.0376 15.3005C20.8823 15.3005 20.7563 15.4265 20.7563 15.5818C20.7563 15.7371 20.8823 15.863 21.0376 15.863Z" fill="#428BC1"/>
<path d="M20.3062 15.1316C20.4615 15.1316 20.5874 15.0057 20.5874 14.8503C20.5874 14.695 20.4615 14.5691 20.3062 14.5691C20.1508 14.5691 20.0249 14.695 20.0249 14.8503C20.0249 15.0057 20.1508 15.1316 20.3062 15.1316Z" fill="#428BC1"/>
<path d="M19.6876 14.4566C19.6313 14.6253 19.4626 14.6816 19.2938 14.6253C19.1251 14.5691 19.0688 14.4003 19.1251 14.2316C19.1813 14.0628 19.3501 14.0066 19.5188 14.0628C19.6876 14.1753 19.7438 14.3441 19.6876 14.4566Z" fill="#428BC1"/>
<path d="M18.6753 14.119C18.6753 14.2877 18.5065 14.4002 18.3378 14.344C18.169 14.344 18.0565 14.1752 18.1128 14.0065C18.1128 13.8377 18.2815 13.7252 18.4503 13.7815C18.619 13.8377 18.7315 14.0065 18.6753 14.119Z" fill="#428BC1"/>
<path d="M17.6626 14.0631C17.6626 14.2319 17.5501 14.3444 17.4376 14.4006C17.2688 14.4006 17.1563 14.2881 17.1001 14.1756C17.1001 14.0069 17.2126 13.8944 17.3251 13.8381C17.4938 13.7819 17.6626 13.8944 17.6626 14.0631Z" fill="#428BC1"/>
<path d="M17.8877 18.8438C18.3537 18.8438 18.7314 18.466 18.7314 18C18.7314 17.534 18.3537 17.1562 17.8877 17.1562C17.4217 17.1562 17.0439 17.534 17.0439 18C17.0439 18.466 17.4217 18.8438 17.8877 18.8438Z" fill="#428BC1"/>
<path d="M17.8874 14.0625L17.7749 16.4812L17.8874 18L18.0561 16.4812L17.8874 14.0625Z" fill="#428BC1"/>
<path d="M16.875 14.1755L17.3812 16.5943L17.8875 18.0005L17.6625 16.4818L16.875 14.1755Z" fill="#428BC1"/>
<path d="M15.9189 14.5691L17.0439 16.7628L17.8877 18.0003L17.2689 16.5941L15.9189 14.5691Z" fill="#428BC1"/>
<path d="M15.1313 15.1875L16.7626 17.0437L17.8876 18L16.9313 16.8187L15.1313 15.1875Z" fill="#428BC1"/>
<path d="M14.5127 16.0312L16.5377 17.3812L17.8877 18L16.6502 17.1L14.5127 16.0312Z" fill="#428BC1"/>
<path d="M14.1187 16.988L16.4249 17.7193L17.8874 18.0005L16.4812 17.4943L14.1187 16.988Z" fill="#428BC1"/>
<path d="M13.9502 18.0002L16.4252 18.1127L17.8877 18.0002L16.4252 17.8877L13.9502 18.0002Z" fill="#428BC1"/>
<path d="M14.1187 19.0125L16.4812 18.5063L17.8874 18L16.4249 18.2812L14.1187 19.0125Z" fill="#428BC1"/>
<path d="M14.5127 19.9688L16.6502 18.9L17.8877 18L16.5377 18.6187L14.5127 19.9688Z" fill="#428BC1"/>
<path d="M15.1313 20.7563L16.9313 19.1812L17.8876 18L16.7626 18.9563L15.1313 20.7563Z" fill="#428BC1"/>
<path d="M15.9189 21.4312L17.2689 19.35L17.8877 18L17.0439 19.2375L15.9189 21.4312Z" fill="#428BC1"/>
<path d="M16.875 21.825L17.6625 19.5188L17.8875 18L17.3812 19.4063L16.875 21.825Z" fill="#428BC1"/>
<path d="M17.8874 21.9375L18.0561 19.5188L17.8874 18L17.7749 19.5188L17.8874 21.9375Z" fill="#428BC1"/>
<path d="M18.9002 21.825L18.4502 19.4063L17.8877 18L18.1689 19.5188L18.9002 21.825Z" fill="#428BC1"/>
<path d="M19.8564 21.4312L18.7877 19.2375L17.8877 18L18.5627 19.4062L19.8564 21.4312Z" fill="#428BC1"/>
<path d="M20.7002 20.7563L19.0689 18.9563L17.8877 18L18.9002 19.1812L20.7002 20.7563Z" fill="#428BC1"/>
<path d="M21.3189 19.9688L19.2939 18.6187L17.8877 18L19.1252 18.9L21.3189 19.9688Z" fill="#428BC1"/>
<path d="M21.7127 19.0125L19.4064 18.2812L17.8877 18L19.3502 18.5063L21.7127 19.0125Z" fill="#428BC1"/>
<path d="M21.8252 18.0005L19.4064 17.8318L17.8877 18.0005L19.4064 18.113L21.8252 18.0005Z" fill="#428BC1"/>
<path d="M21.7127 16.988L19.3502 17.4943L17.8877 18.0005L19.4064 17.7193L21.7127 16.988Z" fill="#428BC1"/>
<path d="M21.3189 16.0312L19.1252 17.1L17.8877 18L19.2939 17.3812L21.3189 16.0312Z" fill="#428BC1"/>
<path d="M20.7002 15.2439L18.9002 16.8189L17.8877 18.0001L19.0689 17.0439L20.7002 15.2439Z" fill="#428BC1"/>
<path d="M19.8564 14.5691L18.5627 16.6503L17.8877 18.0003L18.7877 16.7628L19.8564 14.5691Z" fill="#428BC1"/>
<path d="M18.9564 14.1755L18.1689 16.4818L17.8877 18.0005L18.4502 16.5943L18.9564 14.1755Z" fill="#428BC1"/>
</svg>
