<svg width="36" height="36" viewBox="0 0 36 36" fill="none" xmlns="http://www.w3.org/2000/svg">
<path d="M18 1.125V18H1.125C1.125 27.3375 8.6625 34.875 18 34.875C27.3375 34.875 34.875 27.3375 34.875 18C34.875 8.6625 27.3375 1.125 18 1.125Z" fill="#ED4C5C"/>
<path d="M18 1.125C8.6625 1.125 1.125 8.6625 1.125 18H18V1.125Z" fill="#2A5F9E"/>
<path d="M13.5 11.4187L16.3125 10.6875L13.5 9.95625L15.5813 7.875L12.7688 8.60625L13.5 5.79375L11.4187 7.875L10.6875 5.0625L9.95625 7.875L7.875 5.79375L8.60625 8.60625L5.79375 7.875L7.875 9.95625L5.0625 10.6875L7.875 11.4187L5.79375 13.5L8.60625 12.7688L7.875 15.5813L9.95625 13.5L10.6875 16.3125L11.4187 13.5L13.5 15.5813L12.7688 12.7688L15.5813 13.5L13.5 11.4187Z" fill="white"/>
<path d="M10.6877 13.8939C12.4585 13.8939 13.8939 12.4585 13.8939 10.6877C13.8939 8.91693 12.4585 7.48145 10.6877 7.48145C8.91693 7.48145 7.48145 8.91693 7.48145 10.6877C7.48145 12.4585 8.91693 13.8939 10.6877 13.8939Z" fill="#428BC1"/>
<path d="M10.6875 13.5C12.2408 13.5 13.5 12.2408 13.5 10.6875C13.5 9.1342 12.2408 7.875 10.6875 7.875C9.1342 7.875 7.875 9.1342 7.875 10.6875C7.875 12.2408 9.1342 13.5 10.6875 13.5Z" fill="white"/>
</svg>
