<svg width="36" height="36" viewBox="0 0 36 36" fill="none" xmlns="http://www.w3.org/2000/svg">
<path d="M1.06885 17.9998C1.06885 25.3686 5.79385 31.6123 12.3188 33.9186V2.08105C5.79385 4.3873 1.06885 10.6311 1.06885 17.9998Z" fill="#428BC1"/>
<path d="M34.8188 17.9998C34.8188 10.6311 30.1501 4.3873 23.5688 2.08105V33.9186C30.1501 31.6123 34.8188 25.3686 34.8188 17.9998Z" fill="#ED4C5C"/>
<path d="M12.3188 33.9188C14.0626 34.5375 15.9751 34.875 17.9438 34.875C19.9126 34.875 21.8251 34.5375 23.5688 33.9188V2.08125C21.8251 1.4625 19.9688 1.125 17.9438 1.125C15.9188 1.125 14.0626 1.4625 12.3188 2.08125V33.9188Z" fill="white"/>
</svg>
