<svg width="36" height="36" viewBox="0 0 36 36" fill="none" xmlns="http://www.w3.org/2000/svg">
<path d="M17.9998 1.125C10.6311 1.125 4.3873 5.85 2.08105 12.375H33.9186C31.6123 5.85 25.3686 1.125 17.9998 1.125Z" fill="#ED4C5C"/>
<path d="M17.9998 34.875C25.3686 34.875 31.6123 30.2062 33.9186 23.625H2.08105C4.3873 30.2062 10.6311 34.875 17.9998 34.875Z" fill="#428BC1"/>
<path d="M2.08125 12.375C1.4625 14.1187 1.125 16.0312 1.125 18C1.125 19.9688 1.4625 21.8813 2.08125 23.625H33.9188C34.5375 21.8813 34.875 19.9688 34.875 18C34.875 16.0312 34.5375 14.1187 33.9188 12.375H2.08125Z" fill="#F9F9F9"/>
<path d="M24.1313 14.175L25.5938 10.8L24.4688 9L22.6125 9.675L21.3188 8.15625L19.575 9.16875L18 7.875L16.425 9.16875L14.6813 8.15625L13.3875 9.675L11.5312 9L10.4062 10.8562L11.8688 14.2312C13.725 13.3875 15.8063 12.9375 18 12.9375C20.1938 12.825 22.275 13.3313 24.1313 14.175Z" fill="white"/>
<path d="M19.5189 9.28071L18.0002 8.04321L16.4814 9.28071L16.7627 12.7682C17.1564 12.712 17.6064 12.712 18.0002 12.712C18.3939 12.712 18.8439 12.712 19.2377 12.7682L19.5189 9.28071Z" fill="#428BC1"/>
<path d="M17.9998 28.1245C21.4873 28.1245 24.3561 25.2557 24.3561 21.7682V14.2307H11.6436V21.7682C11.6436 25.2557 14.5123 28.1245 17.9998 28.1245Z" fill="#ED4C5C"/>
<path d="M18.0001 28.0125C21.4313 28.0125 24.2438 25.2 24.2438 21.7688V14.3438H11.7563V21.7688C11.7563 25.2 14.5688 28.0125 18.0001 28.0125Z" fill="white"/>
<path d="M14.4002 14.5684H11.9814V17.2121H14.4002V14.5684Z" fill="#ED4C5C"/>
<path d="M14.4004 19.8564H16.8191V17.2126H14.4004V19.8564Z" fill="#ED4C5C"/>
<path d="M11.9814 21.768C11.9814 21.993 11.9814 22.218 12.0377 22.4992H14.4002V19.8555H11.9814V21.768Z" fill="#ED4C5C"/>
<path d="M19.1814 19.8555H16.7627V22.4992H19.1814V19.8555Z" fill="#ED4C5C"/>
<path d="M19.1816 25.1437H21.6004V22.5H19.1816V25.1437Z" fill="#ED4C5C"/>
<path d="M21.6001 26.5501C22.1063 26.1564 22.6126 25.6501 22.9501 25.0876H21.6001V26.5501Z" fill="#ED4C5C"/>
<path d="M14.4004 25.1437H16.8191V22.5H14.4004V25.1437Z" fill="#ED4C5C"/>
<path d="M13.0503 25.1428C13.444 25.7053 13.894 26.1553 14.4003 26.6053V25.1428H13.0503Z" fill="#ED4C5C"/>
<path d="M18.3939 27.7314C18.6752 27.7314 18.9002 27.6751 19.1814 27.6189V25.0876H16.7627V27.6189C17.0439 27.6751 17.2689 27.7314 17.5502 27.7314C17.8314 27.7876 18.1127 27.7876 18.3939 27.7314Z" fill="#ED4C5C"/>
<path d="M23.9626 22.4992C23.9626 22.2742 24.0188 22.0492 24.0188 21.768V19.8555H21.6001V22.4992H23.9626Z" fill="#ED4C5C"/>
<path d="M19.1816 19.8564H21.6004V17.2126H19.1816V19.8564Z" fill="#ED4C5C"/>
<path d="M19.1814 14.5684H16.7627V17.2121H19.1814V14.5684Z" fill="#ED4C5C"/>
<path d="M23.9627 17.2121V14.5684H21.5439V17.2121H23.9627Z" fill="#ED4C5C"/>
<path d="M13.4436 9.78804L11.5873 9.11304L10.5186 10.8005L10.9123 11.7005L11.9248 14.0068C12.6561 13.6693 13.4436 13.388 14.2873 13.2193L13.4436 9.78804Z" fill="#428BC1"/>
<path d="M13.3311 11.4746C13.3873 11.5871 13.4436 11.7559 13.4436 11.9246C13.4436 12.4309 13.0498 12.8246 12.5436 12.8246C12.0936 12.8246 11.7561 12.4871 11.6436 12.0934C11.8123 12.3746 12.0936 12.5434 12.4311 12.5434C12.9373 12.5434 13.3311 12.1496 13.3311 11.6434V11.4746Z" fill="white"/>
<path d="M12.4875 10.1809V10.2371L12.4312 10.5746L12.7125 10.7434V10.7996H12.6562L12.375 10.9121L12.3187 11.1934V11.2496L12.2625 11.1934L12.0375 11.0246L11.7 11.1371V11.0809L11.7562 10.7996L11.5312 10.5746V10.5184L11.8688 10.4059L11.925 10.1246V10.0684V10.1246L12.15 10.2934L12.4875 10.2371V10.1809Z" fill="#FFE62E"/>
<path d="M16.4813 9.28071L14.7376 8.32446L13.4438 9.78696L14.2876 13.162C15.0751 12.937 15.9188 12.8245 16.7626 12.7682L16.4813 9.28071Z" fill="#2A5F9E"/>
<path d="M14.0624 12.3188C14.9062 12.0938 15.7499 11.9813 16.6499 11.8688L16.5937 10.9688C15.6374 11.025 14.7374 11.1937 13.8374 11.4187L14.0624 12.3188Z" fill="#ED4C5C"/>
<path d="M13.6688 10.6313C14.6251 10.4063 15.5813 10.2375 16.5376 10.125L16.4813 9.28125C15.4688 9.39375 14.4563 9.5625 13.4438 9.7875L13.6688 10.6313Z" fill="#ED4C5C"/>
<path d="M18.0004 10.8555C17.8879 10.8555 17.7191 11.2492 17.4941 10.968C17.4941 10.968 17.6629 11.193 17.6629 11.3055L17.4941 11.2492C17.4941 12.4305 18.5629 12.3742 18.5629 11.2492L18.3941 11.3055C18.3941 11.2492 18.5629 10.968 18.5629 10.968C18.2816 11.2492 18.1691 10.9117 18.0004 10.8555Z" fill="#FFE62E"/>
<path d="M18.6752 9.22461C18.5627 9.22461 18.3939 9.61836 18.1689 9.33711C18.1689 9.33711 18.3377 9.56211 18.3377 9.67461L18.1689 9.61836C18.1689 10.7996 19.2377 10.7434 19.2377 9.61836L19.0689 9.67461C19.0689 9.61836 19.2377 9.33711 19.2377 9.33711C19.0127 9.61836 18.8439 9.22461 18.6752 9.22461Z" fill="#FFE62E"/>
<path d="M17.2689 9.22461C17.1564 9.22461 16.9877 9.61836 16.7627 9.33711C16.7627 9.33711 16.9314 9.56211 16.9314 9.67461L16.7627 9.61836C16.7627 10.7996 17.8314 10.7434 17.8314 9.61836L17.6627 9.67461C17.6627 9.61836 17.8314 9.33711 17.8314 9.33711C17.6064 9.61836 17.4377 9.22461 17.2689 9.22461Z" fill="#FFE62E"/>
<path d="M22.5561 9.78804L21.2623 8.26929L19.5186 9.28179L19.2373 12.7693C20.0811 12.8255 20.9248 12.9943 21.7123 13.163L22.5561 9.78804Z" fill="#2A5F9E"/>
<path d="M19.8561 10.0129H20.0249C20.1374 10.0691 20.1374 10.0129 20.1936 9.95664C20.3061 9.90039 20.6436 9.84414 20.9811 10.0129C21.0374 10.0691 21.3749 10.0691 21.3749 10.0691C21.3749 10.0691 21.0936 10.1816 20.8124 10.0691C20.9249 10.1254 20.9811 10.2379 21.0936 10.2941C21.1499 10.2941 21.5436 10.4066 21.5436 10.4066C21.5436 10.4066 21.2061 10.5754 20.9811 10.4066C20.8124 10.2379 20.6436 10.0691 20.3624 10.1254L20.5311 10.1816C20.4749 10.2379 20.3061 10.2941 20.2499 10.2379C20.2499 10.4066 20.8124 10.9691 21.4874 10.8004C21.7686 10.6879 21.5999 10.9129 21.5436 11.0254C21.4874 11.0816 21.2624 12.3191 20.6436 12.0379C20.6436 12.0379 20.9811 11.9254 20.9811 11.7004L20.8686 11.5879C20.6436 11.5879 20.4749 12.2629 20.1936 11.9254C20.1936 11.9254 20.5311 11.7566 20.4749 11.4754H20.2499C20.0811 11.5316 20.1374 12.1504 19.7999 11.9816C19.7999 11.9816 20.1936 11.4191 19.9686 11.4191C19.9124 11.5316 19.7999 11.6441 19.7999 11.7566C19.9124 11.8691 19.5186 11.8691 19.5749 11.7566C19.5749 11.7004 19.8561 11.4191 19.7999 11.1379C19.6874 11.0816 19.7999 10.5754 19.8561 10.4629C19.5186 10.4629 19.7436 10.3504 19.7999 10.1254C19.9124 10.1254 19.8561 10.1254 19.8561 10.0129Z" fill="#FFE62E"/>
<path d="M24.0749 14.0068L25.4812 10.8005L24.4124 9.11304L22.5562 9.78804L21.7124 13.163C22.4999 13.388 23.2874 13.6693 24.0749 14.0068Z" fill="#428BC1"/>
<path d="M22.275 11.0254C23.2312 11.2504 24.1313 11.5879 24.975 11.9816L24.4125 13.2191C23.625 12.8816 22.7813 12.6004 21.9375 12.3754L22.275 11.0254Z" fill="white"/>
<path d="M24.4687 12.9937L24.8062 12.15C23.9625 11.7563 23.0625 11.475 22.1625 11.25L21.9375 12.0937C22.8375 12.3187 23.6812 12.6 24.4687 12.9937Z" fill="#ED4C5C"/>
<path d="M23.6248 9.78804L23.6811 10.1255L23.4561 10.3505L23.7936 10.463L23.8498 10.8005L24.1311 10.5755L24.4686 10.688L24.4123 10.3505L24.6373 10.1255L24.2998 10.013L24.2436 9.67554L24.0186 9.90054L23.6248 9.78804Z" fill="#FFE62E"/>
</svg>
