<svg width="36" height="36" viewBox="0 0 36 36" fill="none" xmlns="http://www.w3.org/2000/svg">
<path d="M34.425 14.0625C32.625 6.6375 25.9875 1.125 18 1.125H17.4375V14.0625H34.425Z" fill="#428BC1"/>
<path d="M9.56269 3.375C5.62519 5.68125 2.7002 9.50625 1.5752 14.0625H9.56269V3.375Z" fill="#428BC1"/>
<path d="M1.5752 21.9375C2.7002 26.4938 5.62519 30.3188 9.56269 32.625V21.9375H1.5752Z" fill="#428BC1"/>
<path d="M17.4375 34.875H18C25.9875 34.875 32.625 29.3625 34.425 21.9375H17.4375V34.875Z" fill="#428BC1"/>
<path d="M34.425 14.0625H17.4375V1.125C14.5688 1.2375 11.8687 2.025 9.5625 3.375V14.0625H1.575C1.29375 15.3 1.125 16.65 1.125 18C1.125 19.35 1.29375 20.7 1.575 21.9375H9.5625V32.625C11.8687 33.975 14.5688 34.7625 17.4375 34.875V21.9375H34.425C34.7062 20.7 34.875 19.35 34.875 18C34.875 16.65 34.7062 15.3 34.425 14.0625Z" fill="#FFE62E"/>
</svg>
