<svg width="36" height="36" viewBox="0 0 36 36" fill="none" xmlns="http://www.w3.org/2000/svg">
<path d="M18 34.875C27.3198 34.875 34.875 27.3198 34.875 18C34.875 8.68019 27.3198 1.125 18 1.125C8.68019 1.125 1.125 8.68019 1.125 18C1.125 27.3198 8.68019 34.875 18 34.875Z" fill="#F5F5F5"/>
<path d="M13.1627 18.9558C14.7377 20.0245 16.9315 19.5745 18.0002 17.9995C19.069 16.4245 21.2065 15.9745 22.8377 17.0433C24.3565 18.0558 24.8065 20.0245 23.9627 21.5433C25.819 18.3933 24.9752 14.287 21.8252 12.2058C18.619 10.0683 14.2877 10.912 12.1502 14.1183C12.094 14.2308 12.0377 14.3433 11.9815 14.3995C11.194 16.0308 11.7002 17.9433 13.1627 18.9558Z" fill="#ED4C5C"/>
<path d="M23.7939 21.8809C23.8502 21.7684 23.9064 21.6559 23.9627 21.5996C23.9064 21.6559 23.8502 21.7684 23.7939 21.8809Z" fill="#003478"/>
<path d="M22.8373 17.0443C21.2623 15.9755 19.0685 16.4255 17.9998 18.0005C16.931 19.5755 14.7935 20.0255 13.1623 18.9568C11.6435 17.9443 11.1935 15.9755 12.0373 14.4568C10.1248 17.6068 11.0248 21.713 14.1748 23.7943C17.381 25.9318 21.7123 25.088 23.8498 21.8818C23.906 21.7693 23.9623 21.6568 24.0185 21.6005C24.806 19.9693 24.2998 18.0568 22.8373 17.0443Z" fill="#428BC1"/>
<path d="M4.3876 13.1066L8.26885 7.31289L7.8751 7.03164L7.48135 6.80664L3.6001 12.6004L3.99385 12.8254L4.3876 13.1066Z" fill="#3E4347"/>
<path d="M5.45625 13.8384L5.85 14.0634L9.675 8.26968L9.3375 8.04468L8.94375 7.76343L5.0625 13.5572L5.45625 13.8384Z" fill="#3E4347"/>
<path d="M10.3499 8.71875L6.5249 14.5125L6.91865 14.7937L7.3124 15.0188L11.1374 9.225L10.7437 9L10.3499 8.71875Z" fill="#3E4347"/>
<path d="M27.2814 23.9072L27.6752 24.1884L29.4752 21.4884L29.0814 21.2072L28.6877 20.9822L26.8877 23.6822L27.2814 23.9072Z" fill="#3E4347"/>
<path d="M31.6125 22.8945L29.8125 25.5945L30.2063 25.8758L30.6 26.1008L32.4 23.4008L32.0063 23.1758L31.6125 22.8945Z" fill="#3E4347"/>
<path d="M29.1376 25.1437L30.9376 22.4438L30.5438 22.1625L30.1501 21.9375L28.3501 24.6375L28.7438 24.8625L29.1376 25.1437Z" fill="#3E4347"/>
<path d="M27.0565 24.3009L26.6628 24.0759L24.8628 26.7759L25.2565 27.0009L25.6503 27.2822L27.4503 24.5822L27.0565 24.3009Z" fill="#3E4347"/>
<path d="M28.4627 25.2563L28.1252 25.0312L26.3252 27.7312L26.6627 27.9562L27.0564 28.2375L28.8564 25.5375L28.4627 25.2563Z" fill="#3E4347"/>
<path d="M29.5314 25.9883L27.7314 28.6883L28.1252 28.9695L28.5189 29.1945L30.3189 26.4945L29.9252 26.2133L29.5314 25.9883Z" fill="#3E4347"/>
<path d="M3.99385 23.1758L3.6001 23.4008L7.48135 29.1945L7.8751 28.9695L8.26885 28.6883L4.3876 22.8945L3.99385 23.1758Z" fill="#3E4347"/>
<path d="M7.53779 25.2563L7.14404 25.5375L8.94404 28.2375L9.33779 27.9562L9.67529 27.7312L7.87529 25.0312L7.53779 25.2563Z" fill="#3E4347"/>
<path d="M6.91865 21.2072L6.5249 21.4884L10.3499 27.2822L10.7437 27.0009L11.1374 26.7759L7.3124 20.9822L6.91865 21.2072Z" fill="#3E4347"/>
<path d="M5.0625 22.4438L6.8625 25.1437L7.25625 24.8625L7.65 24.6375L5.85 21.9375L5.45625 22.1625L5.0625 22.4438Z" fill="#3E4347"/>
<path d="M29.9252 9.78789L30.3189 9.50664L28.5189 6.80664L28.1252 7.03164L27.7314 7.31289L29.5314 10.0129L29.9252 9.78789Z" fill="#3E4347"/>
<path d="M27.0565 11.7L27.4503 11.4187L25.6503 8.71875L25.2565 9L24.8628 9.225L26.6628 11.925L27.0565 11.7Z" fill="#3E4347"/>
<path d="M29.8125 10.4066L31.6125 13.1066L32.0063 12.8254L32.4 12.6004L30.6 9.90039L30.2063 10.1254L29.8125 10.4066Z" fill="#3E4347"/>
<path d="M30.5439 13.8384L30.9377 13.5572L27.0564 7.76343L26.6627 8.04468L26.3252 8.26968L30.1502 14.0634L30.5439 13.8384Z" fill="#3E4347"/>
<path d="M29.0814 14.7937L29.4752 14.5125L27.6752 11.8125L27.2814 12.0938L26.8877 12.3187L28.6877 15.0188L29.0814 14.7937Z" fill="#3E4347"/>
</svg>
