<svg width="36" height="36" viewBox="0 0 36 36" fill="none" xmlns="http://www.w3.org/2000/svg">
<path d="M31.5 7.875H18V11.25H33.4688C32.9625 10.0688 32.2875 8.8875 31.5 7.875Z" fill="#428BC1"/>
<path d="M18 7.875H31.5C30.5437 6.58125 29.4187 5.45625 28.125 4.5H18V7.875Z" fill="#F9F9F9"/>
<path d="M33.4688 11.25H18V14.625H34.5375C34.3125 13.4438 33.9187 12.3188 33.4688 11.25Z" fill="#F9F9F9"/>
<path d="M2.53115 24.75H33.4687C33.9187 23.6813 34.3124 22.5562 34.5374 21.375H1.4624C1.6874 22.5562 2.08115 23.6813 2.53115 24.75Z" fill="#428BC1"/>
<path d="M4.5 28.125H31.5C32.2875 27.1125 32.9625 25.9312 33.4688 24.75H2.53125C3.0375 25.9312 3.7125 27.1125 4.5 28.125Z" fill="#F9F9F9"/>
<path d="M4.5 28.125C5.45625 29.4187 6.58125 30.5438 7.875 31.5H28.125C29.4188 30.5438 30.5438 29.4187 31.5 28.125H4.5Z" fill="#428BC1"/>
<path d="M7.875 31.5C10.6875 33.6375 14.175 34.875 18 34.875C21.825 34.875 25.3125 33.6375 28.125 31.5H7.875Z" fill="#F9F9F9"/>
<path d="M11.25 18V11.25H18V7.875H11.25V2.53125C10.0688 3.0375 8.8875 3.7125 7.875 4.5V7.875H4.5C3.7125 8.8875 3.0375 10.0687 2.53125 11.25H7.875V18H1.125C1.125 19.1812 1.2375 20.3062 1.4625 21.375H34.5375C34.7625 20.3062 34.875 19.1812 34.875 18H11.25Z" fill="#F9F9F9"/>
<path d="M34.5375 14.625H18V11.25H11.25V18H34.875C34.875 16.8187 34.7625 15.6937 34.5375 14.625Z" fill="#428BC1"/>
<path d="M18 1.125C15.5812 1.125 13.3312 1.63125 11.25 2.53125V7.875H18V4.5H28.125C25.3125 2.3625 21.825 1.125 18 1.125Z" fill="#428BC1"/>
<path d="M7.875 7.875V4.5C6.58125 5.45625 5.45625 6.58125 4.5 7.875H7.875Z" fill="#428BC1"/>
<path d="M2.53125 11.25C1.63125 13.3312 1.125 15.5812 1.125 18H7.875V11.25H2.53125Z" fill="#428BC1"/>
</svg>
