<svg width="36" height="36" viewBox="0 0 36 36" fill="none" xmlns="http://www.w3.org/2000/svg">
<path d="M18 34.875C27.3198 34.875 34.875 27.3198 34.875 18C34.875 8.68019 27.3198 1.125 18 1.125C8.68019 1.125 1.125 8.68019 1.125 18C1.125 27.3198 8.68019 34.875 18 34.875Z" fill="#ED4C5C"/>
<path d="M12.375 15.975L16.875 19.125L15.1875 13.95L19.6875 10.6875H14.1188L12.375 5.625L10.6875 10.6875H5.0625L9.5625 13.95L7.875 19.125L12.375 15.975Z" fill="#FFE62E"/>
<path d="M19.8562 19.8562L18.5625 20.1375L19.8 20.6438V21.9375L20.6438 20.9812L21.8813 21.4312L21.15 20.3625L21.9375 19.35L20.6438 19.6313L19.8562 18.5625V19.8562Z" fill="#FFE62E"/>
<path d="M21.7688 16.0312L20.8125 16.875L22.1062 16.7625L22.6687 18L22.8938 16.7063L24.1875 16.5938L23.0625 15.9187L23.3438 14.625L22.3875 15.4688L21.2625 14.7937L21.7688 16.0312Z" fill="#FFE62E"/>
<path d="M22.1062 11.6438L22.5 12.9375L22.8938 11.7H24.1875L23.175 10.9125L23.5688 9.61875L22.5 10.4062L21.4875 9.5625L21.8813 10.8562L20.8125 11.5875L22.1062 11.6438Z" fill="#FFE62E"/>
<path d="M19.8562 7.14375V8.4375L20.6438 7.36875L21.9375 7.65L21.15 6.6375L21.8813 5.56875L20.6438 6.075L19.8 5.0625V6.35625L18.5625 6.8625L19.8562 7.14375Z" fill="#FFE62E"/>
</svg>
