<svg width="36" height="36" viewBox="0 0 36 36" fill="none" xmlns="http://www.w3.org/2000/svg">
<path d="M29.306 5.625C26.2685 2.8125 22.2747 1.125 17.831 1.125C13.3872 1.125 9.39346 2.8125 6.35596 5.625H29.306Z" fill="#F9F9F9"/>
<path d="M6.35596 30.375C9.39346 33.1875 13.3872 34.875 17.831 34.875C22.2747 34.875 26.2685 33.1875 29.306 30.375H6.35596Z" fill="#F9F9F9"/>
<path d="M0.956055 18C0.956055 20.4187 1.4623 22.6687 2.3623 24.75H33.2998C34.1998 22.6687 34.7061 20.4187 34.7061 18C34.7061 15.5812 34.1998 13.3312 33.2998 11.25H2.3623C1.4623 13.3312 0.956055 15.5812 0.956055 18Z" fill="#F9F9F9"/>
<path d="M6.4123 30.375H29.3061C30.9936 28.8 32.3998 26.8875 33.2998 24.75H2.3623C3.31855 26.8875 4.7248 28.8 6.4123 30.375Z" fill="#428BC1"/>
<path d="M29.306 5.625H6.41221C4.72471 7.2 3.31846 9.1125 2.41846 11.25H33.356C32.3997 9.1125 30.9935 7.2 29.306 5.625Z" fill="#428BC1"/>
<path d="M22.8936 15.1875H19.5186L17.8311 12.375L16.1436 15.1875H12.7686L14.4561 18L12.7686 20.8125H16.1436L17.8311 23.625L19.5186 20.8125H22.8936L21.2061 18L22.8936 15.1875ZM17.8311 14.0062L18.5623 15.1875H17.1561L17.8311 14.0062ZM14.2873 16.0312H15.6936L15.0186 17.2125L14.2873 16.0312ZM14.2873 19.9688L14.9623 18.7875L15.6373 19.9688H14.2873ZM17.8311 21.9937L17.1561 20.8125H18.5623L17.8311 21.9937ZM19.0686 19.9688H16.7061L15.4686 18L16.6498 16.0312H19.0123L20.2498 18L19.0686 19.9688ZM21.4311 19.9688H20.0248L20.6998 18.7875L21.4311 19.9688ZM20.7561 17.1562L20.0811 15.975H21.4873L20.7561 17.1562Z" fill="#428BC1"/>
</svg>
