<svg width="36" height="36" viewBox="0 0 36 36" fill="none" xmlns="http://www.w3.org/2000/svg">
<path d="M18 34.875C27.3375 34.875 34.875 27.3375 34.875 18H1.125C1.125 27.3375 8.6625 34.875 18 34.875Z" fill="#F9F9F9"/>
<path d="M18 1.125C8.6625 1.125 1.125 8.6625 1.125 18H34.875C34.875 8.6625 27.3375 1.125 18 1.125Z" fill="#ED4C5C"/>
<path d="M11.925 9.84375L11.25 9.28125H12.0938L12.375 8.4375L12.6562 9.28125H13.5L12.825 9.84375L13.05 10.6875L12.375 10.1813L11.7 10.6875L11.925 9.84375Z" fill="#F9F9F9"/>
<path d="M16.425 9.84375L15.75 9.28125H16.5938L16.875 8.4375L17.1562 9.28125H18L17.325 9.84375L17.55 10.6875L16.875 10.1813L16.2 10.6875L16.425 9.84375Z" fill="#F9F9F9"/>
<path d="M12.4875 12.6562L11.8125 12.0938H12.6562L12.9375 11.25L13.2188 12.0938H14.0625L13.3875 12.6562L13.6125 13.5L12.9375 12.9938L12.2625 13.5L12.4875 12.6562Z" fill="#F9F9F9"/>
<path d="M15.8625 12.6562L15.1875 12.0938H16.0312L16.3125 11.25L16.5938 12.0938H17.4375L16.7625 12.6562L16.9875 13.5L16.3125 12.9938L15.6375 13.5L15.8625 12.6562Z" fill="#F9F9F9"/>
<path d="M14.175 8.15625L13.5 7.59375H14.3438L14.625 6.75L14.9062 7.59375H15.75L15.075 8.15625L15.3 9L14.625 8.49375L13.95 9L14.175 8.15625Z" fill="#F9F9F9"/>
<path d="M13.725 15.75C11.025 15.75 8.8875 13.4437 8.8875 10.6312C8.8875 7.81875 11.0812 5.5125 13.725 5.5125C13.95 5.5125 14.1187 5.5125 14.2875 5.56875C13.6125 5.23125 12.8812 5.0625 12.0938 5.0625C9.16875 5.0625 6.75 7.59375 6.75 10.6875C6.75 13.7812 9.16875 16.3125 12.0938 16.3125C12.9938 16.3125 13.8938 16.0875 14.625 15.6375C14.3438 15.6937 14.0625 15.75 13.725 15.75Z" fill="#F9F9F9"/>
</svg>
