<svg width="36" height="36" viewBox="0 0 36 36" fill="none" xmlns="http://www.w3.org/2000/svg">
<path d="M18 34.875C27.3198 34.875 34.875 27.3198 34.875 18C34.875 8.68019 27.3198 1.125 18 1.125C8.68019 1.125 1.125 8.68019 1.125 18C1.125 27.3198 8.68019 34.875 18 34.875Z" fill="#ED4C5C"/>
<path d="M23.2312 21.9375L23.2875 18.9L20.25 18L23.2875 17.1L23.2312 14.0625L25.0875 16.4812L28.125 15.5813L26.2688 18L28.125 20.4187L25.0875 19.5188L23.2312 21.9375Z" fill="white"/>
<path d="M18.675 24.75C14.9625 24.75 11.9812 21.7125 11.9812 18C11.9812 14.2875 14.9625 11.25 18.675 11.25C20.0813 11.25 21.375 11.7 22.5 12.4313C20.9812 10.6875 18.7312 9.5625 16.2 9.5625C11.5875 9.5625 7.875 13.3312 7.875 18C7.875 22.6687 11.5875 26.4375 16.2 26.4375C18.7312 26.4375 20.9812 25.3125 22.5 23.5688C21.4312 24.3 20.1375 24.75 18.675 24.75Z" fill="white"/>
</svg>
