<svg width="36" height="36" viewBox="0 0 36 36" fill="none" xmlns="http://www.w3.org/2000/svg">
<path d="M0.956055 17.9998C0.956055 25.3686 5.68105 31.6123 12.2061 33.9186V2.08105C5.68105 4.3873 0.956055 10.6311 0.956055 17.9998Z" fill="#75A843"/>
<path d="M34.7061 17.9998C34.7061 10.6311 29.9811 4.3873 23.4561 2.08105V33.9186C30.0373 31.6123 34.7061 25.3686 34.7061 17.9998Z" fill="#ED4C5C"/>
<path d="M12.2061 33.9188C13.9498 34.5375 15.8623 34.875 17.8311 34.875C19.7998 34.875 21.7123 34.5375 23.4561 33.9188V2.08125C21.7123 1.4625 19.7998 1.125 17.8311 1.125C15.8623 1.125 13.9498 1.4625 12.2061 2.08125V33.9188Z" fill="white"/>
</svg>
