<svg width="36" height="36" viewBox="0 0 36 36" fill="none" xmlns="http://www.w3.org/2000/svg">
<path d="M34.7065 15.75C34.6502 15.1875 34.5377 14.625 34.4252 14.0625H1.5752C1.4627 14.625 1.3502 15.1875 1.29395 15.75H34.7065Z" fill="white"/>
<path d="M1.29395 20.25C1.3502 20.8125 1.4627 21.375 1.5752 21.9375H34.3689C34.4814 21.375 34.5939 20.8125 34.6502 20.25H1.29395Z" fill="white"/>
<path d="M11.25 2.53125C10.6875 2.75625 10.125 3.09375 9.5625 3.375V32.625C10.125 32.9625 10.6875 33.2437 11.25 33.4688V2.53125Z" fill="white"/>
<path d="M15.75 1.29375V34.7625L17.4375 34.9312V1.125C16.875 1.125 16.3125 1.18125 15.75 1.29375Z" fill="white"/>
<path d="M1.125 18C1.125 18.7875 1.18125 19.5187 1.29375 20.25H34.7625C34.875 19.5187 34.9312 18.7875 34.9312 18C34.9312 17.2125 34.875 16.4812 34.7625 15.75H1.29375C1.18125 16.4812 1.125 17.2125 1.125 18Z" fill="#428BC1"/>
<path d="M11.25 33.4682C12.6562 34.087 14.175 34.537 15.75 34.7057V1.29321C14.175 1.51821 12.6562 1.91196 11.25 2.53071V33.4682Z" fill="#428BC1"/>
<path d="M9.56269 14.0625V3.375C5.62519 5.68125 2.7002 9.50625 1.5752 14.0625H9.56269Z" fill="#ED4C5C"/>
<path d="M9.56269 21.9375V32.625C5.62519 30.3188 2.7002 26.4938 1.5752 21.9375H9.56269Z" fill="#ED4C5C"/>
<path d="M18 1.125H17.4375V14.0625H34.425C32.625 6.6375 25.9875 1.125 18 1.125Z" fill="#ED4C5C"/>
<path d="M17.4375 21.9375V34.875H18C25.9875 34.875 32.625 29.3625 34.425 21.9375H17.4375Z" fill="#ED4C5C"/>
</svg>
