<svg width="36" height="36" viewBox="0 0 36 36" fill="none" xmlns="http://www.w3.org/2000/svg">
<path d="M31.5 7.875H18V11.25H33.4688C32.9625 10.0688 32.2875 8.8875 31.5 7.875Z" fill="#ED4C5C"/>
<path d="M34.5375 21.375C34.7625 20.3063 34.875 19.1812 34.875 18H1.125C1.125 19.1812 1.2375 20.3063 1.4625 21.375H34.5375Z" fill="#F9F9F9"/>
<path d="M18 1.125V4.5H28.125C25.3125 2.3625 21.825 1.125 18 1.125Z" fill="#ED4C5C"/>
<path d="M18 7.875H31.5C30.5437 6.58125 29.4187 5.45625 28.125 4.5H18V7.875Z" fill="#F9F9F9"/>
<path d="M33.4688 11.25H18V14.625H34.5375C34.3125 13.4438 33.9187 12.3188 33.4688 11.25Z" fill="#F9F9F9"/>
<path d="M18 14.625V18H34.875C34.875 16.8188 34.7625 15.6938 34.5375 14.625H18Z" fill="#ED4C5C"/>
<path d="M2.53115 24.75H33.4687C33.9187 23.6813 34.3124 22.5562 34.5374 21.375H1.4624C1.6874 22.5562 2.08115 23.6813 2.53115 24.75Z" fill="#ED4C5C"/>
<path d="M4.5 28.125H31.5C32.2875 27.1125 32.9625 25.9312 33.4688 24.75H2.53125C3.0375 25.9312 3.7125 27.1125 4.5 28.125Z" fill="#F9F9F9"/>
<path d="M4.5 28.125C5.45625 29.4187 6.58125 30.5438 7.875 31.5H28.125C29.4188 30.5438 30.5438 29.4187 31.5 28.125H4.5Z" fill="#ED4C5C"/>
<path d="M7.875 31.5C10.6875 33.6375 14.175 34.875 18 34.875C21.825 34.875 25.3125 33.6375 28.125 31.5H7.875Z" fill="#F9F9F9"/>
<path d="M18 1.125C8.6625 1.125 1.125 8.6625 1.125 18H18V1.125Z" fill="#2A5F9E"/>
<path d="M11.1937 14.4C9.50625 14.4 8.1 12.9938 8.1 11.25C8.1 9.50625 9.50625 8.1 11.1937 8.1C11.8687 8.1 12.4313 8.325 12.9375 8.6625C12.2063 7.81875 11.1937 7.3125 10.0125 7.3125C7.875 7.3125 6.1875 9.05625 6.1875 11.25C6.1875 13.4437 7.93125 15.1875 10.0125 15.1875C11.1937 15.1875 12.2063 14.6813 12.9375 13.8375C12.4313 14.175 11.8125 14.4 11.1937 14.4Z" fill="#FFE62E"/>
<path d="M14.625 10.575L15.0188 9.5625L14.9062 10.6312L15.6937 9.9L15.1312 10.8562L16.1438 10.5188L15.2438 11.0813L16.3125 11.25L15.2438 11.4187L16.1438 11.9812L15.1312 11.6438L15.6937 12.6L14.9062 11.8688L15.0188 12.9375L14.625 11.925L14.2312 12.9375L14.3438 11.8688L13.5563 12.6L14.1188 11.6438L13.1062 11.9812L14.0062 11.4187L12.9375 11.25L14.0062 11.0813L13.1062 10.5188L14.1188 10.8562L13.5563 9.9L14.3438 10.6312L14.2312 9.5625L14.625 10.575Z" fill="#FFE62E"/>
</svg>
