<svg width="36" height="36" viewBox="0 0 36 36" fill="none" xmlns="http://www.w3.org/2000/svg">
<path d="M1.0127 17.9998C1.0127 25.3686 5.7377 31.6123 12.2627 33.9186V2.08105C5.68145 4.3873 1.0127 10.6311 1.0127 17.9998Z" fill="#83BF4F"/>
<path d="M34.7627 17.9998C34.7627 10.6311 30.0377 4.3873 23.5127 2.08105V33.9186C30.0377 31.6123 34.7627 25.3686 34.7627 17.9998Z" fill="#FF8736"/>
<path d="M12.2627 33.9188C14.0064 34.5375 15.9189 34.875 17.8877 34.875C19.8564 34.875 21.7689 34.5375 23.5127 33.9188V2.08125C21.7127 1.4625 19.8564 1.125 17.8877 1.125C15.9189 1.125 14.0064 1.4625 12.2627 2.08125V33.9188Z" fill="white"/>
</svg>
