<svg width="36" height="36" viewBox="0 0 36 36" fill="none" xmlns="http://www.w3.org/2000/svg">
<path d="M17.9438 34.875C27.2637 34.875 34.8188 27.3198 34.8188 18C34.8188 8.68019 27.2637 1.125 17.9438 1.125C8.62404 1.125 1.06885 8.68019 1.06885 18C1.06885 27.3198 8.62404 34.875 17.9438 34.875Z" fill="#ED4C5C"/>
<path d="M16.8189 15.6381C17.2127 14.6256 18.1689 14.4568 18.6752 13.1631C18.9002 12.6006 18.5064 11.4756 18.7314 10.9131C19.2377 9.61932 20.5314 9.84432 20.5314 9.84432C18.2252 9.00057 15.6377 10.1818 14.7939 12.4318C13.9502 14.6818 15.1314 17.2131 17.4377 18.0006C16.8189 17.3256 16.4814 16.5381 16.8189 15.6381Z" fill="white"/>
<path d="M17.0438 12.4871C17.3234 12.4871 17.5501 12.2605 17.5501 11.9809C17.5501 11.7013 17.3234 11.4746 17.0438 11.4746C16.7643 11.4746 16.5376 11.7013 16.5376 11.9809C16.5376 12.2605 16.7643 12.4871 17.0438 12.4871Z" fill="#ED4C5C"/>
<path d="M14.9065 17.8875C14.0627 17.2125 14.1752 16.2563 13.0502 15.4125C12.544 15.0187 11.3627 15.075 10.8565 14.6813C9.73146 13.8375 10.4065 12.6562 10.4065 12.6562C8.88771 14.5688 9.22521 17.325 11.194 18.7875C13.1065 20.25 15.919 19.9125 17.4377 18.0562C16.5377 18.3937 15.694 18.45 14.9065 17.8875Z" fill="white"/>
<path d="M11.7001 17.1004C11.9797 17.1004 12.2063 16.8737 12.2063 16.5941C12.2063 16.3145 11.9797 16.0879 11.7001 16.0879C11.4205 16.0879 11.1938 16.3145 11.1938 16.5941C11.1938 16.8737 11.4205 17.1004 11.7001 17.1004Z" fill="#ED4C5C"/>
<path d="M16.5376 20.3629C15.6376 20.9816 14.7376 20.5316 13.5563 21.3191C13.0501 21.6566 12.7126 22.7816 12.2063 23.1191C11.0251 23.9066 10.0688 22.9504 10.0688 22.9504C11.4188 24.9754 14.2313 25.4816 16.2563 24.1316C18.2813 22.7816 18.8438 20.0816 17.4938 18.0566C17.5501 19.0129 17.3251 19.8004 16.5376 20.3629Z" fill="white"/>
<path d="M14.0625 22.6686C14.2312 22.4436 14.5687 22.3874 14.7937 22.5561C15.0187 22.7249 15.075 23.0624 14.9062 23.2874C14.7375 23.5124 14.4 23.5686 14.175 23.3999C13.95 23.2311 13.8937 22.8936 14.0625 22.6686Z" fill="#ED4C5C"/>
<path d="M19.4063 19.6313C19.6876 20.6438 19.0126 21.375 19.4063 22.725C19.5751 23.2875 20.5313 23.9625 20.7001 24.5813C21.0938 25.9313 19.8563 26.4938 19.8563 26.4938C22.2188 25.8188 23.5689 23.4 22.8939 21.0938C22.2189 18.7875 19.7438 17.4375 17.3813 18.1125C18.3938 18.2813 19.1251 18.675 19.4063 19.6313Z" fill="white"/>
<path d="M21.1499 22.6133C20.9811 22.3883 21.0374 22.0508 21.2624 21.8821C21.4874 21.7133 21.8249 21.7696 21.9936 21.9946C22.1624 22.2196 22.1061 22.5571 21.8811 22.7258C21.5999 22.9508 21.3186 22.8946 21.1499 22.6133Z" fill="#ED4C5C"/>
<path d="M19.575 16.7064C20.7 16.7627 21.15 17.6064 22.5562 17.6627C23.175 17.6627 24.1313 16.9877 24.75 16.9877C26.1563 17.0439 26.325 18.3377 26.325 18.3377C26.4375 15.9189 24.4688 13.8939 22.05 13.8377C19.575 13.7814 17.55 15.6377 17.4375 18.0564C17.9438 17.2127 18.6187 16.6502 19.575 16.7064Z" fill="white"/>
<path d="M23.2874 16.0316C23.0061 16.1441 22.7249 15.9754 22.6124 15.6941C22.4999 15.4129 22.6686 15.1316 22.9499 15.0191C23.2311 14.9066 23.5124 15.0754 23.6249 15.3566C23.7374 15.6379 23.5686 15.9754 23.2874 16.0316Z" fill="#ED4C5C"/>
</svg>
