<svg width="36" height="36" viewBox="0 0 36 36" fill="none" xmlns="http://www.w3.org/2000/svg">
<path d="M1.125 18C1.125 21.3188 2.08125 24.4125 3.7125 27H32.2313C33.8625 24.4125 34.8188 21.3188 34.8188 18C34.8188 14.6813 33.8625 11.5875 32.2313 9H3.7125C2.08125 11.5875 1.125 14.6813 1.125 18Z" fill="#FFCE31"/>
<path d="M32.2874 9C29.3062 4.275 24.0187 1.125 17.9999 1.125C11.9812 1.125 6.69365 4.275 3.7124 9H32.2874Z" fill="#ED4C5C"/>
<path d="M3.7124 27C6.69365 31.725 11.9812 34.875 17.9999 34.875C24.0187 34.875 29.3062 31.725 32.2874 27H3.7124Z" fill="#ED4C5C"/>
<path d="M5.1748 16.1436H6.9748V17.1561H5.1748V16.1436Z" fill="#C8B100"/>
<path d="M5.1748 23.5684H7.03105V24.5246H5.1748V23.5684Z" fill="#C8B100"/>
<path d="M5.00635 21.9941C4.8376 22.1066 4.7251 22.2191 4.7251 22.2754C4.7251 22.3316 4.78135 22.3879 4.89385 22.4441C5.00635 22.5004 5.11885 22.6129 5.0626 22.7254C5.1751 22.6129 5.23135 22.5004 5.23135 22.3879C5.23135 22.2191 5.11885 22.0504 5.00635 21.9941Z" fill="#ED4C5C"/>
<path d="M5.45605 17.1562H6.7498V23.5688H5.45605V17.1562Z" fill="white"/>
<path d="M8.09986 19.5188C7.81861 19.4063 7.31236 19.2937 6.74986 19.2937C6.58111 19.2937 6.35611 19.2938 6.13111 19.35C5.34361 19.4625 4.72486 19.8 4.78111 20.025L4.49986 19.4062C4.44361 19.125 5.11861 18.7875 5.96236 18.6187C6.24361 18.5625 6.52486 18.5625 6.74986 18.5625C7.31236 18.5625 7.81861 18.6187 8.09986 18.7312V19.5188Z" fill="#ED4C5C"/>
<path d="M5.45615 20.3625C5.11865 20.3625 4.8374 20.25 4.8374 20.0813C4.8374 19.9688 4.9499 19.8 5.1749 19.6875H5.5124L5.45615 20.3625Z" fill="#ED4C5C"/>
<path d="M6.75 19.8564C6.975 19.9127 7.14375 19.9689 7.25625 20.0252C7.3125 20.0814 7.0875 20.3064 6.75 20.4752V19.8564Z" fill="#ED4C5C"/>
<path d="M4.61229 21.6004C4.55604 21.4879 4.94979 21.2629 5.45604 21.0941C5.68104 21.0379 5.84979 20.9254 6.13104 20.8129C6.80604 20.5316 7.36854 20.1379 7.25604 20.0254L7.36854 20.7004C7.42479 20.8129 6.97479 21.1504 6.29979 21.4879C6.07479 21.6004 5.68104 21.7691 5.45604 21.8254C5.06229 21.9379 4.72479 22.1629 4.72479 22.2191L4.61229 21.6004Z" fill="#ED4C5C"/>
<path d="M17.2686 16.1436H19.0686V17.1561H17.2686V16.1436Z" fill="#C8B100"/>
<path d="M17.2124 23.5684H19.0687V24.5246H17.2124V23.5684Z" fill="#C8B100"/>
<path d="M19.2377 21.9941C19.4064 22.1066 19.5189 22.2191 19.5189 22.2754C19.5189 22.3316 19.4627 22.3879 19.3502 22.4441C19.2377 22.5566 19.1252 22.7254 19.1814 22.7816C19.0689 22.6691 19.0127 22.5566 19.0127 22.4441C19.0127 22.2191 19.1252 22.0504 19.2377 21.9941Z" fill="#ED4C5C"/>
<path d="M17.4937 17.1562H18.7874V23.5688H17.4937V17.1562Z" fill="white"/>
<path d="M16.144 19.5188C16.4253 19.4063 16.9315 19.2937 17.494 19.2937C17.6628 19.2937 17.8878 19.2938 18.1128 19.35C18.9003 19.4625 19.519 19.8 19.4628 20.025L19.744 19.35C19.8003 19.0688 19.1253 18.7312 18.2815 18.5625H17.494C16.9315 18.5625 16.4253 18.6187 16.144 18.7312V19.5188Z" fill="#ED4C5C"/>
<path d="M18.7877 20.3625C19.1252 20.3625 19.4064 20.25 19.4064 20.0813C19.4064 19.9688 19.2939 19.8 19.0689 19.6875H18.7314L18.7877 20.3625Z" fill="#ED4C5C"/>
<path d="M17.4939 19.8564C17.2689 19.9127 17.1001 19.9689 16.9876 20.0252C16.9314 20.0814 17.1564 20.3064 17.4939 20.4752V19.8564Z" fill="#ED4C5C"/>
<path d="M19.6316 21.6004C19.6878 21.4879 19.2941 21.2629 18.7878 21.0941C18.5628 21.0379 18.3941 20.9254 18.1128 20.8129C17.4378 20.5316 16.8753 20.1379 16.9878 20.0254L16.8753 20.7004C16.8191 20.8129 17.2691 21.1504 17.9441 21.4879C18.1691 21.6004 18.5628 21.7691 18.7878 21.8254C19.1816 21.9379 19.5191 22.2191 19.4628 22.2754L19.6316 21.6004Z" fill="#ED4C5C"/>
<path d="M12.0939 12.5439C13.1627 12.5439 15.3564 12.7689 16.1439 13.5564C15.3002 15.5814 13.9502 14.7377 12.0939 14.7377C10.2939 14.7377 8.8877 15.5814 8.04395 13.5564C8.83145 12.7689 10.9689 12.5439 12.0939 12.5439Z" fill="#ED4C5C"/>
<path d="M14.8504 14.7937C14.1754 14.4 13.1629 14.3438 12.0941 14.3438C11.0254 14.3438 10.0129 14.4562 9.33789 14.7937L9.56289 15.75C10.1816 15.9188 11.0816 16.0312 12.0941 16.0312C13.1066 16.0312 13.9504 15.9188 14.6254 15.75L14.8504 14.7937Z" fill="#C8B100"/>
<path d="M15.8064 12.375C15.5814 12.2062 15.1314 12.0375 14.7377 12.0375C14.5689 12.0375 14.4002 12.0375 14.2314 12.0937C14.2314 12.0937 13.8939 11.6438 13.1064 11.6438C12.8252 11.6438 12.6002 11.7 12.3752 11.8125V11.7562C12.3189 11.6437 12.2064 11.5312 12.0939 11.5312C11.9814 11.5312 11.8127 11.7 11.8127 11.8125V11.8688C11.5877 11.7563 11.3627 11.7 11.0814 11.7C10.2939 11.7 9.95645 12.2063 9.95645 12.15C9.7877 12.0938 9.61894 12.0937 9.45019 12.0937C6.8627 12.0937 8.15645 13.8375 8.15645 13.8375L8.4377 13.5C7.81895 12.7125 8.38145 12.2625 9.50645 12.2625C9.6752 12.2625 9.7877 12.2625 9.9002 12.3187C9.50645 12.8812 10.2377 13.3875 10.2377 13.3875L10.4064 13.1062C10.0127 12.825 9.95645 11.8688 11.0814 11.8688C11.3627 11.8688 11.5877 11.925 11.8127 12.0937C11.8127 12.15 11.7564 12.9375 11.7002 13.05L12.1502 13.4437L12.6002 13.05C12.5439 12.8813 12.4877 12.15 12.4877 12.0937C12.6564 11.9812 12.9377 11.8688 13.2189 11.8688C14.4002 11.8688 14.4002 12.825 13.8939 13.1062L14.0627 13.3875C14.0627 13.3875 14.6814 12.8812 14.4002 12.3187C14.5127 12.3187 14.6814 12.2625 14.7939 12.2625C16.1439 12.2625 16.2002 13.275 15.8627 13.5L16.0877 13.8375C15.9752 13.8375 16.5939 13.05 15.8064 12.375Z" fill="#C8B100"/>
<path d="M11.7563 11.3063C11.7563 11.1375 11.9251 10.9688 12.0938 10.9688C12.3188 10.9688 12.4313 11.1375 12.4313 11.3063C12.4313 11.475 12.2626 11.6438 12.0938 11.6438C11.9251 11.6438 11.7563 11.475 11.7563 11.3063Z" fill="#005BBF"/>
<path d="M11.9813 10.3496V10.5184H11.8126V10.6871H11.9813V11.2496H11.7563V11.4184H12.4313L12.4876 11.3059L12.4313 11.2496H12.2063V10.6871H12.3751V10.5184H12.2063V10.3496H11.9813Z" fill="#C8B100"/>
<path d="M12.0938 15.9189C11.1938 15.9189 10.4063 15.8064 9.7876 15.6377C10.4063 15.4689 11.1938 15.3564 12.0938 15.3564C12.9938 15.3564 13.7813 15.4689 14.4001 15.6377C13.8376 15.8064 12.9938 15.9189 12.0938 15.9189Z" fill="#ED4C5C"/>
<path d="M12.1501 25.6504C11.0813 25.6504 10.0688 25.3691 9.16885 24.9754C8.49385 24.6379 8.1001 24.0191 8.1001 23.2879V20.5879H16.2001V23.2879C16.2001 24.0191 15.7501 24.6941 15.1313 24.9754C14.2313 25.4254 13.2188 25.6504 12.1501 25.6504Z" fill="white"/>
<path d="M12.0938 16.0879H16.1438V20.5879H12.0938V16.0879Z" fill="white"/>
<path d="M12.1501 23.2879C12.1501 24.3566 11.2501 25.2004 10.1251 25.2004C9.0001 25.2004 8.1001 24.3566 8.1001 23.2879V20.5879H12.1501V23.2879Z" fill="#ED4C5C"/>
<path d="M8.94385 24.8621C9.05635 24.9184 9.2251 25.0309 9.4501 25.0871V20.4746H9.0001L8.94385 24.8621Z" fill="#C8B100"/>
<path d="M8.04395 23.2309C8.04395 23.7934 8.26895 24.2434 8.49395 24.4684V20.4746H8.04395V23.2309Z" fill="#C8B100"/>
<path d="M9.84375 25.1996H10.2937V20.4746H9.84375V25.1996Z" fill="#C7B500"/>
<path d="M10.7437 25.0871C10.9124 25.0309 11.1374 24.9184 11.2499 24.8621V20.4746H10.7999L10.7437 25.0871Z" fill="#C8B100"/>
<path d="M8.04395 16.0879H12.0939V20.5879H8.04395V16.0879Z" fill="#ED4C5C"/>
<path d="M11.7002 24.4688C11.9252 24.3 12.0939 23.9063 12.1502 23.4563V20.5312H11.7002V24.4688Z" fill="#C8B100"/>
<path d="M16.1999 20.5876V23.2876C16.1999 24.3564 15.2999 25.2001 14.1749 25.2001C13.0499 25.2001 12.1499 24.3564 12.1499 23.2876V20.5876H16.1999Z" fill="#ED4C5C"/>
<path d="M14.7377 16.875C14.9064 17.2125 14.9064 18.0562 14.4002 17.8875C14.5127 17.9437 14.5689 18.3375 14.7377 18.5625C15.0189 18.9 15.3564 18.6188 15.3002 18.225C15.1877 17.6063 15.2439 17.2125 15.3564 16.5938C15.3564 16.65 15.6377 16.65 15.7502 16.5375C15.6939 16.7063 15.6377 16.9313 15.7502 16.9313C15.6377 17.1 15.3564 17.3813 15.3002 17.55C15.2439 17.9438 15.8627 18.675 15.1877 18.8437C14.7377 18.9562 15.0189 19.2937 15.1877 19.4625C15.1877 19.4625 14.9627 20.1937 15.0752 20.1375C14.6252 20.3062 14.7377 19.9125 14.7377 19.9125C14.9627 19.2375 14.3439 19.1813 14.4002 19.0688C13.8377 19.0125 14.4564 19.575 13.9502 19.575C13.8377 19.575 13.6127 19.6875 13.6127 19.6875C12.9939 19.6312 13.3314 19.0687 13.5564 19.125C13.7252 19.1812 13.8939 19.4625 13.8939 19.0688C13.8939 19.0688 13.6127 18.6187 14.3439 18.6187C14.0627 18.6187 13.8939 18.3938 13.7814 18.1125C13.6689 18.1688 13.5002 18.45 12.8814 18.5063C12.8814 18.5063 12.7127 17.8875 12.8814 18C13.1064 18.1125 13.2189 18.1125 13.4439 17.8875C13.3314 17.7187 12.6564 17.4937 12.7689 17.1C12.7689 16.9875 13.1064 16.8188 13.1064 16.8188C13.0502 17.1 13.2189 17.3812 13.5564 17.3812C14.0064 17.4375 13.8377 17.2688 13.8939 17.1563C13.9502 17.0438 14.2877 17.2125 14.1752 16.9313C14.1752 16.875 13.7814 16.8188 13.8939 16.65C14.1189 16.3688 14.4564 16.5938 14.7377 16.875Z" fill="#ED4C5C"/>
<path d="M12.1501 25.0875L12.0376 24.8062L12.1501 24.4688L12.2626 24.8062L12.1501 25.0875Z" fill="#ED4C5C"/>
<path d="M9.28135 17.0437V17.325H9.39385V17.55H9.1126V18.1125H9.28135V19.35H8.94385V19.9688H11.2501V19.35H10.9688V18.1125H11.0813V17.55H10.8001V17.325H10.9688V17.0437H10.4063V17.325H10.5188V17.55H10.2376V16.875H10.4063V16.5938H9.7876V16.875H9.95635V17.55H9.6751V17.325H9.7876V17.0437H9.28135Z" fill="#C8B100"/>
<path d="M15.6374 23.9629V21.1504H12.7124V23.9629L14.0624 24.5816H14.2312L15.6374 23.9629ZM14.0624 21.3754V22.3316L13.1062 21.3754H14.0624ZM12.8812 21.4316L14.0062 22.5566L12.8812 23.6816V21.4316ZM12.9937 23.9066L14.0624 22.8379V24.4129L12.9937 23.9066ZM14.2312 24.3566V22.7816L15.2999 23.8504L14.2312 24.3566ZM15.4124 23.6816L14.2874 22.5566L15.4124 21.4316V23.6816ZM14.2312 21.3754H15.1874L14.2312 22.3316V21.3754Z" fill="#C8B100"/>
<path d="M10.7998 20.5309C10.7998 19.6871 11.3623 19.0684 12.0936 19.0684C12.8248 19.0684 13.3873 19.7434 13.3873 20.5309C13.3873 21.3184 12.8248 21.9934 12.0936 21.9934C11.3623 21.9934 10.7998 21.3746 10.7998 20.5309Z" fill="#ED4C5C"/>
<path d="M11.1938 20.5316C11.1938 19.9129 11.5876 19.4629 12.0938 19.4629C12.6001 19.4629 12.9938 19.9691 12.9938 20.5316C12.9938 21.1504 12.6001 21.6004 12.0938 21.6004C11.6438 21.6566 11.1938 21.1504 11.1938 20.5316Z" fill="#005BBF"/>
<path d="M11.7001 19.7998L11.4751 20.4186L11.6438 20.4748L11.5313 20.6998H11.8688L11.7563 20.4748L11.9251 20.4186L11.7001 19.7998Z" fill="#C8B100"/>
<path d="M12.5438 19.7998L12.3188 20.4186L12.4876 20.4748L12.3751 20.6998H12.7126L12.6563 20.4748L12.8251 20.4186L12.5438 19.7998Z" fill="#C8B100"/>
<path d="M12.1499 20.5312L11.8687 21.15L12.0374 21.2062L11.9812 21.4312H12.2624L12.2062 21.2062L12.3749 21.15L12.1499 20.5312Z" fill="#C8B100"/>
</svg>
