<svg width="36" height="36" viewBox="0 0 36 36" fill="none" xmlns="http://www.w3.org/2000/svg">
<path d="M17.9998 1.125C10.6311 1.125 4.3873 5.85 2.08105 12.375H33.9186C31.6123 5.85 25.3686 1.125 17.9998 1.125Z" fill="#ED4C5C"/>
<path d="M17.9998 34.875C25.3686 34.875 31.6123 30.2062 33.9186 23.625H2.08105C4.3873 30.2062 10.6311 34.875 17.9998 34.875Z" fill="#83BF4F"/>
<path d="M2.08125 12.375C1.4625 14.1187 1.125 16.0312 1.125 18C1.125 19.9688 1.4625 21.8813 2.08125 23.625H33.9188C34.5375 21.8813 34.875 19.9688 34.875 18C34.875 16.0312 34.5375 14.1187 33.9188 12.375H2.08125Z" fill="#F9F9F9"/>
</svg>
