<svg width="36" height="36" viewBox="0 0 36 36" fill="none" xmlns="http://www.w3.org/2000/svg">
<path d="M34.875 18.0005C34.875 10.6318 30.2062 4.38804 23.625 2.08179V33.9193C30.2062 31.613 34.875 25.3693 34.875 18.0005Z" fill="#ED4C5C"/>
<path d="M1.125 18.0005C1.125 25.3693 5.85 31.613 12.375 33.9193V2.08179C5.85 4.38804 1.125 10.6318 1.125 18.0005Z" fill="#75A843"/>
<path d="M23.625 2.08125C21.8813 1.4625 19.9688 1.125 18 1.125C16.0312 1.125 14.1187 1.4625 12.375 2.08125V33.9188C14.1187 34.5375 16.0312 34.875 18 34.875C19.9688 34.875 21.8813 34.5375 23.625 33.9188V2.08125Z" fill="white"/>
<path d="M22.8938 17.8316C22.8375 17.6629 22.7813 17.8879 22.7813 17.9441C22.7813 17.7754 22.725 17.6629 22.6125 17.4941C22.4438 17.6629 22.3875 17.8879 22.3875 18.1129C22.3313 17.9441 22.275 17.7754 22.1063 17.7191C22.2188 17.8879 22.1625 18.0004 22.1625 18.1691C22.1625 18.3941 22.3313 18.5629 22.3313 18.7879C22.3313 19.0129 22.2188 19.1816 22.05 19.3504V19.1816C21.4875 19.4066 21.6 19.6879 21.6 20.1941C21.6 20.7004 21.3188 20.5879 20.9813 20.8691C21.0375 20.7566 21.0375 20.5879 20.9813 20.4754C20.9813 20.8129 20.5313 20.8129 20.475 21.0941C20.4188 21.2066 20.475 21.4316 20.3062 21.4879C20.1937 21.5441 20.025 21.6566 20.025 21.7691C19.9125 21.7129 19.8 21.7129 19.6313 21.7129C19.6875 21.6566 19.7438 21.6566 19.8 21.6004C19.2375 21.3191 19.0688 21.9379 18.5625 21.9941C18.3938 21.9941 18 21.7691 18 21.9941C18.5063 21.9941 18.7313 22.4441 19.125 22.4441C19.4625 22.4441 19.7438 22.1629 20.0813 22.1629C20.025 22.1629 19.8563 22.0504 19.6875 22.0504C19.9688 21.8816 20.1375 21.5441 20.475 21.5441C21.0375 21.5441 21.3188 21.4316 21.4875 20.8691C21.4313 20.8691 21.375 20.8691 21.3188 20.9254C21.3188 20.7004 21.5438 20.4191 21.7688 20.3066C22.3313 20.1941 22.275 19.7441 22.6125 19.3504C22.5 19.3504 22.3875 19.4066 22.275 19.5191C22.275 19.1816 22.2188 18.8441 22.5 18.6191C23.0625 18.3379 23.0063 18.2254 22.8938 17.8316Z" fill="#75A843"/>
<path d="M13.1061 17.8316C12.9936 18.2816 12.9374 18.3941 13.3874 18.6754C13.7249 18.9004 13.6124 19.2379 13.6124 19.5754C13.4999 19.4629 13.4436 19.4066 13.2749 19.4066C13.6124 19.7441 13.5561 20.2504 14.1186 20.3629C14.2874 20.4754 14.5686 20.7566 14.5686 20.9816C14.5124 20.9816 14.4561 20.9254 14.3999 20.9254C14.5686 21.4879 14.8499 21.6004 15.4124 21.6004C15.7499 21.6004 15.9186 21.9379 16.1999 22.1066C16.0311 22.1066 15.8624 22.1629 15.8061 22.2191C16.1436 22.2191 16.4249 22.5566 16.7624 22.5004C17.1561 22.5004 17.4374 22.0504 17.8874 22.0504C17.8874 21.8254 17.4936 22.0504 17.3249 22.0504C16.8749 21.9379 16.7061 21.3754 16.0874 21.6004C16.1436 21.6566 16.1999 21.7129 16.2561 21.7129C16.1436 21.7129 15.9749 21.6566 15.8624 21.7691C15.8061 21.6566 15.6936 21.5441 15.5811 21.4879C15.4686 21.3754 15.4686 21.2066 15.4124 21.0941C15.2999 20.8129 14.9061 20.7566 14.9061 20.4754C14.8499 20.5879 14.8499 20.7566 14.9061 20.8691C14.5686 20.5879 14.2874 20.7004 14.2874 20.1941C14.2874 19.7441 14.3999 19.4066 13.8374 19.1816V19.3504C13.6686 19.1816 13.5561 19.0691 13.5561 18.7879C13.5561 18.5629 13.7811 18.3941 13.7249 18.1691C13.7249 18.0004 13.6686 17.8879 13.7811 17.7191C13.6124 17.7754 13.5561 17.9441 13.4999 18.1129C13.4999 17.8879 13.4436 17.6629 13.2749 17.4941C13.2186 17.6066 13.1624 17.7754 13.1061 17.9441C13.1624 17.8316 13.1061 17.6629 13.1061 17.8316Z" fill="#75A843"/>
<path d="M19.5188 21.2057C19.4063 21.2057 19.3501 21.0932 19.2938 21.037C19.2938 20.9245 19.7438 20.812 19.8001 20.812V20.6995C19.0688 20.9245 16.8751 21.0932 16.4251 20.3057C16.2001 20.6432 15.8063 20.4182 15.4126 20.137C15.4688 20.2495 15.6938 20.812 15.6938 20.7557C15.8063 20.812 16.5376 20.9807 16.5376 21.1495L16.3688 21.3182C17.5501 21.712 18.2813 21.8245 19.5188 21.2057Z" fill="#428BC1"/>
<path d="M18.7875 21.207C18.8438 21.1507 18.8438 21.0945 18.8438 20.982L18.7875 20.8132C18.9 20.7007 18.7875 20.4195 18.6187 20.4757C18.5062 20.532 18.5625 20.532 18.45 20.4757C18.3937 20.4757 18.3937 20.4195 18.3375 20.4195H17.325C17.2125 20.4195 17.2125 20.3632 17.1 20.3632C16.9875 20.307 16.9313 20.4195 16.875 20.4757C16.875 20.5882 16.9313 20.5882 16.9313 20.6445C16.9313 20.7007 16.875 20.757 16.875 20.8695C16.875 20.982 16.9313 21.0382 16.9875 21.0945C16.7625 21.2632 16.9875 21.5445 17.2125 21.3757C17.2688 21.4882 17.4375 21.4882 17.6062 21.4882H18.225C18.3375 21.4882 18.5625 21.5445 18.6187 21.3757C18.7875 21.657 19.0125 21.3195 18.7875 21.207Z" fill="#ED4C5C"/>
<path d="M20.5876 19.7439C20.1376 19.1814 19.9126 20.0252 19.4063 19.9689C19.5188 19.2939 18.5063 19.5189 18.2251 19.6877C18.2813 19.6314 18.3376 19.5189 18.3938 19.4064C18.1688 19.4064 17.8876 19.5189 17.7188 19.3502C17.3813 19.1252 16.9313 19.0127 16.6501 19.4064C16.4251 19.0689 15.8063 18.7314 15.4688 19.0689C15.4688 18.7314 15.1313 18.2252 14.7376 18.2814C14.2876 18.3377 14.4563 18.9002 14.6813 19.1252C14.8501 19.2939 15.0751 19.3502 15.3001 19.3502C15.3001 19.4627 15.3563 19.5189 15.4126 19.5752C15.6938 19.8002 16.2563 19.8564 16.5376 19.6314C16.5376 20.1939 17.6626 20.1939 17.9438 19.9127C17.8313 20.1939 17.7188 20.7564 18.1126 20.7564C18.4501 20.7564 18.3376 20.4189 18.6188 20.3064C18.8438 20.1939 19.1251 20.1377 19.3501 20.2502C19.7438 20.4752 20.9813 20.4189 20.5876 19.7439Z" fill="#428BC1"/>
<path d="M15.975 18.3372C15.9188 18.2247 15.8063 18.1122 15.8063 18.1122C15.5813 18.1685 15.5813 17.9997 15.525 17.831C15.4688 17.5497 15.075 17.4372 15.075 17.2122C15.075 16.9872 15.3 16.7622 15.1313 16.5372C14.9625 16.3122 14.6813 16.1997 14.6813 16.3122C14.625 16.4247 14.9063 16.4247 14.9063 16.706C14.9063 17.0435 14.5688 17.3247 14.9625 17.606C15.1875 17.9435 15.1875 18.5622 15.5813 18.5622C15.75 18.5622 15.9188 18.5059 15.975 18.3372Z" fill="#75A843"/>
<path d="M16.819 18.0556C16.7065 17.8306 16.819 17.4931 16.594 17.3243C16.3127 17.0993 15.7502 17.5493 15.694 16.9868C15.694 16.8743 16.3127 16.1993 16.4252 16.1431C16.594 15.9181 16.5377 15.5243 16.369 15.4118C16.144 15.2993 16.0877 15.4118 15.919 15.6368C15.9752 15.6931 16.2002 15.8056 16.2002 15.8618C16.0315 16.2556 15.5252 16.3118 15.4127 16.7056C15.3002 16.9868 15.3565 17.4368 15.6377 17.6056C15.8065 17.7181 15.919 17.7181 16.0877 17.7181C16.594 17.6618 16.3127 17.7743 16.369 17.8868C16.369 17.9993 16.5377 18.3931 16.819 18.0556Z" fill="#75A843"/>
<path d="M15.1314 15.2998C15.1314 15.6373 15.4689 15.581 15.6939 15.5248C15.6939 15.4123 15.6939 15.2998 15.7502 15.1873C15.6377 15.2435 15.4689 15.2435 15.4127 15.1873C15.2439 15.0748 15.8064 14.8498 15.7502 14.8498C15.7502 14.8498 15.1877 15.131 15.4127 14.7935C15.4689 14.681 15.5814 14.5685 15.6377 14.456C15.6939 14.3435 15.4689 14.456 15.4689 14.456C15.4127 14.456 15.3564 14.456 15.3002 14.5123C14.9627 14.7935 15.0752 14.9623 15.1314 15.2998Z" fill="#75A843"/>
<path d="M21.094 15.3C20.8127 14.9063 19.744 13.6125 18.2252 13.5C18.0565 13.5 17.6065 13.6687 17.4377 13.725C16.9315 14.0625 18.0002 14.3437 18.0565 14.5687C18.0565 14.6812 18.1127 14.7375 18.1127 14.85C17.944 14.5687 17.7752 14.4 17.719 14.2875C17.4377 14.4 16.9877 14.2312 16.9315 13.95C16.8752 14.0625 16.8752 14.1187 16.7627 14.2312C16.7627 14.0625 16.7065 14.0625 16.6502 13.95C16.6502 14.1187 16.6502 14.3438 16.4815 14.4C16.5377 14.2875 16.4815 14.175 16.4252 14.0625C16.4252 14.2312 16.4252 14.3438 16.3127 14.4563C16.369 14.3438 16.2565 14.2875 16.2565 14.175C16.2002 14.625 15.5815 14.7937 16.2002 14.9625C16.4252 15.0187 16.5377 14.9625 16.7627 15.075C16.819 15.1312 16.9315 15.2437 16.9315 15.1875C16.9315 15.2437 16.7065 15.4687 16.8752 15.525C16.819 15.5812 16.6502 15.9187 16.6502 15.9187C16.819 15.9187 16.7065 16.0312 16.594 16.1437C16.4252 16.425 16.594 16.7062 16.6502 17.0437C16.6502 16.9312 16.819 17.1 16.819 17.2687C16.819 17.4937 17.044 17.6062 17.1002 17.775C16.819 17.4937 16.7627 17.775 17.1002 17.9437C16.819 17.9437 16.7627 18.1125 17.044 18.225C16.369 18.225 16.9315 18.5062 17.044 18.5625C17.494 18.675 17.8315 18.3375 17.8315 18.2812C17.8315 18.2812 18.7315 19.1812 18.7877 19.1812C18.844 19.1812 19.294 18.9562 19.4065 19.0687C19.519 19.2375 19.6315 19.0687 19.744 19.125C19.8565 19.2375 20.3065 19.125 20.419 19.0687C20.4752 19.0687 21.0377 18.9562 20.9252 18.8437C20.644 18.6187 20.3065 18.3937 20.0252 18.1687C19.744 17.9437 19.4627 17.775 19.2377 17.55C19.1252 17.4375 19.1252 17.2125 19.069 17.0437C19.5752 17.55 20.0815 17.8312 20.0252 16.875C20.3627 17.1562 21.0377 18.7312 21.094 18.7312C21.2627 18.7312 21.094 17.0437 21.094 16.875C21.319 17.1 21.319 18.9562 21.3752 18.9562C21.6565 19.0125 22.0502 16.5375 21.094 15.3Z" fill="#89664C"/>
<path d="M17.044 18.1693C16.9878 18.1693 16.7065 17.7756 16.7065 17.7193C16.8753 18.3943 16.2003 18.0006 16.369 17.7193C16.144 17.6631 15.5815 18.0006 15.8065 18.3381C15.694 18.5631 16.594 18.3943 16.6503 18.2818C16.8753 18.7881 17.4378 18.2256 17.044 18.1693Z" fill="#FFCE31"/>
<path d="M19.6877 19.8566C19.969 19.4629 18.7877 19.3504 18.9002 18.9004C18.7315 19.0129 18.5065 19.4066 18.2815 19.2941C18.169 19.2379 17.719 19.5191 17.944 19.6879C17.944 19.4629 18.0565 19.6316 18.2252 19.5754C18.169 19.7441 18.0002 19.9129 18.2815 20.0254C18.169 19.6879 18.619 19.8566 18.5627 19.6879C18.4502 19.5754 18.9565 19.5754 19.0127 19.5754C19.1815 19.5754 19.744 19.7441 19.519 19.9129C19.519 19.9129 19.6315 19.9129 19.6877 19.8566Z" fill="#FFCE31"/>
<path d="M15.9189 15.0188C15.8627 15.1313 15.6377 15.3 15.6377 15.4688C15.6377 15.5813 15.9189 15.8625 16.0314 15.6938C15.6939 15.4688 16.0877 15.3 16.2564 15.3C16.3127 15.3 16.3127 15.4125 16.3127 15.4125C16.3689 15.4688 16.8189 15.3 16.7627 15.1875C16.8189 14.9625 16.0877 14.9625 15.9189 15.0188Z" fill="#FFCE31"/>
</svg>
