<svg width="36" height="36" viewBox="0 0 36 36" fill="none" xmlns="http://www.w3.org/2000/svg">
<path d="M18.5627 18L6.35645 30.2063C9.39395 33.075 13.5002 34.875 18.0002 34.875C27.3377 34.875 34.8752 27.3375 34.8752 18H18.5627Z" fill="#ED4C5C"/>
<path d="M34.8752 18C34.8752 8.6625 27.3377 1.125 18.0002 1.125C13.5002 1.125 9.39395 2.925 6.35645 5.79375L18.5627 18H34.8752Z" fill="#428BC1"/>
<path d="M6.35625 5.79321C3.15 8.88696 1.125 13.2182 1.125 17.9995C1.125 22.7807 3.15 27.112 6.35625 30.2057L18.5625 17.9995L6.35625 5.79321Z" fill="#F9F9F9"/>
<path d="M7.31221 7.64946L6.86221 8.43696L7.48096 9.05571L6.63721 8.94321L6.18721 9.73071L6.07471 8.88696L5.23096 8.77446L6.01846 8.32446L5.90596 7.48071L6.52471 8.09946L7.31221 7.64946Z" fill="#FFCE31"/>
<path d="M7.4249 27L6.80615 27.675L7.25615 28.4063L6.46865 28.0688L5.8499 28.7438L5.9624 27.8438L5.11865 27.5063L6.01865 27.3375L6.13115 26.4375L6.58115 27.225L7.4249 27Z" fill="#FFCE31"/>
<path d="M17.1562 18L16.3125 18.2812V19.125L15.75 18.45L14.9062 18.675L15.4688 18L14.9062 17.325L15.75 17.55L16.3125 16.875V17.7188L17.1562 18Z" fill="#FFCE31"/>
<path d="M13.3311 17.1553L12.9936 16.8741L9.33731 17.6616H9.39356L12.8248 16.7616L12.3748 16.4803L9.4498 17.6053L11.8686 15.5803L11.8123 15.0741L9.28105 17.6616H9.2248L11.7561 14.8491L11.6998 14.4553L11.3061 14.5116L9.05606 17.4366V17.3803L11.1373 14.3991L10.6311 14.4553L9.11231 17.2116L9.67481 14.0616L9.33731 13.7241L8.9998 17.3803V17.4366L9.11231 13.6116L8.83105 13.3303L8.5498 13.6116L8.6623 17.4366V17.3803L8.38105 13.7803L8.04355 14.1178L8.60605 17.2678L7.08731 14.5116L6.58105 14.4553L8.6623 17.4366V17.4928L6.35605 14.4553L5.96231 14.3991L5.90605 14.7928L8.4373 17.6053H8.38105L5.8498 15.0178L5.79355 15.5241L8.21231 17.5491L5.2873 16.4241L4.89355 16.7053L8.3248 17.6053H8.38105L4.66855 16.8741L4.33105 17.0991L4.55606 17.4366L8.26855 17.9428H8.21231L4.66855 17.6053L4.9498 17.9991L8.0998 17.9428L5.1748 19.1241L5.0623 19.6303L8.26855 18.0553H8.3248L5.00605 19.8553L4.89355 20.2491L5.2873 20.3616L8.49356 18.3366V18.3928L5.56855 20.4741L6.01855 20.5866L8.38105 18.5053L6.7498 21.2616L6.9748 21.7116L8.4373 18.4491L8.49356 18.3928L7.08731 21.9366L7.25605 22.3303L7.64981 22.1616L8.83105 18.5053V18.5616L7.8748 22.0491L8.3248 21.8241L8.83105 18.6741L9.33731 21.8241L9.7873 22.0491L8.83105 18.5616V18.5053L10.0123 22.1616L10.4061 22.3303L10.5748 21.9366L9.16855 18.3928L9.2248 18.4491L10.6873 21.7116L10.9123 21.2616L9.33731 18.5053L11.6998 20.5866L12.1498 20.4741L9.2248 18.3928V18.3366L12.4311 20.3616L12.8248 20.2491L12.7123 19.8553L9.39356 18.0553H9.4498L12.6561 19.6303L12.4873 19.1241L9.50605 18.0553L12.6561 18.1116L12.9373 17.7178L9.39356 18.0553H9.33731L13.0498 17.5491L13.3311 17.1553Z" fill="#FFCE31"/>
<path d="M8.83106 20.5312C10.229 20.5312 11.3623 19.398 11.3623 18C11.3623 16.602 10.229 15.4688 8.83106 15.4688C7.43308 15.4688 6.2998 16.602 6.2998 18C6.2998 19.398 7.43308 20.5312 8.83106 20.5312Z" fill="#FFCE31"/>
</svg>
